<svg width="1000" height="201" viewBox="0 0 1000 201" fill="none" xmlns="http://www.w3.org/2000/svg">
<path d="M97.7896 118.218C96.6787 118.449 95.5282 118.571 94.3491 118.571C93.1691 118.571 92.0174 118.449 90.9058 118.218H97.7896ZM176.609 118.218C175.814 118.333 175.001 118.394 174.173 118.394C173.347 118.394 172.535 118.333 171.741 118.218H176.609ZM106.391 114.863C105.449 115.369 104.504 115.845 103.553 116.275H85.8501C85.1309 115.854 84.4465 115.382 83.8003 114.863H106.391ZM184.5 114.863C183.827 115.386 183.112 115.858 182.362 116.275H165.375C164.401 115.848 163.433 115.372 162.467 114.863H184.5ZM112.069 111.507C111.307 111.985 110.545 112.458 109.782 112.919H81.7534C81.3526 112.47 80.9749 111.999 80.6235 111.507H112.069ZM187.77 111.507C187.409 111.999 187.021 112.47 186.61 112.919H159.033C158.263 112.459 157.495 111.985 156.727 111.507H187.77ZM117.444 108.152C116.682 108.614 115.921 109.087 115.161 109.564H79.4243C79.1823 109.105 78.961 108.634 78.7612 108.152H117.444ZM189.688 108.152C189.482 108.634 189.254 109.106 189.005 109.564H153.621C152.858 109.087 152.094 108.614 151.33 108.152H189.688ZM123.614 104.796C122.675 105.229 121.74 105.704 120.809 106.208H78.0923C77.9643 105.746 77.8566 105.274 77.7681 104.796H123.614ZM190.721 104.796C190.627 105.275 190.514 105.746 190.38 106.208H147.957C147.025 105.704 146.091 105.228 145.151 104.796H190.721ZM191.039 101.529C191.039 101.975 191.022 102.417 190.988 102.854H139.653C138.2 102.515 136.73 102.324 135.24 102.324H133.519C132.03 102.324 130.563 102.515 129.111 102.854H77.5229C77.4974 102.474 77.4839 102.092 77.4839 101.706C77.4839 101.617 77.4864 101.529 77.4878 101.441H191.038C191.038 101.47 191.039 101.499 191.039 101.529ZM125.75 98.0854C127.203 98.4223 128.676 98.6147 130.174 98.6147H138.106C139.604 98.6147 141.076 98.4225 142.53 98.0854H190.686C190.782 98.5495 190.859 99.0204 190.917 99.4976H77.6284C77.6908 99.0203 77.773 98.5493 77.8745 98.0854H125.75ZM117.326 94.73C118.278 95.2326 119.234 95.708 120.196 96.1431H78.4233C78.5915 95.6616 78.7813 95.1904 78.9907 94.73H117.326ZM189.611 94.73C189.814 95.1907 189.999 95.6618 190.161 96.1431H148.077C149.036 95.7082 149.991 95.233 150.942 94.73H189.611ZM111.407 91.3745C112.215 91.847 113.025 92.3192 113.833 92.7866H80.0337C80.3383 92.2987 80.6667 91.8273 81.0181 91.3745H111.407ZM187.639 91.3745C187.982 91.8281 188.303 92.2989 188.599 92.7866H154.424C155.229 92.3199 156.033 91.8473 156.836 91.3745H187.639ZM105.354 88.019C106.246 88.4657 107.133 88.9407 108.019 89.4321H82.7837C83.3217 88.925 83.8926 88.4526 84.4937 88.019H105.354ZM184.271 88.019C184.852 88.4542 185.404 88.9271 185.923 89.4321H160.193C161.067 88.9416 161.943 88.4679 162.823 88.019H184.271ZM94.3491 84.8403C95.7637 84.8403 97.1377 85.0142 98.4507 85.3423C99.2621 85.545 100.067 85.7932 100.868 86.0767H88.0024C89.9616 85.2803 92.1039 84.8404 94.3491 84.8403ZM174.173 84.6636C176.579 84.6636 178.867 85.1688 180.938 86.0767H167.166C168.136 85.7144 169.114 85.4034 170.101 85.1587C171.405 84.8353 172.769 84.6636 174.173 84.6636Z" fill="black"/>
<circle cx="101.92" cy="27.7759" r="19.6405" transform="rotate(-45 101.92 27.7759)" fill="black"/>
<circle cx="32.4516" cy="100.416" r="19.6405" transform="rotate(-45 32.4516 100.416)" fill="black"/>
<circle cx="101.92" cy="173.224" r="19.6405" transform="rotate(-45 101.92 173.224)" fill="black"/>
<path d="M124.77 49.7902C132.44 42.1201 144.876 42.1201 152.546 49.7902C160.216 57.4602 160.216 69.8955 152.546 77.5656C144.876 85.2356 132.44 85.2356 124.77 77.5656V77.5656C119.473 72.269 113.5 65.9601 106.01 65.9601H97.1615C89.6711 65.9601 83.6979 72.269 78.4015 77.5656V77.5656C70.7314 85.2356 58.2962 85.2356 50.6261 77.5656C42.956 69.8955 42.956 57.4603 50.6261 49.7902C58.2962 42.1202 70.7315 42.1201 78.4015 49.7902V49.7902C83.8832 55.2719 90.0248 61.9532 97.7772 61.9532H105.394C113.146 61.9532 119.288 55.272 124.77 49.7902V49.7902Z" fill="black"/>
<path d="M125.318 122.479C132.988 114.809 145.424 114.809 153.095 122.479C160.764 130.149 160.764 142.584 153.095 150.254C145.424 157.924 132.988 157.924 125.318 150.254V150.254C120.022 144.957 114.049 138.649 106.558 138.649H97.71C90.2196 138.649 84.2464 144.957 78.95 150.254V150.254C71.2799 157.924 58.8437 157.924 51.1736 150.254C43.504 142.584 43.504 130.149 51.1736 122.479C58.8437 114.809 71.2799 114.809 78.95 122.479V122.479C84.4314 127.96 90.5728 134.641 98.3247 134.641H105.943C113.695 134.641 119.837 127.96 125.318 122.479V122.479Z" fill="black"/>
<mask id="path-8-outside-1_66_5528" maskUnits="userSpaceOnUse" x="203" y="38" width="797" height="121" fill="black">
<rect fill="white" x="203" y="38" width="797" height="121"/>
<path d="M238.273 155H204.322V44.9835H239.777C250.449 44.9835 259.581 47.1859 267.174 51.5909C274.766 55.96 280.585 62.2452 284.632 70.4463C288.679 78.6116 290.702 88.3884 290.702 99.7769C290.702 111.237 288.661 121.103 284.579 129.376C280.496 137.613 274.551 143.952 266.744 148.393C258.937 152.798 249.446 155 238.273 155ZM217.645 143.182H237.413C246.51 143.182 254.048 141.427 260.029 137.917C266.01 134.408 270.468 129.412 273.405 122.93C276.342 116.448 277.81 108.73 277.81 99.7769C277.81 90.8953 276.36 83.2493 273.459 76.8388C270.558 70.3926 266.225 65.4504 260.459 62.0124C254.693 58.5386 247.512 56.8016 238.917 56.8016H217.645V143.182ZM345.926 156.719C337.975 156.719 331.117 154.964 325.351 151.455C319.621 147.909 315.198 142.967 312.083 136.628C309.003 130.253 307.463 122.84 307.463 114.388C307.463 105.937 309.003 98.4876 312.083 92.0413C315.198 85.5592 319.532 80.5096 325.083 76.8926C330.669 73.2397 337.187 71.4132 344.636 71.4132C348.934 71.4132 353.178 72.1295 357.368 73.562C361.558 74.9945 365.372 77.3223 368.81 80.5455C372.248 83.7328 374.988 87.9587 377.029 93.2231C379.07 98.4876 380.091 104.97 380.091 112.669V118.041H316.488V107.083H367.198C367.198 102.427 366.267 98.2727 364.405 94.6198C362.579 90.9669 359.964 88.084 356.562 85.9711C353.196 83.8581 349.22 82.8016 344.636 82.8016C339.587 82.8016 335.218 84.0551 331.529 86.562C327.876 89.0331 325.065 92.2562 323.095 96.2314C321.125 100.207 320.141 104.468 320.141 109.017V116.322C320.141 122.554 321.215 127.836 323.364 132.169C325.548 136.467 328.574 139.744 332.442 142C336.31 144.22 340.804 145.331 345.926 145.331C349.256 145.331 352.264 144.865 354.95 143.934C357.672 142.967 360.018 141.534 361.988 139.636C363.957 137.702 365.479 135.303 366.554 132.438L378.802 135.876C377.512 140.03 375.346 143.683 372.302 146.835C369.258 149.95 365.497 152.386 361.021 154.14C356.544 155.86 351.512 156.719 345.926 156.719ZM436.12 72.4876V83.2314H391.641V72.4876H436.12ZM404.963 155V61.0992C404.963 56.3719 406.073 52.4325 408.293 49.281C410.514 46.1295 413.397 43.7658 416.942 42.1901C420.488 40.6143 424.23 39.8264 428.169 39.8264C431.285 39.8264 433.828 40.0771 435.798 40.5785C437.767 41.0799 439.236 41.5454 440.202 41.9752L436.55 52.9339C435.905 52.719 435.01 52.4504 433.864 52.1281C432.753 51.8058 431.285 51.6446 429.459 51.6446C425.269 51.6446 422.242 52.7011 420.38 54.814C418.554 56.927 417.641 60.0248 417.641 64.1074V155H404.963ZM453.887 155V72.4876H466.565V155H453.887ZM460.334 58.7355C457.863 58.7355 455.732 57.8939 453.941 56.2107C452.186 54.5275 451.309 52.5041 451.309 50.1405C451.309 47.7769 452.186 45.7534 453.941 44.0702C455.732 42.387 457.863 41.5454 460.334 41.5454C462.805 41.5454 464.918 42.387 466.673 44.0702C468.463 45.7534 469.358 47.7769 469.358 50.1405C469.358 52.5041 468.463 54.5275 466.673 56.2107C464.918 57.8939 462.805 58.7355 460.334 58.7355ZM502.463 105.364V155H489.785V72.4876H502.033V85.3802H503.107C505.041 81.1901 507.978 77.8237 511.917 75.281C515.857 72.7025 520.942 71.4132 527.174 71.4132C532.76 71.4132 537.649 72.5592 541.839 74.8512C546.029 77.1074 549.288 80.5455 551.616 85.1653C553.944 89.7493 555.107 95.551 555.107 102.57V155H542.43V103.43C542.43 96.9477 540.747 91.8981 537.38 88.281C534.014 84.6281 529.394 82.8016 523.521 82.8016C519.474 82.8016 515.857 83.6791 512.669 85.4339C509.518 87.1887 507.029 89.7493 505.202 93.1157C503.376 96.4821 502.463 100.565 502.463 105.364ZM602.555 156.934C597.326 156.934 592.581 155.949 588.319 153.979C584.058 151.974 580.673 149.091 578.166 145.331C575.659 141.534 574.406 136.95 574.406 131.579C574.406 126.851 575.337 123.019 577.199 120.083C579.062 117.11 581.551 114.782 584.666 113.099C587.782 111.416 591.22 110.163 594.98 109.339C598.777 108.479 602.591 107.799 606.423 107.298C611.436 106.653 615.501 106.169 618.617 105.847C621.768 105.489 624.06 104.898 625.493 104.074C626.961 103.251 627.695 101.818 627.695 99.7769V99.3471C627.695 94.0468 626.245 89.9284 623.344 86.9917C620.479 84.0551 616.128 82.5868 610.29 82.5868C604.238 82.5868 599.493 83.9118 596.055 86.562C592.617 89.2121 590.199 92.0413 588.803 95.0496L576.77 90.7521C578.918 85.7383 581.783 81.8347 585.365 79.0413C588.982 76.2121 592.921 74.2424 597.183 73.1322C601.48 71.9862 605.706 71.4132 609.861 71.4132C612.511 71.4132 615.555 71.7355 618.993 72.3802C622.467 72.989 625.815 74.2603 629.038 76.1942C632.297 78.1281 635.001 81.0468 637.15 84.9504C639.299 88.854 640.373 94.0826 640.373 100.636V155H627.695V143.826H627.051C626.191 145.617 624.759 147.533 622.753 149.574C620.748 151.616 618.08 153.353 614.749 154.785C611.418 156.218 607.354 156.934 602.555 156.934ZM604.489 145.545C609.502 145.545 613.728 144.561 617.166 142.591C620.64 140.621 623.254 138.079 625.009 134.963C626.8 131.847 627.695 128.57 627.695 125.132V113.529C627.158 114.174 625.976 114.764 624.15 115.302C622.359 115.803 620.282 116.251 617.918 116.645C615.591 117.003 613.316 117.325 611.096 117.612C608.912 117.862 607.139 118.077 605.778 118.256C602.483 118.686 599.403 119.384 596.538 120.351C593.709 121.282 591.417 122.697 589.662 124.595C587.943 126.457 587.084 129 587.084 132.223C587.084 136.628 588.713 139.959 591.972 142.215C595.267 144.435 599.439 145.545 604.489 145.545ZM665.231 155V44.9835H677.909V85.595H678.984C679.915 84.1625 681.204 82.3361 682.851 80.1157C684.534 77.8595 686.934 75.854 690.05 74.0992C693.201 72.3085 697.463 71.4132 702.835 71.4132C709.782 71.4132 715.906 73.1501 721.207 76.624C726.507 80.0978 730.643 85.022 733.616 91.3967C736.588 97.7713 738.074 105.292 738.074 113.959C738.074 122.697 736.588 130.271 733.616 136.682C730.643 143.056 726.525 147.999 721.26 151.508C715.996 154.982 709.926 156.719 703.05 156.719C697.749 156.719 693.506 155.842 690.318 154.087C687.131 152.296 684.678 150.273 682.959 148.017C681.24 145.725 679.915 143.826 678.984 142.322H677.479V155H665.231ZM677.694 113.744C677.694 119.975 678.607 125.472 680.434 130.236C682.26 134.963 684.928 138.669 688.438 141.355C691.948 144.006 696.245 145.331 701.331 145.331C706.631 145.331 711.054 143.934 714.599 141.14C718.18 138.311 720.866 134.515 722.657 129.752C724.484 124.953 725.397 119.617 725.397 113.744C725.397 107.942 724.501 102.713 722.711 98.0578C720.956 93.3664 718.288 89.6598 714.707 86.938C711.161 84.1804 706.703 82.8016 701.331 82.8016C696.174 82.8016 691.84 84.1088 688.331 86.7231C684.821 89.3016 682.171 92.9187 680.38 97.5744C678.59 102.194 677.694 107.584 677.694 113.744ZM770.145 44.9835V155H757.467V44.9835H770.145ZM827.96 156.719C820.009 156.719 813.151 154.964 807.385 151.455C801.655 147.909 797.232 142.967 794.117 136.628C791.037 130.253 789.497 122.84 789.497 114.388C789.497 105.937 791.037 98.4876 794.117 92.0413C797.232 85.5592 801.566 80.5096 807.117 76.8926C812.704 73.2397 819.221 71.4132 826.671 71.4132C830.968 71.4132 835.212 72.1295 839.402 73.562C843.592 74.9945 847.406 77.3223 850.844 80.5455C854.282 83.7328 857.022 87.9587 859.063 93.2231C861.104 98.4876 862.125 104.97 862.125 112.669V118.041H798.522V107.083H849.232C849.232 102.427 848.301 98.2727 846.439 94.6198C844.613 90.9669 841.998 88.084 838.596 85.9711C835.23 83.8581 831.255 82.8016 826.671 82.8016C821.621 82.8016 817.252 84.0551 813.563 86.562C809.91 89.0331 807.099 92.2562 805.129 96.2314C803.159 100.207 802.175 104.468 802.175 109.017V116.322C802.175 122.554 803.249 127.836 805.398 132.169C807.582 136.467 810.609 139.744 814.476 142C818.344 144.22 822.839 145.331 827.96 145.331C831.29 145.331 834.299 144.865 836.985 143.934C839.706 142.967 842.052 141.534 844.022 139.636C845.991 137.702 847.513 135.303 848.588 132.438L860.836 135.876C859.547 140.03 857.38 143.683 854.336 146.835C851.292 149.95 847.531 152.386 843.055 154.14C838.578 155.86 833.547 156.719 827.96 156.719ZM887.642 155H873.675L914.071 44.9835H927.823L968.22 155H954.253L921.377 62.3884H920.518L887.642 155ZM892.799 112.025H949.096V123.843H892.799V112.025ZM998.679 44.9835V155H985.356V44.9835H998.679Z"/>
</mask>
<path d="M238.273 155H204.322V44.9835H239.777C250.449 44.9835 259.581 47.1859 267.174 51.5909C274.766 55.96 280.585 62.2452 284.632 70.4463C288.679 78.6116 290.702 88.3884 290.702 99.7769C290.702 111.237 288.661 121.103 284.579 129.376C280.496 137.613 274.551 143.952 266.744 148.393C258.937 152.798 249.446 155 238.273 155ZM217.645 143.182H237.413C246.51 143.182 254.048 141.427 260.029 137.917C266.01 134.408 270.468 129.412 273.405 122.93C276.342 116.448 277.81 108.73 277.81 99.7769C277.81 90.8953 276.36 83.2493 273.459 76.8388C270.558 70.3926 266.225 65.4504 260.459 62.0124C254.693 58.5386 247.512 56.8016 238.917 56.8016H217.645V143.182ZM345.926 156.719C337.975 156.719 331.117 154.964 325.351 151.455C319.621 147.909 315.198 142.967 312.083 136.628C309.003 130.253 307.463 122.84 307.463 114.388C307.463 105.937 309.003 98.4876 312.083 92.0413C315.198 85.5592 319.532 80.5096 325.083 76.8926C330.669 73.2397 337.187 71.4132 344.636 71.4132C348.934 71.4132 353.178 72.1295 357.368 73.562C361.558 74.9945 365.372 77.3223 368.81 80.5455C372.248 83.7328 374.988 87.9587 377.029 93.2231C379.07 98.4876 380.091 104.97 380.091 112.669V118.041H316.488V107.083H367.198C367.198 102.427 366.267 98.2727 364.405 94.6198C362.579 90.9669 359.964 88.084 356.562 85.9711C353.196 83.8581 349.22 82.8016 344.636 82.8016C339.587 82.8016 335.218 84.0551 331.529 86.562C327.876 89.0331 325.065 92.2562 323.095 96.2314C321.125 100.207 320.141 104.468 320.141 109.017V116.322C320.141 122.554 321.215 127.836 323.364 132.169C325.548 136.467 328.574 139.744 332.442 142C336.31 144.22 340.804 145.331 345.926 145.331C349.256 145.331 352.264 144.865 354.95 143.934C357.672 142.967 360.018 141.534 361.988 139.636C363.957 137.702 365.479 135.303 366.554 132.438L378.802 135.876C377.512 140.03 375.346 143.683 372.302 146.835C369.258 149.95 365.497 152.386 361.021 154.14C356.544 155.86 351.512 156.719 345.926 156.719ZM436.12 72.4876V83.2314H391.641V72.4876H436.12ZM404.963 155V61.0992C404.963 56.3719 406.073 52.4325 408.293 49.281C410.514 46.1295 413.397 43.7658 416.942 42.1901C420.488 40.6143 424.23 39.8264 428.169 39.8264C431.285 39.8264 433.828 40.0771 435.798 40.5785C437.767 41.0799 439.236 41.5454 440.202 41.9752L436.55 52.9339C435.905 52.719 435.01 52.4504 433.864 52.1281C432.753 51.8058 431.285 51.6446 429.459 51.6446C425.269 51.6446 422.242 52.7011 420.38 54.814C418.554 56.927 417.641 60.0248 417.641 64.1074V155H404.963ZM453.887 155V72.4876H466.565V155H453.887ZM460.334 58.7355C457.863 58.7355 455.732 57.8939 453.941 56.2107C452.186 54.5275 451.309 52.5041 451.309 50.1405C451.309 47.7769 452.186 45.7534 453.941 44.0702C455.732 42.387 457.863 41.5454 460.334 41.5454C462.805 41.5454 464.918 42.387 466.673 44.0702C468.463 45.7534 469.358 47.7769 469.358 50.1405C469.358 52.5041 468.463 54.5275 466.673 56.2107C464.918 57.8939 462.805 58.7355 460.334 58.7355ZM502.463 105.364V155H489.785V72.4876H502.033V85.3802H503.107C505.041 81.1901 507.978 77.8237 511.917 75.281C515.857 72.7025 520.942 71.4132 527.174 71.4132C532.76 71.4132 537.649 72.5592 541.839 74.8512C546.029 77.1074 549.288 80.5455 551.616 85.1653C553.944 89.7493 555.107 95.551 555.107 102.57V155H542.43V103.43C542.43 96.9477 540.747 91.8981 537.38 88.281C534.014 84.6281 529.394 82.8016 523.521 82.8016C519.474 82.8016 515.857 83.6791 512.669 85.4339C509.518 87.1887 507.029 89.7493 505.202 93.1157C503.376 96.4821 502.463 100.565 502.463 105.364ZM602.555 156.934C597.326 156.934 592.581 155.949 588.319 153.979C584.058 151.974 580.673 149.091 578.166 145.331C575.659 141.534 574.406 136.95 574.406 131.579C574.406 126.851 575.337 123.019 577.199 120.083C579.062 117.11 581.551 114.782 584.666 113.099C587.782 111.416 591.22 110.163 594.98 109.339C598.777 108.479 602.591 107.799 606.423 107.298C611.436 106.653 615.501 106.169 618.617 105.847C621.768 105.489 624.06 104.898 625.493 104.074C626.961 103.251 627.695 101.818 627.695 99.7769V99.3471C627.695 94.0468 626.245 89.9284 623.344 86.9917C620.479 84.0551 616.128 82.5868 610.29 82.5868C604.238 82.5868 599.493 83.9118 596.055 86.562C592.617 89.2121 590.199 92.0413 588.803 95.0496L576.77 90.7521C578.918 85.7383 581.783 81.8347 585.365 79.0413C588.982 76.2121 592.921 74.2424 597.183 73.1322C601.48 71.9862 605.706 71.4132 609.861 71.4132C612.511 71.4132 615.555 71.7355 618.993 72.3802C622.467 72.989 625.815 74.2603 629.038 76.1942C632.297 78.1281 635.001 81.0468 637.15 84.9504C639.299 88.854 640.373 94.0826 640.373 100.636V155H627.695V143.826H627.051C626.191 145.617 624.759 147.533 622.753 149.574C620.748 151.616 618.08 153.353 614.749 154.785C611.418 156.218 607.354 156.934 602.555 156.934ZM604.489 145.545C609.502 145.545 613.728 144.561 617.166 142.591C620.64 140.621 623.254 138.079 625.009 134.963C626.8 131.847 627.695 128.57 627.695 125.132V113.529C627.158 114.174 625.976 114.764 624.15 115.302C622.359 115.803 620.282 116.251 617.918 116.645C615.591 117.003 613.316 117.325 611.096 117.612C608.912 117.862 607.139 118.077 605.778 118.256C602.483 118.686 599.403 119.384 596.538 120.351C593.709 121.282 591.417 122.697 589.662 124.595C587.943 126.457 587.084 129 587.084 132.223C587.084 136.628 588.713 139.959 591.972 142.215C595.267 144.435 599.439 145.545 604.489 145.545ZM665.231 155V44.9835H677.909V85.595H678.984C679.915 84.1625 681.204 82.3361 682.851 80.1157C684.534 77.8595 686.934 75.854 690.05 74.0992C693.201 72.3085 697.463 71.4132 702.835 71.4132C709.782 71.4132 715.906 73.1501 721.207 76.624C726.507 80.0978 730.643 85.022 733.616 91.3967C736.588 97.7713 738.074 105.292 738.074 113.959C738.074 122.697 736.588 130.271 733.616 136.682C730.643 143.056 726.525 147.999 721.26 151.508C715.996 154.982 709.926 156.719 703.05 156.719C697.749 156.719 693.506 155.842 690.318 154.087C687.131 152.296 684.678 150.273 682.959 148.017C681.24 145.725 679.915 143.826 678.984 142.322H677.479V155H665.231ZM677.694 113.744C677.694 119.975 678.607 125.472 680.434 130.236C682.26 134.963 684.928 138.669 688.438 141.355C691.948 144.006 696.245 145.331 701.331 145.331C706.631 145.331 711.054 143.934 714.599 141.14C718.18 138.311 720.866 134.515 722.657 129.752C724.484 124.953 725.397 119.617 725.397 113.744C725.397 107.942 724.501 102.713 722.711 98.0578C720.956 93.3664 718.288 89.6598 714.707 86.938C711.161 84.1804 706.703 82.8016 701.331 82.8016C696.174 82.8016 691.84 84.1088 688.331 86.7231C684.821 89.3016 682.171 92.9187 680.38 97.5744C678.59 102.194 677.694 107.584 677.694 113.744ZM770.145 44.9835V155H757.467V44.9835H770.145ZM827.96 156.719C820.009 156.719 813.151 154.964 807.385 151.455C801.655 147.909 797.232 142.967 794.117 136.628C791.037 130.253 789.497 122.84 789.497 114.388C789.497 105.937 791.037 98.4876 794.117 92.0413C797.232 85.5592 801.566 80.5096 807.117 76.8926C812.704 73.2397 819.221 71.4132 826.671 71.4132C830.968 71.4132 835.212 72.1295 839.402 73.562C843.592 74.9945 847.406 77.3223 850.844 80.5455C854.282 83.7328 857.022 87.9587 859.063 93.2231C861.104 98.4876 862.125 104.97 862.125 112.669V118.041H798.522V107.083H849.232C849.232 102.427 848.301 98.2727 846.439 94.6198C844.613 90.9669 841.998 88.084 838.596 85.9711C835.23 83.8581 831.255 82.8016 826.671 82.8016C821.621 82.8016 817.252 84.0551 813.563 86.562C809.91 89.0331 807.099 92.2562 805.129 96.2314C803.159 100.207 802.175 104.468 802.175 109.017V116.322C802.175 122.554 803.249 127.836 805.398 132.169C807.582 136.467 810.609 139.744 814.476 142C818.344 144.22 822.839 145.331 827.96 145.331C831.29 145.331 834.299 144.865 836.985 143.934C839.706 142.967 842.052 141.534 844.022 139.636C845.991 137.702 847.513 135.303 848.588 132.438L860.836 135.876C859.547 140.03 857.38 143.683 854.336 146.835C851.292 149.95 847.531 152.386 843.055 154.14C838.578 155.86 833.547 156.719 827.96 156.719ZM887.642 155H873.675L914.071 44.9835H927.823L968.22 155H954.253L921.377 62.3884H920.518L887.642 155ZM892.799 112.025H949.096V123.843H892.799V112.025ZM998.679 44.9835V155H985.356V44.9835H998.679Z" fill="black"/>
<path d="M204.322 155H203.14V156.182H204.322V155ZM204.322 44.9835V43.8016H203.14V44.9835H204.322ZM267.174 51.5909L266.58 52.6131L266.584 52.6152L267.174 51.5909ZM284.632 70.4463L283.572 70.9692L283.573 70.9711L284.632 70.4463ZM284.579 129.376L285.637 129.901L285.638 129.899L284.579 129.376ZM266.744 148.393L267.325 149.422L267.328 149.42L266.744 148.393ZM217.645 143.182H216.463V144.364H217.645V143.182ZM260.029 137.917L259.431 136.898L260.029 137.917ZM273.459 76.8388L272.381 77.3238L272.382 77.3261L273.459 76.8388ZM260.459 62.0124L259.849 63.0247L259.853 63.0275L260.459 62.0124ZM217.645 56.8016V55.6198H216.463V56.8016H217.645ZM238.273 155V153.818H204.322V155V156.182H238.273V155ZM204.322 155H205.504V44.9835H204.322H203.14V155H204.322ZM204.322 44.9835V46.1653H239.777V44.9835V43.8016H204.322V44.9835ZM239.777 44.9835V46.1653C250.286 46.1653 259.204 48.3331 266.58 52.6131L267.174 51.5909L267.767 50.5687C259.959 46.0388 250.613 43.8016 239.777 43.8016V44.9835ZM267.174 51.5909L266.584 52.6152C273.964 56.8622 279.624 62.9684 283.572 70.9692L284.632 70.4463L285.692 69.9233C281.546 61.5219 275.568 55.0579 267.763 50.5666L267.174 51.5909ZM284.632 70.4463L283.573 70.9711C287.522 78.9376 289.521 88.5261 289.521 99.7769H290.702H291.884C291.884 88.2507 289.836 78.2855 285.691 69.9215L284.632 70.4463ZM290.702 99.7769H289.521C289.521 111.098 287.504 120.778 283.519 128.853L284.579 129.376L285.638 129.899C289.818 121.429 291.884 111.375 291.884 99.7769H290.702ZM284.579 129.376L283.52 128.851C279.539 136.882 273.757 143.044 266.159 147.365L266.744 148.393L267.328 149.42C275.345 144.86 281.453 138.344 285.637 129.901L284.579 129.376ZM266.744 148.393L266.163 147.363C258.572 151.646 249.292 153.818 238.273 153.818V155V156.182C249.6 156.182 259.302 153.949 267.325 149.422L266.744 148.393ZM217.645 143.182V144.364H237.413V143.182V142H217.645V143.182ZM237.413 143.182V144.364C246.656 144.364 254.417 142.581 260.627 138.937L260.029 137.917L259.431 136.898C253.68 140.273 246.363 142 237.413 142V143.182ZM260.029 137.917L260.627 138.937C266.824 135.3 271.447 130.116 274.481 123.417L273.405 122.93L272.328 122.442C269.49 128.708 265.195 133.515 259.431 136.898L260.029 137.917ZM273.405 122.93L274.481 123.417C277.503 116.748 278.992 108.856 278.992 99.7769H277.81H276.628C276.628 108.604 275.18 116.147 272.328 122.442L273.405 122.93ZM277.81 99.7769H278.992C278.992 90.7699 277.521 82.9498 274.535 76.3516L273.459 76.8388L272.382 77.3261C275.198 83.5489 276.628 91.0207 276.628 99.7769H277.81ZM273.459 76.8388L274.536 76.3539C271.542 69.699 267.049 64.5662 261.064 60.9973L260.459 62.0124L259.853 63.0275C265.4 66.3346 269.574 71.0861 272.381 77.3238L273.459 76.8388ZM260.459 62.0124L261.069 61.0001C255.074 57.3886 247.669 55.6198 238.917 55.6198V56.8016V57.9835C247.356 57.9835 254.311 59.6885 259.849 63.0247L260.459 62.0124ZM238.917 56.8016V55.6198H217.645V56.8016V57.9835H238.917V56.8016ZM217.645 56.8016H216.463V143.182H217.645H218.826V56.8016H217.645ZM325.351 151.455L324.729 152.46L324.737 152.464L325.351 151.455ZM312.083 136.628L311.019 137.142L311.022 137.149L312.083 136.628ZM312.083 92.0413L311.017 91.5293L311.016 91.5318L312.083 92.0413ZM325.083 76.8926L325.728 77.8827L325.729 77.8817L325.083 76.8926ZM357.368 73.562L357.75 72.4437L357.75 72.4437L357.368 73.562ZM368.81 80.5455L368.002 81.4076L368.006 81.4121L368.81 80.5455ZM377.029 93.2231L378.131 92.7959L378.131 92.7959L377.029 93.2231ZM380.091 118.041V119.223H381.273V118.041H380.091ZM316.488 118.041H315.306V119.223H316.488V118.041ZM316.488 107.083V105.901H315.306V107.083H316.488ZM367.198 107.083V108.264H368.38V107.083H367.198ZM364.405 94.6198L363.348 95.1484L363.352 95.1566L364.405 94.6198ZM356.562 85.9711L355.934 86.9721L355.938 86.975L356.562 85.9711ZM331.529 86.562L332.191 87.5409L332.193 87.5394L331.529 86.562ZM323.095 96.2314L322.036 95.7067L322.036 95.7067L323.095 96.2314ZM323.364 132.169L322.305 132.694L322.31 132.705L323.364 132.169ZM332.442 142L331.847 143.021L331.854 143.025L332.442 142ZM354.95 143.934L355.338 145.051L355.346 145.048L354.95 143.934ZM361.988 139.636L362.808 140.487L362.816 140.48L361.988 139.636ZM366.554 132.438L366.873 131.3L365.828 131.007L365.447 132.023L366.554 132.438ZM378.802 135.876L379.93 136.226L380.29 135.066L379.121 134.738L378.802 135.876ZM372.302 146.835L373.147 147.661L373.152 147.656L372.302 146.835ZM361.021 154.14L361.444 155.244L361.452 155.241L361.021 154.14ZM345.926 156.719V155.537C338.153 155.537 331.516 153.823 325.966 150.445L325.351 151.455L324.737 152.464C330.718 156.105 337.797 157.901 345.926 157.901V156.719ZM325.351 151.455L325.973 150.45C320.441 147.027 316.166 142.256 313.143 136.107L312.083 136.628L311.022 137.149C314.231 143.677 318.801 148.792 324.729 152.46L325.351 151.455ZM312.083 136.628L313.147 136.114C310.158 129.928 308.645 122.696 308.645 114.388H307.463H306.281C306.281 122.984 307.848 130.579 311.019 137.142L312.083 136.628ZM307.463 114.388H308.645C308.645 106.081 310.158 98.8115 313.149 92.5508L312.083 92.0413L311.016 91.5318C307.848 98.1637 306.281 105.792 306.281 114.388H307.463ZM312.083 92.0413L313.148 92.5533C316.178 86.2488 320.373 81.3718 325.728 77.8827L325.083 76.8926L324.437 75.9024C318.69 79.6475 314.219 84.8697 311.017 91.5293L312.083 92.0413ZM325.083 76.8926L325.729 77.8817C331.102 74.3688 337.389 72.595 344.636 72.595V71.4132V70.2314C336.985 70.2314 330.237 72.1105 324.436 75.9034L325.083 76.8926ZM344.636 71.4132V72.595C348.8 72.595 352.915 73.2885 356.985 74.6802L357.368 73.562L357.75 72.4437C353.441 70.9704 349.068 70.2314 344.636 70.2314V71.4132ZM357.368 73.562L356.985 74.6802C361.007 76.0551 364.678 78.2916 368.002 81.4076L368.81 80.5455L369.618 79.6833C366.066 76.353 362.109 73.9338 357.75 72.4437L357.368 73.562ZM368.81 80.5455L368.006 81.4121C371.289 84.4551 373.937 88.5194 375.927 93.6504L377.029 93.2231L378.131 92.7959C376.038 87.3979 373.207 83.0104 369.613 79.6788L368.81 80.5455ZM377.029 93.2231L375.927 93.6504C377.9 98.7389 378.909 105.066 378.909 112.669H380.091H381.273C381.273 104.873 380.24 98.2363 378.131 92.7959L377.029 93.2231ZM380.091 112.669H378.909V118.041H380.091H381.273V112.669H380.091ZM380.091 118.041V116.86H316.488V118.041V119.223H380.091V118.041ZM316.488 118.041H317.669V107.083H316.488H315.306V118.041H316.488ZM316.488 107.083V108.264H367.198V107.083V105.901H316.488V107.083ZM367.198 107.083H368.38C368.38 102.266 367.416 97.9235 365.458 94.0831L364.405 94.6198L363.352 95.1566C365.119 98.622 366.017 102.588 366.017 107.083H367.198ZM364.405 94.6198L365.462 94.0913C363.54 90.247 360.777 87.1978 357.186 84.9671L356.562 85.9711L355.938 86.975C359.151 88.9703 361.617 91.6869 363.348 95.1484L364.405 94.6198ZM356.562 85.9711L357.19 84.9701C353.608 82.7218 349.408 81.6198 344.636 81.6198V82.8016V83.9835C349.033 83.9835 352.783 84.9945 355.934 86.9721L356.562 85.9711ZM344.636 82.8016V81.6198C339.382 81.6198 334.774 82.9273 330.865 85.5845L331.529 86.562L332.193 87.5394C335.661 85.1828 339.791 83.9835 344.636 83.9835V82.8016ZM331.529 86.562L330.867 85.5831C327.043 88.1694 324.096 91.5495 322.036 95.7067L323.095 96.2314L324.154 96.7561C326.034 92.9629 328.709 89.8967 332.191 87.5409L331.529 86.562ZM323.095 96.2314L322.036 95.7067C319.984 99.8492 318.959 104.291 318.959 109.017H320.141H321.322C321.322 104.646 322.267 100.564 324.154 96.7561L323.095 96.2314ZM320.141 109.017H318.959V116.322H320.141H321.322V109.017H320.141ZM320.141 116.322H318.959C318.959 122.685 320.055 128.158 322.305 132.694L323.364 132.169L324.422 131.644C322.374 127.514 321.322 122.422 321.322 116.322H320.141ZM323.364 132.169L322.31 132.705C324.589 137.189 327.768 140.641 331.847 143.021L332.442 142L333.038 140.979C329.381 138.846 326.507 135.745 324.417 131.634L323.364 132.169ZM332.442 142L331.854 143.025C335.926 145.363 340.629 146.512 345.926 146.512V145.331V144.149C340.98 144.149 336.694 143.078 333.031 140.975L332.442 142ZM345.926 145.331V146.512C349.366 146.512 352.508 146.031 355.338 145.051L354.95 143.934L354.563 142.817C352.021 143.699 349.147 144.149 345.926 144.149V145.331ZM354.95 143.934L355.346 145.048C358.217 144.027 360.71 142.509 362.808 140.487L361.988 139.636L361.168 138.785C359.326 140.56 357.127 141.906 354.555 142.82L354.95 143.934ZM361.988 139.636L362.816 140.48C364.921 138.412 366.532 135.862 367.66 132.853L366.554 132.438L365.447 132.023C364.427 134.744 362.994 136.992 361.16 138.793L361.988 139.636ZM366.554 132.438L366.234 133.576L378.482 137.014L378.802 135.876L379.121 134.738L366.873 131.3L366.554 132.438ZM378.802 135.876L377.673 135.526C376.439 139.502 374.368 142.994 371.452 146.014L372.302 146.835L373.152 147.656C376.323 144.372 378.586 140.558 379.93 136.226L378.802 135.876ZM372.302 146.835L371.456 146.009C368.541 148.993 364.926 151.34 360.589 153.04L361.021 154.14L361.452 155.241C366.068 153.431 369.974 150.908 373.147 147.661L372.302 146.835ZM361.021 154.14L360.597 153.037C356.276 154.697 351.391 155.537 345.926 155.537V156.719V157.901C351.634 157.901 356.812 157.023 361.444 155.244L361.021 154.14ZM436.12 72.4876H437.302V71.3058H436.12V72.4876ZM436.12 83.2314V84.4132H437.302V83.2314H436.12ZM391.641 83.2314H390.459V84.4132H391.641V83.2314ZM391.641 72.4876V71.3058H390.459V72.4876H391.641ZM404.963 155H403.781V156.182H404.963V155ZM408.293 49.281L407.327 48.6003L407.327 48.6003L408.293 49.281ZM416.942 42.1901L416.462 41.1101L416.462 41.1101L416.942 42.1901ZM435.798 40.5785L435.506 41.7238L435.506 41.7238L435.798 40.5785ZM440.202 41.9752L441.324 42.3489L441.663 41.331L440.682 40.8952L440.202 41.9752ZM436.55 52.9339L436.176 54.055L437.297 54.4288L437.671 53.3076L436.55 52.9339ZM433.864 52.1281L433.534 53.2631L433.544 53.2658L433.864 52.1281ZM420.38 54.814L419.494 54.0326L419.486 54.0412L420.38 54.814ZM417.641 155V156.182H418.822V155H417.641ZM436.12 72.4876H434.938V83.2314H436.12H437.302V72.4876H436.12ZM436.12 83.2314V82.0496H391.641V83.2314V84.4132H436.12V83.2314ZM391.641 83.2314H392.822V72.4876H391.641H390.459V83.2314H391.641ZM391.641 72.4876V73.6694H436.12V72.4876V71.3058H391.641V72.4876ZM404.963 155H406.145V61.0992H404.963H403.781V155H404.963ZM404.963 61.0992H406.145C406.145 56.5597 407.209 52.8727 409.26 49.9617L408.293 49.281L407.327 48.6003C404.937 51.9923 403.781 56.1841 403.781 61.0992H404.963ZM408.293 49.281L409.26 49.9617C411.356 46.9859 414.071 44.7596 417.422 43.27L416.942 42.1901L416.462 41.1101C412.723 42.772 409.671 45.273 407.327 48.6003L408.293 49.281ZM416.942 42.1901L417.422 43.27C420.814 41.7625 424.393 41.0083 428.169 41.0083V39.8264V38.6446C424.067 38.6446 420.161 39.4661 416.462 41.1101L416.942 42.1901ZM428.169 39.8264V41.0083C431.233 41.0083 433.668 41.2559 435.506 41.7238L435.798 40.5785L436.089 39.4332C433.988 38.8983 431.337 38.6446 428.169 38.6446V39.8264ZM435.798 40.5785L435.506 41.7238C437.459 42.2208 438.849 42.6669 439.723 43.0552L440.202 41.9752L440.682 40.8952C439.622 40.424 438.076 39.939 436.089 39.4332L435.798 40.5785ZM440.202 41.9752L439.081 41.6015L435.428 52.5602L436.55 52.9339L437.671 53.3076L441.324 42.3489L440.202 41.9752ZM436.55 52.9339L436.923 51.8127C436.253 51.5891 435.336 51.3146 434.184 50.9904L433.864 52.1281L433.544 53.2658C434.683 53.5862 435.557 53.8489 436.176 54.055L436.55 52.9339ZM433.864 52.1281L434.193 50.9931C432.933 50.6271 431.34 50.4628 429.459 50.4628V51.6446V52.8264C431.23 52.8264 432.574 52.9844 433.534 53.263L433.864 52.1281ZM429.459 51.6446V50.4628C425.097 50.4628 421.671 51.5619 419.494 54.0326L420.38 54.814L421.267 55.5955C422.814 53.8403 425.441 52.8264 429.459 52.8264V51.6446ZM420.38 54.814L419.486 54.0412C417.405 56.4492 416.459 59.8691 416.459 64.1074H417.641H418.822C418.822 60.1805 419.703 57.4048 421.274 55.5869L420.38 54.814ZM417.641 64.1074H416.459V155H417.641H418.822V64.1074H417.641ZM417.641 155V153.818H404.963V155V156.182H417.641V155ZM453.887 155H452.706V156.182H453.887V155ZM453.887 72.4876V71.3058H452.706V72.4876H453.887ZM466.565 72.4876H467.747V71.3058H466.565V72.4876ZM466.565 155V156.182H467.747V155H466.565ZM453.941 56.2107L453.123 57.0637L453.132 57.0718L453.941 56.2107ZM453.941 44.0702L453.132 43.2091L453.123 43.2173L453.941 44.0702ZM466.673 44.0702L465.854 44.9232L465.863 44.9313L466.673 44.0702ZM466.673 56.2107L465.863 55.3496L465.854 55.3578L466.673 56.2107ZM453.887 155H455.069V72.4876H453.887H452.706V155H453.887ZM453.887 72.4876V73.6694H466.565V72.4876V71.3058H453.887V72.4876ZM466.565 72.4876H465.383V155H466.565H467.747V72.4876H466.565ZM466.565 155V153.818H453.887V155V156.182H466.565V155ZM460.334 58.7355V57.5537C458.162 57.5537 456.321 56.8256 454.751 55.3496L453.941 56.2107L453.132 57.0718C455.143 58.9623 457.564 59.9174 460.334 59.9174V58.7355ZM453.941 56.2107L454.759 55.3578C453.229 53.8903 452.491 52.1719 452.491 50.1405H451.309H450.127C450.127 52.8364 451.143 55.1648 453.123 57.0636L453.941 56.2107ZM451.309 50.1405H452.491C452.491 48.1091 453.229 46.3907 454.759 44.9231L453.941 44.0702L453.123 43.2173C451.143 45.1162 450.127 47.4446 450.127 50.1405H451.309ZM453.941 44.0702L454.751 44.9313C456.321 43.4554 458.162 42.7273 460.334 42.7273V41.5454V40.3636C457.564 40.3636 455.143 41.3187 453.132 43.2091L453.941 44.0702ZM460.334 41.5454V42.7273C462.505 42.7273 464.324 43.4548 465.854 44.9231L466.673 44.0702L467.491 43.2173C465.512 41.3193 463.104 40.3636 460.334 40.3636V41.5454ZM466.673 44.0702L465.863 44.9313C467.427 46.4012 468.177 48.1173 468.177 50.1405H469.358H470.54C470.54 47.4364 469.5 45.1057 467.482 43.2091L466.673 44.0702ZM469.358 50.1405H468.177C468.177 52.1637 467.427 53.8798 465.863 55.3496L466.673 56.2107L467.482 57.0718C469.5 55.1753 470.54 52.8446 470.54 50.1405H469.358ZM466.673 56.2107L465.854 55.3578C464.324 56.8262 462.505 57.5537 460.334 57.5537V58.7355V59.9174C463.104 59.9174 465.512 58.9617 467.491 57.0636L466.673 56.2107ZM502.463 155V156.182H503.645V155H502.463ZM489.785 155H488.603V156.182H489.785V155ZM489.785 72.4876V71.3058H488.603V72.4876H489.785ZM502.033 72.4876H503.215V71.3058H502.033V72.4876ZM502.033 85.3802H500.851V86.562H502.033V85.3802ZM503.107 85.3802V86.562H503.864L504.18 85.8754L503.107 85.3802ZM511.917 75.281L512.558 76.274L512.565 76.2698L511.917 75.281ZM541.839 74.8512L541.272 75.8881L541.279 75.8918L541.839 74.8512ZM551.616 85.1653L550.56 85.6971L550.562 85.7004L551.616 85.1653ZM555.107 155V156.182H556.289V155H555.107ZM542.43 155H541.248V156.182H542.43V155ZM537.38 88.281L536.511 89.0819L536.515 89.0861L537.38 88.281ZM512.669 85.4339L512.099 84.3986L512.094 84.4013L512.669 85.4339ZM505.202 93.1157L504.164 92.5521L504.164 92.5521L505.202 93.1157ZM502.463 105.364H501.281V155H502.463H503.645V105.364H502.463ZM502.463 155V153.818H489.785V155V156.182H502.463V155ZM489.785 155H490.967V72.4876H489.785H488.603V155H489.785ZM489.785 72.4876V73.6694H502.033V72.4876V71.3058H489.785V72.4876ZM502.033 72.4876H500.851V85.3802H502.033H503.215V72.4876H502.033ZM502.033 85.3802V86.562H503.107V85.3802V84.1983H502.033V85.3802ZM503.107 85.3802L504.18 85.8754C506.019 81.8923 508.804 78.6971 512.558 76.2739L511.917 75.281L511.276 74.288C507.152 76.9502 504.064 80.4879 502.034 84.8849L503.107 85.3802ZM511.917 75.281L512.565 76.2698C516.259 73.852 521.099 72.595 527.174 72.595V71.4132V70.2314C520.785 70.2314 515.455 71.553 511.27 74.2922L511.917 75.281ZM527.174 71.4132V72.595C532.596 72.595 537.283 73.7062 541.272 75.8881L541.839 74.8512L542.406 73.8144C538.015 71.4123 532.925 70.2314 527.174 70.2314V71.4132ZM541.839 74.8512L541.279 75.8918C545.237 78.0231 548.332 81.2738 550.56 85.6971L551.616 85.1653L552.671 84.6335C550.244 79.8171 546.821 76.1918 542.399 73.8107L541.839 74.8512ZM551.616 85.1653L550.562 85.7004C552.781 90.0694 553.926 95.6724 553.926 102.57H555.107H556.289C556.289 95.4295 555.106 89.4293 552.669 84.6302L551.616 85.1653ZM555.107 102.57H553.926V155H555.107H556.289V102.57H555.107ZM555.107 155V153.818H542.43V155V156.182H555.107V155ZM542.43 155H543.612V103.43H542.43H541.248V155H542.43ZM542.43 103.43H543.612C543.612 96.7446 541.872 91.3729 538.245 87.4758L537.38 88.281L536.515 89.0861C539.621 92.4233 541.248 97.1507 541.248 103.43H542.43ZM537.38 88.281L538.249 87.4801C534.618 83.54 529.659 81.6198 523.521 81.6198V82.8016V83.9835C529.129 83.9835 533.409 85.7162 536.511 89.0819L537.38 88.281ZM523.521 82.8016V81.6198C519.297 81.6198 515.48 82.5372 512.099 84.3986L512.669 85.4339L513.239 86.4692C516.233 84.8209 519.65 83.9835 523.521 83.9835V82.8016ZM512.669 85.4339L512.094 84.4013C508.735 86.2721 506.09 89.0013 504.164 92.5521L505.202 93.1157L506.241 93.6793C507.968 90.4973 510.301 88.1053 513.244 86.4664L512.669 85.4339ZM505.202 93.1157L504.164 92.5521C502.223 96.1299 501.281 100.417 501.281 105.364H502.463H503.645C503.645 100.713 504.53 96.8342 506.241 93.6793L505.202 93.1157ZM588.319 153.979L587.816 155.049L587.823 155.052L588.319 153.979ZM578.166 145.331L577.18 145.982L577.183 145.986L578.166 145.331ZM577.199 120.083L578.197 120.716L578.201 120.71L577.199 120.083ZM594.98 109.339L595.233 110.493L595.241 110.491L594.98 109.339ZM606.423 107.298L606.272 106.125L606.269 106.126L606.423 107.298ZM618.617 105.847L618.738 107.023L618.75 107.021L618.617 105.847ZM625.493 104.074L624.915 103.044L624.904 103.05L625.493 104.074ZM623.344 86.9917L622.498 87.817L622.503 87.8223L623.344 86.9917ZM596.055 86.562L596.776 87.498L596.776 87.498L596.055 86.562ZM588.803 95.0496L588.405 96.1625L589.421 96.5252L589.875 95.5473L588.803 95.0496ZM576.77 90.7521L575.683 90.2865L575.188 91.4422L576.372 91.865L576.77 90.7521ZM585.365 79.0413L586.092 79.9732L586.093 79.9722L585.365 79.0413ZM597.183 73.1322L597.481 74.2759L597.487 74.2741L597.183 73.1322ZM618.993 72.3802L618.775 73.5418L618.789 73.5442L618.993 72.3802ZM629.038 76.1942L628.43 77.2076L628.435 77.2105L629.038 76.1942ZM637.15 84.9504L636.114 85.5203L636.114 85.5203L637.15 84.9504ZM640.373 155V156.182H641.555V155H640.373ZM627.695 155H626.513V156.182H627.695V155ZM627.695 143.826H628.877V142.645H627.695V143.826ZM627.051 143.826V142.645H626.307L625.985 143.315L627.051 143.826ZM622.753 149.574L623.596 150.403L623.596 150.403L622.753 149.574ZM614.749 154.785L614.282 153.699L614.282 153.699L614.749 154.785ZM617.166 142.591L616.583 141.563L616.579 141.565L617.166 142.591ZM625.009 134.963L623.985 134.374L623.98 134.383L625.009 134.963ZM627.695 113.529H628.877V110.265L626.787 112.772L627.695 113.529ZM624.15 115.302L624.468 116.44L624.476 116.438L624.483 116.435L624.15 115.302ZM617.918 116.645L618.098 117.813L618.105 117.812L618.113 117.81L617.918 116.645ZM611.096 117.612L611.231 118.786L611.239 118.785L611.247 118.784L611.096 117.612ZM605.778 118.256L605.931 119.428L605.932 119.428L605.778 118.256ZM596.538 120.351L596.908 121.474L596.916 121.471L596.538 120.351ZM589.662 124.595L588.794 123.793L588.794 123.793L589.662 124.595ZM591.972 142.215L591.299 143.187L591.306 143.191L591.312 143.195L591.972 142.215ZM602.555 156.934V155.752C597.478 155.752 592.904 154.797 588.815 152.907L588.319 153.979L587.823 155.052C592.257 157.101 597.174 158.116 602.555 158.116V156.934ZM588.319 153.979L588.822 152.91C584.747 150.992 581.532 148.249 579.15 144.675L578.166 145.331L577.183 145.986C579.814 149.933 583.368 152.956 587.816 155.049L588.319 153.979ZM578.166 145.331L579.153 144.679C576.795 141.109 575.588 136.762 575.588 131.579H574.406H573.224C573.224 137.139 574.524 141.96 577.18 145.982L578.166 145.331ZM574.406 131.579H575.588C575.588 126.997 576.491 123.406 578.197 120.716L577.199 120.083L576.201 119.45C574.183 122.632 573.224 126.705 573.224 131.579H574.406ZM577.199 120.083L578.201 120.71C579.954 117.913 582.29 115.726 585.228 114.139L584.666 113.099L584.105 112.059C580.811 113.839 578.17 116.308 576.198 119.455L577.199 120.083ZM584.666 113.099L585.228 114.139C588.239 112.513 591.571 111.295 595.233 110.493L594.98 109.339L594.728 108.184C590.869 109.03 587.325 110.319 584.105 112.059L584.666 113.099ZM594.98 109.339L595.241 110.491C599.002 109.64 602.78 108.966 606.576 108.469L606.423 107.298L606.269 106.126C602.401 106.632 598.551 107.319 594.719 108.186L594.98 109.339ZM606.423 107.298L606.573 108.47C611.582 107.826 615.636 107.344 618.738 107.023L618.617 105.847L618.495 104.672C615.366 104.995 611.29 105.48 606.272 106.125L606.423 107.298ZM618.617 105.847L618.75 107.021C621.942 106.659 624.433 106.047 626.082 105.099L625.493 104.074L624.904 103.05C623.688 103.749 621.595 104.319 618.483 104.673L618.617 105.847ZM625.493 104.074L626.071 105.105C627.997 104.025 628.877 102.138 628.877 99.7769H627.695H626.513C626.513 101.498 625.925 102.477 624.915 103.044L625.493 104.074ZM627.695 99.7769H628.877V99.3471H627.695H626.513V99.7769H627.695ZM627.695 99.3471H628.877C628.877 93.8282 627.361 89.377 624.185 86.1612L623.344 86.9917L622.503 87.8223C625.128 90.4797 626.513 94.2655 626.513 99.3471H627.695ZM623.344 86.9917L624.19 86.1664C621.023 82.9199 616.31 81.405 610.29 81.405V82.5868V83.7686C615.946 83.7686 619.935 85.1903 622.498 87.817L623.344 86.9917ZM610.29 82.5868V81.405C604.078 81.405 599.046 82.7642 595.333 85.626L596.055 86.562L596.776 87.498C599.94 85.0595 604.398 83.7686 610.29 83.7686V82.5868ZM596.055 86.562L595.333 85.626C591.79 88.3574 589.228 91.3267 587.731 94.5519L588.803 95.0496L589.875 95.5473C591.171 92.756 593.444 90.0668 596.776 87.498L596.055 86.562ZM588.803 95.0496L589.2 93.9366L577.167 89.6391L576.77 90.7521L576.372 91.865L588.405 96.1625L588.803 95.0496ZM576.77 90.7521L577.856 91.2176C579.942 86.3504 582.696 82.6215 586.092 79.9732L585.365 79.0413L584.638 78.1095C580.871 81.0479 577.895 85.1262 575.683 90.2865L576.77 90.7521ZM585.365 79.0413L586.093 79.9722C589.588 77.2382 593.382 75.3436 597.481 74.2759L597.183 73.1322L596.885 71.9886C592.46 73.1413 588.375 75.186 584.637 78.1104L585.365 79.0413ZM597.183 73.1322L597.487 74.2741C601.693 73.1528 605.816 72.595 609.861 72.595V71.4132V70.2314C605.596 70.2314 601.268 70.8197 596.878 71.9903L597.183 73.1322ZM609.861 71.4132V72.595C612.419 72.595 615.387 72.9066 618.775 73.5417L618.993 72.3802L619.211 71.2186C615.722 70.5645 612.603 70.2314 609.861 70.2314V71.4132ZM618.993 72.3802L618.789 73.5442C622.111 74.1264 625.323 75.3433 628.43 77.2076L629.038 76.1942L629.646 75.1808C626.307 73.1773 622.823 71.8515 619.197 71.2161L618.993 72.3802ZM629.038 76.1942L628.435 77.2105C631.483 79.0192 634.049 81.7687 636.114 85.5203L637.15 84.9504L638.185 84.3805C635.953 80.325 633.111 77.237 629.641 75.1779L629.038 76.1942ZM637.15 84.9504L636.114 85.5203C638.132 89.1862 639.191 94.1948 639.191 100.636H640.373H641.555C641.555 93.9705 640.465 88.5217 638.185 84.3805L637.15 84.9504ZM640.373 100.636H639.191V155H640.373H641.555V100.636H640.373ZM640.373 155V153.818H627.695V155V156.182H640.373V155ZM627.695 155H628.877V143.826H627.695H626.513V155H627.695ZM627.695 143.826V142.645H627.051V143.826V145.008H627.695V143.826ZM627.051 143.826L625.985 143.315C625.201 144.949 623.861 146.76 621.91 148.746L622.753 149.574L623.596 150.403C625.656 148.306 627.182 146.285 628.116 144.338L627.051 143.826ZM622.753 149.574L621.91 148.746C620.037 150.653 617.508 152.312 614.282 153.699L614.749 154.785L615.216 155.871C618.651 154.393 621.459 152.578 623.596 150.403L622.753 149.574ZM614.749 154.785L614.282 153.699C611.138 155.052 607.242 155.752 602.555 155.752V156.934V158.116C607.465 158.116 611.698 157.384 615.216 155.871L614.749 154.785ZM604.489 145.545V146.727C609.655 146.727 614.095 145.712 617.754 143.616L617.166 142.591L616.579 141.565C613.361 143.409 609.35 144.364 604.489 144.364V145.545ZM617.166 142.591L617.749 143.619C621.388 141.556 624.167 138.867 626.039 135.543L625.009 134.963L623.98 134.383C622.342 137.29 619.893 139.686 616.583 141.563L617.166 142.591ZM625.009 134.963L626.034 135.552C627.923 132.265 628.877 128.786 628.877 125.132H627.695H626.513C626.513 128.354 625.677 131.429 623.985 134.374L625.009 134.963ZM627.695 125.132H628.877V113.529H627.695H626.513V125.132H627.695ZM627.695 113.529L626.787 112.772C626.666 112.918 626.397 113.139 625.877 113.399C625.37 113.652 624.689 113.911 623.816 114.168L624.15 115.302L624.483 116.435C625.437 116.155 626.26 115.85 626.935 115.513C627.597 115.182 628.187 114.784 628.603 114.285L627.695 113.529ZM624.15 115.302L623.831 114.164C622.091 114.651 620.057 115.09 617.724 115.479L617.918 116.645L618.113 117.81C620.507 117.411 622.627 116.955 624.468 116.44L624.15 115.302ZM617.918 116.645L617.739 115.477C615.42 115.833 613.155 116.154 610.945 116.439L611.096 117.612L611.247 118.784C613.478 118.496 615.761 118.172 618.098 117.813L617.918 116.645ZM611.096 117.612L610.961 116.437C608.774 116.689 606.994 116.904 605.624 117.084L605.778 118.256L605.932 119.428C607.284 119.25 609.049 119.036 611.231 118.786L611.096 117.612ZM605.778 118.256L605.625 117.084C602.261 117.523 599.105 118.238 596.16 119.231L596.538 120.351L596.916 121.471C599.701 120.531 602.705 119.849 605.931 119.428L605.778 118.256ZM596.538 120.351L596.169 119.229C593.178 120.213 590.705 121.726 588.794 123.793L589.662 124.595L590.53 125.397C592.129 123.668 594.24 122.352 596.908 121.474L596.538 120.351ZM589.662 124.595L588.794 123.793C586.823 125.929 585.902 128.787 585.902 132.223H587.084H588.266C588.266 129.213 589.064 126.986 590.531 125.397L589.662 124.595ZM587.084 132.223H585.902C585.902 136.965 587.682 140.682 591.299 143.187L591.972 142.215L592.645 141.243C589.744 139.235 588.266 136.291 588.266 132.223H587.084ZM591.972 142.215L591.312 143.195C594.848 145.578 599.267 146.727 604.489 146.727V145.545V144.364C599.611 144.364 595.685 143.292 592.633 141.235L591.972 142.215ZM665.231 155H664.05V156.182H665.231V155ZM665.231 44.9835V43.8016H664.05V44.9835H665.231ZM677.909 44.9835H679.091V43.8016H677.909V44.9835ZM677.909 85.595H676.727V86.7769H677.909V85.595ZM678.984 85.595V86.7769H679.625L679.974 86.2391L678.984 85.595ZM682.851 80.1157L681.904 79.409L681.902 79.4115L682.851 80.1157ZM690.05 74.0992L690.63 75.1289L690.633 75.1267L690.05 74.0992ZM721.207 76.624L721.854 75.6355L721.854 75.6355L721.207 76.624ZM733.616 136.682L734.687 137.181L734.688 137.179L733.616 136.682ZM721.26 151.508L721.911 152.495L721.916 152.492L721.26 151.508ZM690.318 154.087L689.739 155.117L689.748 155.122L690.318 154.087ZM682.959 148.017L682.013 148.726L682.019 148.733L682.959 148.017ZM678.984 142.322L679.988 141.7L679.642 141.14H678.984V142.322ZM677.479 142.322V141.14H676.298V142.322H677.479ZM677.479 155V156.182H678.661V155H677.479ZM680.434 130.236L679.33 130.659L679.332 130.661L680.434 130.236ZM688.438 141.355L687.72 142.294L687.726 142.299L688.438 141.355ZM714.599 141.14L715.331 142.069L715.332 142.068L714.599 141.14ZM722.657 129.752L721.553 129.332L721.551 129.336L722.657 129.752ZM722.711 98.0578L721.604 98.4719L721.608 98.4821L722.711 98.0578ZM714.707 86.938L713.981 87.8709L713.992 87.8789L714.707 86.938ZM688.331 86.7231L689.03 87.6756L689.037 87.6709L688.331 86.7231ZM680.38 97.5744L681.482 98.0015L681.483 97.9986L680.38 97.5744ZM665.231 155H666.413V44.9835H665.231H664.05V155H665.231ZM665.231 44.9835V46.1653H677.909V44.9835V43.8016H665.231V44.9835ZM677.909 44.9835H676.727V85.595H677.909H679.091V44.9835H677.909ZM677.909 85.595V86.7769H678.984V85.595V84.4132H677.909V85.595ZM678.984 85.595L679.974 86.2391C680.887 84.8356 682.16 83.031 683.8 80.8199L682.851 80.1157L681.902 79.4115C680.248 81.6411 678.943 83.4895 677.993 84.951L678.984 85.595ZM682.851 80.1157L683.799 80.8224C685.36 78.7289 687.62 76.8239 690.63 75.1289L690.05 74.0992L689.47 73.0694C686.248 74.8841 683.709 76.9901 681.904 79.409L682.851 80.1157ZM690.05 74.0992L690.633 75.1267C693.541 73.4745 697.576 72.595 702.835 72.595V71.4132V70.2314C697.35 70.2314 692.861 71.1426 689.466 73.0716L690.05 74.0992ZM702.835 71.4132V72.595C709.575 72.595 715.469 74.2768 720.559 77.6124L721.207 76.624L721.854 75.6355C716.343 72.0234 709.989 70.2314 702.835 70.2314V71.4132ZM721.207 76.624L720.559 77.6124C725.656 80.9528 729.655 85.6981 732.545 91.8961L733.616 91.3967L734.687 90.8972C731.632 84.346 727.358 79.2428 721.854 75.6355L721.207 76.624ZM733.616 91.3967L732.545 91.8961C735.429 98.0824 736.893 105.425 736.893 113.959H738.074H739.256C739.256 105.159 737.747 97.4603 734.687 90.8972L733.616 91.3967ZM738.074 113.959H736.893C736.893 122.565 735.429 129.962 732.544 136.185L733.616 136.682L734.688 137.179C737.748 130.58 739.256 122.829 739.256 113.959H738.074ZM733.616 136.682L732.545 136.182C729.653 142.383 725.669 147.149 720.605 150.525L721.26 151.508L721.916 152.492C727.38 148.849 731.633 143.73 734.687 137.181L733.616 136.682ZM721.26 151.508L720.609 150.522C715.556 153.857 709.716 155.537 703.05 155.537V156.719V157.901C710.135 157.901 716.436 156.107 721.911 152.495L721.26 151.508ZM703.05 156.719V155.537C697.864 155.537 693.839 154.676 690.888 153.051L690.318 154.087L689.748 155.122C693.172 157.007 697.635 157.901 703.05 157.901V156.719ZM690.318 154.087L690.897 153.056C687.811 151.323 685.496 149.397 683.899 147.3L682.959 148.017L682.019 148.733C683.859 151.148 686.45 153.269 689.739 155.117L690.318 154.087ZM682.959 148.017L683.904 147.307C682.195 145.029 680.893 143.162 679.988 141.7L678.984 142.322L677.979 142.944C678.936 144.491 680.284 146.42 682.013 148.726L682.959 148.017ZM678.984 142.322V141.14H677.479V142.322V143.504H678.984V142.322ZM677.479 142.322H676.298V155H677.479H678.661V142.322H677.479ZM677.479 155V153.818H665.231V155V156.182H677.479V155ZM677.694 113.744H676.512C676.512 120.089 677.442 125.734 679.33 130.659L680.434 130.236L681.537 129.812C679.773 125.211 678.876 119.862 678.876 113.744H677.694ZM680.434 130.236L679.332 130.661C681.225 135.561 684.013 139.457 687.72 142.294L688.438 141.355L689.156 140.417C685.844 137.882 683.296 134.364 681.536 129.81L680.434 130.236ZM688.438 141.355L687.726 142.299C691.472 145.127 696.03 146.512 701.331 146.512V145.331V144.149C696.46 144.149 692.424 142.884 689.15 140.412L688.438 141.355ZM701.331 145.331V146.512C706.848 146.512 711.542 145.054 715.331 142.069L714.599 141.14L713.868 140.212C710.566 142.814 706.414 144.149 701.331 144.149V145.331ZM714.599 141.14L715.332 142.068C719.101 139.09 721.906 135.109 723.763 130.168L722.657 129.752L721.551 129.336C719.827 133.922 717.26 137.532 713.867 140.213L714.599 141.14ZM722.657 129.752L723.762 130.172C725.646 125.221 726.579 119.74 726.579 113.744H725.397H724.215C724.215 119.494 723.321 124.685 721.553 129.332L722.657 129.752ZM725.397 113.744H726.579C726.579 107.82 725.664 102.445 723.814 97.6336L722.711 98.0578L721.608 98.4821C723.339 102.982 724.215 108.064 724.215 113.744H725.397ZM722.711 98.0578L723.818 97.6438C721.994 92.7677 719.201 88.869 715.422 85.9971L714.707 86.938L713.992 87.8789C717.375 90.4506 719.918 93.965 721.604 98.4719L722.711 98.0578ZM714.707 86.938L715.432 86.0051C711.641 83.0563 706.912 81.6198 701.331 81.6198V82.8016V83.9835C706.493 83.9835 710.682 85.3046 713.981 87.8709L714.707 86.938ZM701.331 82.8016V81.6198C695.966 81.6198 691.373 82.9833 687.625 85.7754L688.331 86.7231L689.037 87.6709C692.308 85.2344 696.381 83.9835 701.331 83.9835V82.8016ZM688.331 86.7231L687.631 85.7707C683.914 88.5017 681.137 92.3149 679.277 97.1501L680.38 97.5744L681.483 97.9986C683.205 93.5225 685.728 90.1016 689.03 87.6755L688.331 86.7231ZM680.38 97.5744L679.278 97.1473C677.424 101.932 676.512 107.472 676.512 113.744H677.694H678.876C678.876 107.696 679.755 102.456 681.482 98.0015L680.38 97.5744ZM770.145 44.9835H771.326V43.8016H770.145V44.9835ZM770.145 155V156.182H771.326V155H770.145ZM757.467 155H756.285V156.182H757.467V155ZM757.467 44.9835V43.8016H756.285V44.9835H757.467ZM770.145 44.9835H768.963V155H770.145H771.326V44.9835H770.145ZM770.145 155V153.818H757.467V155V156.182H770.145V155ZM757.467 155H758.649V44.9835H757.467H756.285V155H757.467ZM757.467 44.9835V46.1653H770.145V44.9835V43.8016H757.467V44.9835ZM807.385 151.455L806.764 152.46L806.771 152.464L807.385 151.455ZM794.117 136.628L793.053 137.142L793.056 137.149L794.117 136.628ZM794.117 92.0413L793.052 91.5293L793.05 91.5318L794.117 92.0413ZM807.117 76.8926L807.762 77.8827L807.764 77.8817L807.117 76.8926ZM839.402 73.562L839.784 72.4437L839.784 72.4437L839.402 73.562ZM850.844 80.5455L850.036 81.4076L850.041 81.4121L850.844 80.5455ZM859.063 93.2231L860.165 92.7959L860.165 92.7959L859.063 93.2231ZM862.125 118.041V119.223H863.307V118.041H862.125ZM798.522 118.041H797.34V119.223H798.522V118.041ZM798.522 107.083V105.901H797.34V107.083H798.522ZM849.232 107.083V108.264H850.414V107.083H849.232ZM846.439 94.6198L845.382 95.1484L845.386 95.1566L846.439 94.6198ZM838.596 85.9711L837.968 86.9721L837.973 86.975L838.596 85.9711ZM813.563 86.562L814.225 87.5409L814.227 87.5394L813.563 86.562ZM805.129 96.2314L804.07 95.7067L804.07 95.7067L805.129 96.2314ZM805.398 132.169L804.339 132.694L804.344 132.705L805.398 132.169ZM814.476 142L813.881 143.021L813.888 143.025L814.476 142ZM836.985 143.934L837.372 145.051L837.38 145.048L836.985 143.934ZM844.022 139.636L844.842 140.487L844.85 140.48L844.022 139.636ZM848.588 132.438L848.907 131.3L847.862 131.007L847.481 132.023L848.588 132.438ZM860.836 135.876L861.965 136.226L862.324 135.066L861.155 134.738L860.836 135.876ZM854.336 146.835L855.181 147.661L855.186 147.656L854.336 146.835ZM843.055 154.14L843.478 155.244L843.486 155.241L843.055 154.14ZM827.96 156.719V155.537C820.187 155.537 813.55 153.823 808 150.445L807.385 151.455L806.771 152.464C812.753 156.105 819.832 157.901 827.96 157.901V156.719ZM807.385 151.455L808.007 150.45C802.475 147.027 798.2 142.256 795.177 136.107L794.117 136.628L793.056 137.149C796.265 143.677 800.835 148.792 806.764 152.46L807.385 151.455ZM794.117 136.628L795.181 136.114C792.192 129.928 790.679 122.696 790.679 114.388H789.497H788.315C788.315 122.984 789.882 130.579 793.053 137.142L794.117 136.628ZM789.497 114.388H790.679C790.679 106.081 792.192 98.8115 795.183 92.5508L794.117 92.0413L793.05 91.5318C789.882 98.1637 788.315 105.792 788.315 114.388H789.497ZM794.117 92.0413L795.182 92.5533C798.212 86.2488 802.407 81.3718 807.762 77.8827L807.117 76.8926L806.472 75.9024C800.724 79.6475 796.253 84.8697 793.052 91.5293L794.117 92.0413ZM807.117 76.8926L807.764 77.8817C813.136 74.3688 819.424 72.595 826.671 72.595V71.4132V70.2314C819.019 70.2314 812.271 72.1105 806.47 75.9034L807.117 76.8926ZM826.671 71.4132V72.595C830.834 72.595 834.949 73.2885 839.02 74.6802L839.402 73.562L839.784 72.4437C835.475 70.9704 831.102 70.2314 826.671 70.2314V71.4132ZM839.402 73.562L839.02 74.6802C843.041 76.0551 846.712 78.2916 850.036 81.4076L850.844 80.5455L851.652 79.6833C848.1 76.353 844.143 73.9338 839.784 72.4437L839.402 73.562ZM850.844 80.5455L850.041 81.4121C853.323 84.4551 855.972 88.5194 857.961 93.6504L859.063 93.2231L860.165 92.7959C858.072 87.3979 855.241 83.0104 851.648 79.6788L850.844 80.5455ZM859.063 93.2231L857.961 93.6504C859.934 98.7389 860.943 105.066 860.943 112.669H862.125H863.307C863.307 104.873 862.275 98.2363 860.165 92.7959L859.063 93.2231ZM862.125 112.669H860.943V118.041H862.125H863.307V112.669H862.125ZM862.125 118.041V116.86H798.522V118.041V119.223H862.125V118.041ZM798.522 118.041H799.704V107.083H798.522H797.34V118.041H798.522ZM798.522 107.083V108.264H849.232V107.083V105.901H798.522V107.083ZM849.232 107.083H850.414C850.414 102.266 849.45 97.9235 847.492 94.0831L846.439 94.6198L845.386 95.1566C847.153 98.622 848.051 102.588 848.051 107.083H849.232ZM846.439 94.6198L847.496 94.0913C845.574 90.247 842.811 87.1978 839.22 84.9671L838.596 85.9711L837.973 86.975C841.185 88.9703 843.651 91.6869 845.382 95.1484L846.439 94.6198ZM838.596 85.9711L839.224 84.9701C835.642 82.7218 831.442 81.6198 826.671 81.6198V82.8016V83.9835C831.067 83.9835 834.817 84.9945 837.968 86.9721L838.596 85.9711ZM826.671 82.8016V81.6198C821.416 81.6198 816.809 82.9273 812.899 85.5845L813.563 86.562L814.227 87.5394C817.695 85.1828 821.825 83.9835 826.671 83.9835V82.8016ZM813.563 86.562L812.901 85.5831C809.078 88.1694 806.13 91.5495 804.07 95.7067L805.129 96.2314L806.188 96.7561C808.068 92.9629 810.743 89.8967 814.225 87.5409L813.563 86.562ZM805.129 96.2314L804.07 95.7067C802.018 99.8492 800.993 104.291 800.993 109.017H802.175H803.356C803.356 104.646 804.301 100.564 806.188 96.7561L805.129 96.2314ZM802.175 109.017H800.993V116.322H802.175H803.356V109.017H802.175ZM802.175 116.322H800.993C800.993 122.685 802.089 128.158 804.339 132.694L805.398 132.169L806.457 131.644C804.409 127.514 803.356 122.422 803.356 116.322H802.175ZM805.398 132.169L804.344 132.705C806.623 137.189 809.802 140.641 813.881 143.021L814.476 142L815.072 140.979C811.415 138.846 808.541 135.745 806.451 131.634L805.398 132.169ZM814.476 142L813.888 143.025C817.96 145.363 822.663 146.512 827.96 146.512V145.331V144.149C823.014 144.149 818.728 143.078 815.065 140.975L814.476 142ZM827.96 145.331V146.512C831.4 146.512 834.542 146.031 837.372 145.051L836.985 143.934L836.597 142.817C834.055 143.699 831.181 144.149 827.96 144.149V145.331ZM836.985 143.934L837.38 145.048C840.251 144.027 842.744 142.509 844.842 140.487L844.022 139.636L843.202 138.785C841.36 140.56 839.161 141.906 836.589 142.82L836.985 143.934ZM844.022 139.636L844.85 140.48C846.955 138.412 848.566 135.862 849.694 132.853L848.588 132.438L847.481 132.023C846.461 134.744 845.028 136.992 843.194 138.793L844.022 139.636ZM848.588 132.438L848.268 133.576L860.516 137.014L860.836 135.876L861.155 134.738L848.907 131.3L848.588 132.438ZM860.836 135.876L859.707 135.526C858.473 139.502 856.402 142.994 853.486 146.014L854.336 146.835L855.186 147.656C858.357 144.372 860.62 140.558 861.965 136.226L860.836 135.876ZM854.336 146.835L853.49 146.009C850.575 148.993 846.961 151.34 842.623 153.04L843.055 154.14L843.486 155.241C848.102 153.431 852.008 150.908 855.181 147.661L854.336 146.835ZM843.055 154.14L842.631 153.037C838.31 154.697 833.425 155.537 827.96 155.537V156.719V157.901C833.668 157.901 838.846 157.023 843.478 155.244L843.055 154.14ZM887.642 155V156.182H888.476L888.755 155.395L887.642 155ZM873.675 155L872.565 154.593L871.982 156.182H873.675V155ZM914.071 44.9835V43.8016H913.246L912.962 44.5761L914.071 44.9835ZM927.823 44.9835L928.933 44.5761L928.648 43.8016H927.823V44.9835ZM968.22 155V156.182H969.913L969.329 154.593L968.22 155ZM954.253 155L953.139 155.395L953.419 156.182H954.253V155ZM921.377 62.3884L922.491 61.9931L922.212 61.2066H921.377V62.3884ZM920.518 62.3884V61.2066H919.683L919.404 61.9931L920.518 62.3884ZM892.799 112.025V110.843H891.617V112.025H892.799ZM949.096 112.025H950.278V110.843H949.096V112.025ZM949.096 123.843V125.025H950.278V123.843H949.096ZM892.799 123.843H891.617V125.025H892.799V123.843ZM887.642 155V153.818H873.675V155V156.182H887.642V155ZM873.675 155L874.784 155.407L915.181 45.3908L914.071 44.9835L912.962 44.5761L872.565 154.593L873.675 155ZM914.071 44.9835V46.1653H927.823V44.9835V43.8016H914.071V44.9835ZM927.823 44.9835L926.714 45.3908L967.111 155.407L968.22 155L969.329 154.593L928.933 44.5761L927.823 44.9835ZM968.22 155V153.818H954.253V155V156.182H968.22V155ZM954.253 155L955.367 154.605L922.491 61.9931L921.377 62.3884L920.263 62.7838L953.139 155.395L954.253 155ZM921.377 62.3884V61.2066H920.518V62.3884V63.5702H921.377V62.3884ZM920.518 62.3884L919.404 61.9931L886.528 154.605L887.642 155L888.755 155.395L921.631 62.7838L920.518 62.3884ZM892.799 112.025V113.207H949.096V112.025V110.843H892.799V112.025ZM949.096 112.025H947.914V123.843H949.096H950.278V112.025H949.096ZM949.096 123.843V122.661H892.799V123.843V125.025H949.096V123.843ZM892.799 123.843H893.98V112.025H892.799H891.617V123.843H892.799ZM998.679 44.9835H999.861V43.8016H998.679V44.9835ZM998.679 155V156.182H999.861V155H998.679ZM985.356 155H984.175V156.182H985.356V155ZM985.356 44.9835V43.8016H984.175V44.9835H985.356ZM998.679 44.9835H997.497V155H998.679H999.861V44.9835H998.679ZM998.679 155V153.818H985.356V155V156.182H998.679V155ZM985.356 155H986.538V44.9835H985.356H984.175V155H985.356ZM985.356 44.9835V46.1653H998.679V44.9835V43.8016H985.356V44.9835Z" fill="black" mask="url(#path-8-outside-1_66_5528)"/>
<path d="M204.322 155H203.14V156.182H204.322V155ZM204.322 44.9835V43.8016H203.14V44.9835H204.322ZM267.174 51.5909L266.58 52.6131L266.584 52.6152L267.174 51.5909ZM284.632 70.4463L283.572 70.9692L283.573 70.9711L284.632 70.4463ZM284.579 129.376L285.637 129.901L285.638 129.899L284.579 129.376ZM266.744 148.393L267.325 149.422L267.328 149.42L266.744 148.393ZM217.645 143.182H216.463V144.364H217.645V143.182ZM260.029 137.917L259.431 136.898L260.029 137.917ZM273.459 76.8388L272.381 77.3238L272.382 77.3261L273.459 76.8388ZM260.459 62.0124L259.849 63.0247L259.853 63.0275L260.459 62.0124ZM217.645 56.8016V55.6198H216.463V56.8016H217.645ZM238.273 155V153.818H204.322V155V156.182H238.273V155ZM204.322 155H205.504V44.9835H204.322H203.14V155H204.322ZM204.322 44.9835V46.1653H239.777V44.9835V43.8016H204.322V44.9835ZM239.777 44.9835V46.1653C250.286 46.1653 259.204 48.3331 266.58 52.6131L267.174 51.5909L267.767 50.5687C259.959 46.0388 250.613 43.8016 239.777 43.8016V44.9835ZM267.174 51.5909L266.584 52.6152C273.964 56.8622 279.624 62.9684 283.572 70.9692L284.632 70.4463L285.692 69.9233C281.546 61.5219 275.568 55.0579 267.763 50.5666L267.174 51.5909ZM284.632 70.4463L283.573 70.9711C287.522 78.9376 289.521 88.5261 289.521 99.7769H290.702H291.884C291.884 88.2507 289.836 78.2855 285.691 69.9215L284.632 70.4463ZM290.702 99.7769H289.521C289.521 111.098 287.504 120.778 283.519 128.853L284.579 129.376L285.638 129.899C289.818 121.429 291.884 111.375 291.884 99.7769H290.702ZM284.579 129.376L283.52 128.851C279.539 136.882 273.757 143.044 266.159 147.365L266.744 148.393L267.328 149.42C275.345 144.86 281.453 138.344 285.637 129.901L284.579 129.376ZM266.744 148.393L266.163 147.363C258.572 151.646 249.292 153.818 238.273 153.818V155V156.182C249.6 156.182 259.302 153.949 267.325 149.422L266.744 148.393ZM217.645 143.182V144.364H237.413V143.182V142H217.645V143.182ZM237.413 143.182V144.364C246.656 144.364 254.417 142.581 260.627 138.937L260.029 137.917L259.431 136.898C253.68 140.273 246.363 142 237.413 142V143.182ZM260.029 137.917L260.627 138.937C266.824 135.3 271.447 130.116 274.481 123.417L273.405 122.93L272.328 122.442C269.49 128.708 265.195 133.515 259.431 136.898L260.029 137.917ZM273.405 122.93L274.481 123.417C277.503 116.748 278.992 108.856 278.992 99.7769H277.81H276.628C276.628 108.604 275.18 116.147 272.328 122.442L273.405 122.93ZM277.81 99.7769H278.992C278.992 90.7699 277.521 82.9498 274.535 76.3516L273.459 76.8388L272.382 77.3261C275.198 83.5489 276.628 91.0207 276.628 99.7769H277.81ZM273.459 76.8388L274.536 76.3539C271.542 69.699 267.049 64.5662 261.064 60.9973L260.459 62.0124L259.853 63.0275C265.4 66.3346 269.574 71.0861 272.381 77.3238L273.459 76.8388ZM260.459 62.0124L261.069 61.0001C255.074 57.3886 247.669 55.6198 238.917 55.6198V56.8016V57.9835C247.356 57.9835 254.311 59.6885 259.849 63.0247L260.459 62.0124ZM238.917 56.8016V55.6198H217.645V56.8016V57.9835H238.917V56.8016ZM217.645 56.8016H216.463V143.182H217.645H218.826V56.8016H217.645ZM325.351 151.455L324.729 152.46L324.737 152.464L325.351 151.455ZM312.083 136.628L311.019 137.142L311.022 137.149L312.083 136.628ZM312.083 92.0413L311.017 91.5293L311.016 91.5318L312.083 92.0413ZM325.083 76.8926L325.728 77.8827L325.729 77.8817L325.083 76.8926ZM357.368 73.562L357.75 72.4437L357.75 72.4437L357.368 73.562ZM368.81 80.5455L368.002 81.4076L368.006 81.4121L368.81 80.5455ZM377.029 93.2231L378.131 92.7959L378.131 92.7959L377.029 93.2231ZM380.091 118.041V119.223H381.273V118.041H380.091ZM316.488 118.041H315.306V119.223H316.488V118.041ZM316.488 107.083V105.901H315.306V107.083H316.488ZM367.198 107.083V108.264H368.38V107.083H367.198ZM364.405 94.6198L363.348 95.1484L363.352 95.1566L364.405 94.6198ZM356.562 85.9711L355.934 86.9721L355.938 86.975L356.562 85.9711ZM331.529 86.562L332.191 87.5409L332.193 87.5394L331.529 86.562ZM323.095 96.2314L322.036 95.7067L322.036 95.7067L323.095 96.2314ZM323.364 132.169L322.305 132.694L322.31 132.705L323.364 132.169ZM332.442 142L331.847 143.021L331.854 143.025L332.442 142ZM354.95 143.934L355.338 145.051L355.346 145.048L354.95 143.934ZM361.988 139.636L362.808 140.487L362.816 140.48L361.988 139.636ZM366.554 132.438L366.873 131.3L365.828 131.007L365.447 132.023L366.554 132.438ZM378.802 135.876L379.93 136.226L380.29 135.066L379.121 134.738L378.802 135.876ZM372.302 146.835L373.147 147.661L373.152 147.656L372.302 146.835ZM361.021 154.14L361.444 155.244L361.452 155.241L361.021 154.14ZM345.926 156.719V155.537C338.153 155.537 331.516 153.823 325.966 150.445L325.351 151.455L324.737 152.464C330.718 156.105 337.797 157.901 345.926 157.901V156.719ZM325.351 151.455L325.973 150.45C320.441 147.027 316.166 142.256 313.143 136.107L312.083 136.628L311.022 137.149C314.231 143.677 318.801 148.792 324.729 152.46L325.351 151.455ZM312.083 136.628L313.147 136.114C310.158 129.928 308.645 122.696 308.645 114.388H307.463H306.281C306.281 122.984 307.848 130.579 311.019 137.142L312.083 136.628ZM307.463 114.388H308.645C308.645 106.081 310.158 98.8115 313.149 92.5508L312.083 92.0413L311.016 91.5318C307.848 98.1637 306.281 105.792 306.281 114.388H307.463ZM312.083 92.0413L313.148 92.5533C316.178 86.2488 320.373 81.3718 325.728 77.8827L325.083 76.8926L324.437 75.9024C318.69 79.6475 314.219 84.8697 311.017 91.5293L312.083 92.0413ZM325.083 76.8926L325.729 77.8817C331.102 74.3688 337.389 72.595 344.636 72.595V71.4132V70.2314C336.985 70.2314 330.237 72.1105 324.436 75.9034L325.083 76.8926ZM344.636 71.4132V72.595C348.8 72.595 352.915 73.2885 356.985 74.6802L357.368 73.562L357.75 72.4437C353.441 70.9704 349.068 70.2314 344.636 70.2314V71.4132ZM357.368 73.562L356.985 74.6802C361.007 76.0551 364.678 78.2916 368.002 81.4076L368.81 80.5455L369.618 79.6833C366.066 76.353 362.109 73.9338 357.75 72.4437L357.368 73.562ZM368.81 80.5455L368.006 81.4121C371.289 84.4551 373.937 88.5194 375.927 93.6504L377.029 93.2231L378.131 92.7959C376.038 87.3979 373.207 83.0104 369.613 79.6788L368.81 80.5455ZM377.029 93.2231L375.927 93.6504C377.9 98.7389 378.909 105.066 378.909 112.669H380.091H381.273C381.273 104.873 380.24 98.2363 378.131 92.7959L377.029 93.2231ZM380.091 112.669H378.909V118.041H380.091H381.273V112.669H380.091ZM380.091 118.041V116.86H316.488V118.041V119.223H380.091V118.041ZM316.488 118.041H317.669V107.083H316.488H315.306V118.041H316.488ZM316.488 107.083V108.264H367.198V107.083V105.901H316.488V107.083ZM367.198 107.083H368.38C368.38 102.266 367.416 97.9235 365.458 94.0831L364.405 94.6198L363.352 95.1566C365.119 98.622 366.017 102.588 366.017 107.083H367.198ZM364.405 94.6198L365.462 94.0913C363.54 90.247 360.777 87.1978 357.186 84.9671L356.562 85.9711L355.938 86.975C359.151 88.9703 361.617 91.6869 363.348 95.1484L364.405 94.6198ZM356.562 85.9711L357.19 84.9701C353.608 82.7218 349.408 81.6198 344.636 81.6198V82.8016V83.9835C349.033 83.9835 352.783 84.9945 355.934 86.9721L356.562 85.9711ZM344.636 82.8016V81.6198C339.382 81.6198 334.774 82.9273 330.865 85.5845L331.529 86.562L332.193 87.5394C335.661 85.1828 339.791 83.9835 344.636 83.9835V82.8016ZM331.529 86.562L330.867 85.5831C327.043 88.1694 324.096 91.5495 322.036 95.7067L323.095 96.2314L324.154 96.7561C326.034 92.9629 328.709 89.8967 332.191 87.5409L331.529 86.562ZM323.095 96.2314L322.036 95.7067C319.984 99.8492 318.959 104.291 318.959 109.017H320.141H321.322C321.322 104.646 322.267 100.564 324.154 96.7561L323.095 96.2314ZM320.141 109.017H318.959V116.322H320.141H321.322V109.017H320.141ZM320.141 116.322H318.959C318.959 122.685 320.055 128.158 322.305 132.694L323.364 132.169L324.422 131.644C322.374 127.514 321.322 122.422 321.322 116.322H320.141ZM323.364 132.169L322.31 132.705C324.589 137.189 327.768 140.641 331.847 143.021L332.442 142L333.038 140.979C329.381 138.846 326.507 135.745 324.417 131.634L323.364 132.169ZM332.442 142L331.854 143.025C335.926 145.363 340.629 146.512 345.926 146.512V145.331V144.149C340.98 144.149 336.694 143.078 333.031 140.975L332.442 142ZM345.926 145.331V146.512C349.366 146.512 352.508 146.031 355.338 145.051L354.95 143.934L354.563 142.817C352.021 143.699 349.147 144.149 345.926 144.149V145.331ZM354.95 143.934L355.346 145.048C358.217 144.027 360.71 142.509 362.808 140.487L361.988 139.636L361.168 138.785C359.326 140.56 357.127 141.906 354.555 142.82L354.95 143.934ZM361.988 139.636L362.816 140.48C364.921 138.412 366.532 135.862 367.66 132.853L366.554 132.438L365.447 132.023C364.427 134.744 362.994 136.992 361.16 138.793L361.988 139.636ZM366.554 132.438L366.234 133.576L378.482 137.014L378.802 135.876L379.121 134.738L366.873 131.3L366.554 132.438ZM378.802 135.876L377.673 135.526C376.439 139.502 374.368 142.994 371.452 146.014L372.302 146.835L373.152 147.656C376.323 144.372 378.586 140.558 379.93 136.226L378.802 135.876ZM372.302 146.835L371.456 146.009C368.541 148.993 364.926 151.34 360.589 153.04L361.021 154.14L361.452 155.241C366.068 153.431 369.974 150.908 373.147 147.661L372.302 146.835ZM361.021 154.14L360.597 153.037C356.276 154.697 351.391 155.537 345.926 155.537V156.719V157.901C351.634 157.901 356.812 157.023 361.444 155.244L361.021 154.14ZM436.12 72.4876H437.302V71.3058H436.12V72.4876ZM436.12 83.2314V84.4132H437.302V83.2314H436.12ZM391.641 83.2314H390.459V84.4132H391.641V83.2314ZM391.641 72.4876V71.3058H390.459V72.4876H391.641ZM404.963 155H403.781V156.182H404.963V155ZM408.293 49.281L407.327 48.6003L407.327 48.6003L408.293 49.281ZM416.942 42.1901L416.462 41.1101L416.462 41.1101L416.942 42.1901ZM435.798 40.5785L435.506 41.7238L435.506 41.7238L435.798 40.5785ZM440.202 41.9752L441.324 42.3489L441.663 41.331L440.682 40.8952L440.202 41.9752ZM436.55 52.9339L436.176 54.055L437.297 54.4288L437.671 53.3076L436.55 52.9339ZM433.864 52.1281L433.534 53.2631L433.544 53.2658L433.864 52.1281ZM420.38 54.814L419.494 54.0326L419.486 54.0412L420.38 54.814ZM417.641 155V156.182H418.822V155H417.641ZM436.12 72.4876H434.938V83.2314H436.12H437.302V72.4876H436.12ZM436.12 83.2314V82.0496H391.641V83.2314V84.4132H436.12V83.2314ZM391.641 83.2314H392.822V72.4876H391.641H390.459V83.2314H391.641ZM391.641 72.4876V73.6694H436.12V72.4876V71.3058H391.641V72.4876ZM404.963 155H406.145V61.0992H404.963H403.781V155H404.963ZM404.963 61.0992H406.145C406.145 56.5597 407.209 52.8727 409.26 49.9617L408.293 49.281L407.327 48.6003C404.937 51.9923 403.781 56.1841 403.781 61.0992H404.963ZM408.293 49.281L409.26 49.9617C411.356 46.9859 414.071 44.7596 417.422 43.27L416.942 42.1901L416.462 41.1101C412.723 42.772 409.671 45.273 407.327 48.6003L408.293 49.281ZM416.942 42.1901L417.422 43.27C420.814 41.7625 424.393 41.0083 428.169 41.0083V39.8264V38.6446C424.067 38.6446 420.161 39.4661 416.462 41.1101L416.942 42.1901ZM428.169 39.8264V41.0083C431.233 41.0083 433.668 41.2559 435.506 41.7238L435.798 40.5785L436.089 39.4332C433.988 38.8983 431.337 38.6446 428.169 38.6446V39.8264ZM435.798 40.5785L435.506 41.7238C437.459 42.2208 438.849 42.6669 439.723 43.0552L440.202 41.9752L440.682 40.8952C439.622 40.424 438.076 39.939 436.089 39.4332L435.798 40.5785ZM440.202 41.9752L439.081 41.6015L435.428 52.5602L436.55 52.9339L437.671 53.3076L441.324 42.3489L440.202 41.9752ZM436.55 52.9339L436.923 51.8127C436.253 51.5891 435.336 51.3146 434.184 50.9904L433.864 52.1281L433.544 53.2658C434.683 53.5862 435.557 53.8489 436.176 54.055L436.55 52.9339ZM433.864 52.1281L434.193 50.9931C432.933 50.6271 431.34 50.4628 429.459 50.4628V51.6446V52.8264C431.23 52.8264 432.574 52.9844 433.534 53.263L433.864 52.1281ZM429.459 51.6446V50.4628C425.097 50.4628 421.671 51.5619 419.494 54.0326L420.38 54.814L421.267 55.5955C422.814 53.8403 425.441 52.8264 429.459 52.8264V51.6446ZM420.38 54.814L419.486 54.0412C417.405 56.4492 416.459 59.8691 416.459 64.1074H417.641H418.822C418.822 60.1805 419.703 57.4048 421.274 55.5869L420.38 54.814ZM417.641 64.1074H416.459V155H417.641H418.822V64.1074H417.641ZM417.641 155V153.818H404.963V155V156.182H417.641V155ZM453.887 155H452.706V156.182H453.887V155ZM453.887 72.4876V71.3058H452.706V72.4876H453.887ZM466.565 72.4876H467.747V71.3058H466.565V72.4876ZM466.565 155V156.182H467.747V155H466.565ZM453.941 56.2107L453.123 57.0637L453.132 57.0718L453.941 56.2107ZM453.941 44.0702L453.132 43.2091L453.123 43.2173L453.941 44.0702ZM466.673 44.0702L465.854 44.9232L465.863 44.9313L466.673 44.0702ZM466.673 56.2107L465.863 55.3496L465.854 55.3578L466.673 56.2107ZM453.887 155H455.069V72.4876H453.887H452.706V155H453.887ZM453.887 72.4876V73.6694H466.565V72.4876V71.3058H453.887V72.4876ZM466.565 72.4876H465.383V155H466.565H467.747V72.4876H466.565ZM466.565 155V153.818H453.887V155V156.182H466.565V155ZM460.334 58.7355V57.5537C458.162 57.5537 456.321 56.8256 454.751 55.3496L453.941 56.2107L453.132 57.0718C455.143 58.9623 457.564 59.9174 460.334 59.9174V58.7355ZM453.941 56.2107L454.759 55.3578C453.229 53.8903 452.491 52.1719 452.491 50.1405H451.309H450.127C450.127 52.8364 451.143 55.1648 453.123 57.0636L453.941 56.2107ZM451.309 50.1405H452.491C452.491 48.1091 453.229 46.3907 454.759 44.9231L453.941 44.0702L453.123 43.2173C451.143 45.1162 450.127 47.4446 450.127 50.1405H451.309ZM453.941 44.0702L454.751 44.9313C456.321 43.4554 458.162 42.7273 460.334 42.7273V41.5454V40.3636C457.564 40.3636 455.143 41.3187 453.132 43.2091L453.941 44.0702ZM460.334 41.5454V42.7273C462.505 42.7273 464.324 43.4548 465.854 44.9231L466.673 44.0702L467.491 43.2173C465.512 41.3193 463.104 40.3636 460.334 40.3636V41.5454ZM466.673 44.0702L465.863 44.9313C467.427 46.4012 468.177 48.1173 468.177 50.1405H469.358H470.54C470.54 47.4364 469.5 45.1057 467.482 43.2091L466.673 44.0702ZM469.358 50.1405H468.177C468.177 52.1637 467.427 53.8798 465.863 55.3496L466.673 56.2107L467.482 57.0718C469.5 55.1753 470.54 52.8446 470.54 50.1405H469.358ZM466.673 56.2107L465.854 55.3578C464.324 56.8262 462.505 57.5537 460.334 57.5537V58.7355V59.9174C463.104 59.9174 465.512 58.9617 467.491 57.0636L466.673 56.2107ZM502.463 155V156.182H503.645V155H502.463ZM489.785 155H488.603V156.182H489.785V155ZM489.785 72.4876V71.3058H488.603V72.4876H489.785ZM502.033 72.4876H503.215V71.3058H502.033V72.4876ZM502.033 85.3802H500.851V86.562H502.033V85.3802ZM503.107 85.3802V86.562H503.864L504.18 85.8754L503.107 85.3802ZM511.917 75.281L512.558 76.274L512.565 76.2698L511.917 75.281ZM541.839 74.8512L541.272 75.8881L541.279 75.8918L541.839 74.8512ZM551.616 85.1653L550.56 85.6971L550.562 85.7004L551.616 85.1653ZM555.107 155V156.182H556.289V155H555.107ZM542.43 155H541.248V156.182H542.43V155ZM537.38 88.281L536.511 89.0819L536.515 89.0861L537.38 88.281ZM512.669 85.4339L512.099 84.3986L512.094 84.4013L512.669 85.4339ZM505.202 93.1157L504.164 92.5521L504.164 92.5521L505.202 93.1157ZM502.463 105.364H501.281V155H502.463H503.645V105.364H502.463ZM502.463 155V153.818H489.785V155V156.182H502.463V155ZM489.785 155H490.967V72.4876H489.785H488.603V155H489.785ZM489.785 72.4876V73.6694H502.033V72.4876V71.3058H489.785V72.4876ZM502.033 72.4876H500.851V85.3802H502.033H503.215V72.4876H502.033ZM502.033 85.3802V86.562H503.107V85.3802V84.1983H502.033V85.3802ZM503.107 85.3802L504.18 85.8754C506.019 81.8923 508.804 78.6971 512.558 76.2739L511.917 75.281L511.276 74.288C507.152 76.9502 504.064 80.4879 502.034 84.8849L503.107 85.3802ZM511.917 75.281L512.565 76.2698C516.259 73.852 521.099 72.595 527.174 72.595V71.4132V70.2314C520.785 70.2314 515.455 71.553 511.27 74.2922L511.917 75.281ZM527.174 71.4132V72.595C532.596 72.595 537.283 73.7062 541.272 75.8881L541.839 74.8512L542.406 73.8144C538.015 71.4123 532.925 70.2314 527.174 70.2314V71.4132ZM541.839 74.8512L541.279 75.8918C545.237 78.0231 548.332 81.2738 550.56 85.6971L551.616 85.1653L552.671 84.6335C550.244 79.8171 546.821 76.1918 542.399 73.8107L541.839 74.8512ZM551.616 85.1653L550.562 85.7004C552.781 90.0694 553.926 95.6724 553.926 102.57H555.107H556.289C556.289 95.4295 555.106 89.4293 552.669 84.6302L551.616 85.1653ZM555.107 102.57H553.926V155H555.107H556.289V102.57H555.107ZM555.107 155V153.818H542.43V155V156.182H555.107V155ZM542.43 155H543.612V103.43H542.43H541.248V155H542.43ZM542.43 103.43H543.612C543.612 96.7446 541.872 91.3729 538.245 87.4758L537.38 88.281L536.515 89.0861C539.621 92.4233 541.248 97.1507 541.248 103.43H542.43ZM537.38 88.281L538.249 87.4801C534.618 83.54 529.659 81.6198 523.521 81.6198V82.8016V83.9835C529.129 83.9835 533.409 85.7162 536.511 89.0819L537.38 88.281ZM523.521 82.8016V81.6198C519.297 81.6198 515.48 82.5372 512.099 84.3986L512.669 85.4339L513.239 86.4692C516.233 84.8209 519.65 83.9835 523.521 83.9835V82.8016ZM512.669 85.4339L512.094 84.4013C508.735 86.2721 506.09 89.0013 504.164 92.5521L505.202 93.1157L506.241 93.6793C507.968 90.4973 510.301 88.1053 513.244 86.4664L512.669 85.4339ZM505.202 93.1157L504.164 92.5521C502.223 96.1299 501.281 100.417 501.281 105.364H502.463H503.645C503.645 100.713 504.53 96.8342 506.241 93.6793L505.202 93.1157ZM588.319 153.979L587.816 155.049L587.823 155.052L588.319 153.979ZM578.166 145.331L577.18 145.982L577.183 145.986L578.166 145.331ZM577.199 120.083L578.197 120.716L578.201 120.71L577.199 120.083ZM594.98 109.339L595.233 110.493L595.241 110.491L594.98 109.339ZM606.423 107.298L606.272 106.125L606.269 106.126L606.423 107.298ZM618.617 105.847L618.738 107.023L618.75 107.021L618.617 105.847ZM625.493 104.074L624.915 103.044L624.904 103.05L625.493 104.074ZM623.344 86.9917L622.498 87.817L622.503 87.8223L623.344 86.9917ZM596.055 86.562L596.776 87.498L596.776 87.498L596.055 86.562ZM588.803 95.0496L588.405 96.1625L589.421 96.5252L589.875 95.5473L588.803 95.0496ZM576.77 90.7521L575.683 90.2865L575.188 91.4422L576.372 91.865L576.77 90.7521ZM585.365 79.0413L586.092 79.9732L586.093 79.9722L585.365 79.0413ZM597.183 73.1322L597.481 74.2759L597.487 74.2741L597.183 73.1322ZM618.993 72.3802L618.775 73.5418L618.789 73.5442L618.993 72.3802ZM629.038 76.1942L628.43 77.2076L628.435 77.2105L629.038 76.1942ZM637.15 84.9504L636.114 85.5203L636.114 85.5203L637.15 84.9504ZM640.373 155V156.182H641.555V155H640.373ZM627.695 155H626.513V156.182H627.695V155ZM627.695 143.826H628.877V142.645H627.695V143.826ZM627.051 143.826V142.645H626.307L625.985 143.315L627.051 143.826ZM622.753 149.574L623.596 150.403L623.596 150.403L622.753 149.574ZM614.749 154.785L614.282 153.699L614.282 153.699L614.749 154.785ZM617.166 142.591L616.583 141.563L616.579 141.565L617.166 142.591ZM625.009 134.963L623.985 134.374L623.98 134.383L625.009 134.963ZM627.695 113.529H628.877V110.265L626.787 112.772L627.695 113.529ZM624.15 115.302L624.468 116.44L624.476 116.438L624.483 116.435L624.15 115.302ZM617.918 116.645L618.098 117.813L618.105 117.812L618.113 117.81L617.918 116.645ZM611.096 117.612L611.231 118.786L611.239 118.785L611.247 118.784L611.096 117.612ZM605.778 118.256L605.931 119.428L605.932 119.428L605.778 118.256ZM596.538 120.351L596.908 121.474L596.916 121.471L596.538 120.351ZM589.662 124.595L588.794 123.793L588.794 123.793L589.662 124.595ZM591.972 142.215L591.299 143.187L591.306 143.191L591.312 143.195L591.972 142.215ZM602.555 156.934V155.752C597.478 155.752 592.904 154.797 588.815 152.907L588.319 153.979L587.823 155.052C592.257 157.101 597.174 158.116 602.555 158.116V156.934ZM588.319 153.979L588.822 152.91C584.747 150.992 581.532 148.249 579.15 144.675L578.166 145.331L577.183 145.986C579.814 149.933 583.368 152.956 587.816 155.049L588.319 153.979ZM578.166 145.331L579.153 144.679C576.795 141.109 575.588 136.762 575.588 131.579H574.406H573.224C573.224 137.139 574.524 141.96 577.18 145.982L578.166 145.331ZM574.406 131.579H575.588C575.588 126.997 576.491 123.406 578.197 120.716L577.199 120.083L576.201 119.45C574.183 122.632 573.224 126.705 573.224 131.579H574.406ZM577.199 120.083L578.201 120.71C579.954 117.913 582.29 115.726 585.228 114.139L584.666 113.099L584.105 112.059C580.811 113.839 578.17 116.308 576.198 119.455L577.199 120.083ZM584.666 113.099L585.228 114.139C588.239 112.513 591.571 111.295 595.233 110.493L594.98 109.339L594.728 108.184C590.869 109.03 587.325 110.319 584.105 112.059L584.666 113.099ZM594.98 109.339L595.241 110.491C599.002 109.64 602.78 108.966 606.576 108.469L606.423 107.298L606.269 106.126C602.401 106.632 598.551 107.319 594.719 108.186L594.98 109.339ZM606.423 107.298L606.573 108.47C611.582 107.826 615.636 107.344 618.738 107.023L618.617 105.847L618.495 104.672C615.366 104.995 611.29 105.48 606.272 106.125L606.423 107.298ZM618.617 105.847L618.75 107.021C621.942 106.659 624.433 106.047 626.082 105.099L625.493 104.074L624.904 103.05C623.688 103.749 621.595 104.319 618.483 104.673L618.617 105.847ZM625.493 104.074L626.071 105.105C627.997 104.025 628.877 102.138 628.877 99.7769H627.695H626.513C626.513 101.498 625.925 102.477 624.915 103.044L625.493 104.074ZM627.695 99.7769H628.877V99.3471H627.695H626.513V99.7769H627.695ZM627.695 99.3471H628.877C628.877 93.8282 627.361 89.377 624.185 86.1612L623.344 86.9917L622.503 87.8223C625.128 90.4797 626.513 94.2655 626.513 99.3471H627.695ZM623.344 86.9917L624.19 86.1664C621.023 82.9199 616.31 81.405 610.29 81.405V82.5868V83.7686C615.946 83.7686 619.935 85.1903 622.498 87.817L623.344 86.9917ZM610.29 82.5868V81.405C604.078 81.405 599.046 82.7642 595.333 85.626L596.055 86.562L596.776 87.498C599.94 85.0595 604.398 83.7686 610.29 83.7686V82.5868ZM596.055 86.562L595.333 85.626C591.79 88.3574 589.228 91.3267 587.731 94.5519L588.803 95.0496L589.875 95.5473C591.171 92.756 593.444 90.0668 596.776 87.498L596.055 86.562ZM588.803 95.0496L589.2 93.9366L577.167 89.6391L576.77 90.7521L576.372 91.865L588.405 96.1625L588.803 95.0496ZM576.77 90.7521L577.856 91.2176C579.942 86.3504 582.696 82.6215 586.092 79.9732L585.365 79.0413L584.638 78.1095C580.871 81.0479 577.895 85.1262 575.683 90.2865L576.77 90.7521ZM585.365 79.0413L586.093 79.9722C589.588 77.2382 593.382 75.3436 597.481 74.2759L597.183 73.1322L596.885 71.9886C592.46 73.1413 588.375 75.186 584.637 78.1104L585.365 79.0413ZM597.183 73.1322L597.487 74.2741C601.693 73.1528 605.816 72.595 609.861 72.595V71.4132V70.2314C605.596 70.2314 601.268 70.8197 596.878 71.9903L597.183 73.1322ZM609.861 71.4132V72.595C612.419 72.595 615.387 72.9066 618.775 73.5417L618.993 72.3802L619.211 71.2186C615.722 70.5645 612.603 70.2314 609.861 70.2314V71.4132ZM618.993 72.3802L618.789 73.5442C622.111 74.1264 625.323 75.3433 628.43 77.2076L629.038 76.1942L629.646 75.1808C626.307 73.1773 622.823 71.8515 619.197 71.2161L618.993 72.3802ZM629.038 76.1942L628.435 77.2105C631.483 79.0192 634.049 81.7687 636.114 85.5203L637.15 84.9504L638.185 84.3805C635.953 80.325 633.111 77.237 629.641 75.1779L629.038 76.1942ZM637.15 84.9504L636.114 85.5203C638.132 89.1862 639.191 94.1948 639.191 100.636H640.373H641.555C641.555 93.9705 640.465 88.5217 638.185 84.3805L637.15 84.9504ZM640.373 100.636H639.191V155H640.373H641.555V100.636H640.373ZM640.373 155V153.818H627.695V155V156.182H640.373V155ZM627.695 155H628.877V143.826H627.695H626.513V155H627.695ZM627.695 143.826V142.645H627.051V143.826V145.008H627.695V143.826ZM627.051 143.826L625.985 143.315C625.201 144.949 623.861 146.76 621.91 148.746L622.753 149.574L623.596 150.403C625.656 148.306 627.182 146.285 628.116 144.338L627.051 143.826ZM622.753 149.574L621.91 148.746C620.037 150.653 617.508 152.312 614.282 153.699L614.749 154.785L615.216 155.871C618.651 154.393 621.459 152.578 623.596 150.403L622.753 149.574ZM614.749 154.785L614.282 153.699C611.138 155.052 607.242 155.752 602.555 155.752V156.934V158.116C607.465 158.116 611.698 157.384 615.216 155.871L614.749 154.785ZM604.489 145.545V146.727C609.655 146.727 614.095 145.712 617.754 143.616L617.166 142.591L616.579 141.565C613.361 143.409 609.35 144.364 604.489 144.364V145.545ZM617.166 142.591L617.749 143.619C621.388 141.556 624.167 138.867 626.039 135.543L625.009 134.963L623.98 134.383C622.342 137.29 619.893 139.686 616.583 141.563L617.166 142.591ZM625.009 134.963L626.034 135.552C627.923 132.265 628.877 128.786 628.877 125.132H627.695H626.513C626.513 128.354 625.677 131.429 623.985 134.374L625.009 134.963ZM627.695 125.132H628.877V113.529H627.695H626.513V125.132H627.695ZM627.695 113.529L626.787 112.772C626.666 112.918 626.397 113.139 625.877 113.399C625.37 113.652 624.689 113.911 623.816 114.168L624.15 115.302L624.483 116.435C625.437 116.155 626.26 115.85 626.935 115.513C627.597 115.182 628.187 114.784 628.603 114.285L627.695 113.529ZM624.15 115.302L623.831 114.164C622.091 114.651 620.057 115.09 617.724 115.479L617.918 116.645L618.113 117.81C620.507 117.411 622.627 116.955 624.468 116.44L624.15 115.302ZM617.918 116.645L617.739 115.477C615.42 115.833 613.155 116.154 610.945 116.439L611.096 117.612L611.247 118.784C613.478 118.496 615.761 118.172 618.098 117.813L617.918 116.645ZM611.096 117.612L610.961 116.437C608.774 116.689 606.994 116.904 605.624 117.084L605.778 118.256L605.932 119.428C607.284 119.25 609.049 119.036 611.231 118.786L611.096 117.612ZM605.778 118.256L605.625 117.084C602.261 117.523 599.105 118.238 596.16 119.231L596.538 120.351L596.916 121.471C599.701 120.531 602.705 119.849 605.931 119.428L605.778 118.256ZM596.538 120.351L596.169 119.229C593.178 120.213 590.705 121.726 588.794 123.793L589.662 124.595L590.53 125.397C592.129 123.668 594.24 122.352 596.908 121.474L596.538 120.351ZM589.662 124.595L588.794 123.793C586.823 125.929 585.902 128.787 585.902 132.223H587.084H588.266C588.266 129.213 589.064 126.986 590.531 125.397L589.662 124.595ZM587.084 132.223H585.902C585.902 136.965 587.682 140.682 591.299 143.187L591.972 142.215L592.645 141.243C589.744 139.235 588.266 136.291 588.266 132.223H587.084ZM591.972 142.215L591.312 143.195C594.848 145.578 599.267 146.727 604.489 146.727V145.545V144.364C599.611 144.364 595.685 143.292 592.633 141.235L591.972 142.215ZM665.231 155H664.05V156.182H665.231V155ZM665.231 44.9835V43.8016H664.05V44.9835H665.231ZM677.909 44.9835H679.091V43.8016H677.909V44.9835ZM677.909 85.595H676.727V86.7769H677.909V85.595ZM678.984 85.595V86.7769H679.625L679.974 86.2391L678.984 85.595ZM682.851 80.1157L681.904 79.409L681.902 79.4115L682.851 80.1157ZM690.05 74.0992L690.63 75.1289L690.633 75.1267L690.05 74.0992ZM721.207 76.624L721.854 75.6355L721.854 75.6355L721.207 76.624ZM733.616 136.682L734.687 137.181L734.688 137.179L733.616 136.682ZM721.26 151.508L721.911 152.495L721.916 152.492L721.26 151.508ZM690.318 154.087L689.739 155.117L689.748 155.122L690.318 154.087ZM682.959 148.017L682.013 148.726L682.019 148.733L682.959 148.017ZM678.984 142.322L679.988 141.7L679.642 141.14H678.984V142.322ZM677.479 142.322V141.14H676.298V142.322H677.479ZM677.479 155V156.182H678.661V155H677.479ZM680.434 130.236L679.33 130.659L679.332 130.661L680.434 130.236ZM688.438 141.355L687.72 142.294L687.726 142.299L688.438 141.355ZM714.599 141.14L715.331 142.069L715.332 142.068L714.599 141.14ZM722.657 129.752L721.553 129.332L721.551 129.336L722.657 129.752ZM722.711 98.0578L721.604 98.4719L721.608 98.4821L722.711 98.0578ZM714.707 86.938L713.981 87.8709L713.992 87.8789L714.707 86.938ZM688.331 86.7231L689.03 87.6756L689.037 87.6709L688.331 86.7231ZM680.38 97.5744L681.482 98.0015L681.483 97.9986L680.38 97.5744ZM665.231 155H666.413V44.9835H665.231H664.05V155H665.231ZM665.231 44.9835V46.1653H677.909V44.9835V43.8016H665.231V44.9835ZM677.909 44.9835H676.727V85.595H677.909H679.091V44.9835H677.909ZM677.909 85.595V86.7769H678.984V85.595V84.4132H677.909V85.595ZM678.984 85.595L679.974 86.2391C680.887 84.8356 682.16 83.031 683.8 80.8199L682.851 80.1157L681.902 79.4115C680.248 81.6411 678.943 83.4895 677.993 84.951L678.984 85.595ZM682.851 80.1157L683.799 80.8224C685.36 78.7289 687.62 76.8239 690.63 75.1289L690.05 74.0992L689.47 73.0694C686.248 74.8841 683.709 76.9901 681.904 79.409L682.851 80.1157ZM690.05 74.0992L690.633 75.1267C693.541 73.4745 697.576 72.595 702.835 72.595V71.4132V70.2314C697.35 70.2314 692.861 71.1426 689.466 73.0716L690.05 74.0992ZM702.835 71.4132V72.595C709.575 72.595 715.469 74.2768 720.559 77.6124L721.207 76.624L721.854 75.6355C716.343 72.0234 709.989 70.2314 702.835 70.2314V71.4132ZM721.207 76.624L720.559 77.6124C725.656 80.9528 729.655 85.6981 732.545 91.8961L733.616 91.3967L734.687 90.8972C731.632 84.346 727.358 79.2428 721.854 75.6355L721.207 76.624ZM733.616 91.3967L732.545 91.8961C735.429 98.0824 736.893 105.425 736.893 113.959H738.074H739.256C739.256 105.159 737.747 97.4603 734.687 90.8972L733.616 91.3967ZM738.074 113.959H736.893C736.893 122.565 735.429 129.962 732.544 136.185L733.616 136.682L734.688 137.179C737.748 130.58 739.256 122.829 739.256 113.959H738.074ZM733.616 136.682L732.545 136.182C729.653 142.383 725.669 147.149 720.605 150.525L721.26 151.508L721.916 152.492C727.38 148.849 731.633 143.73 734.687 137.181L733.616 136.682ZM721.26 151.508L720.609 150.522C715.556 153.857 709.716 155.537 703.05 155.537V156.719V157.901C710.135 157.901 716.436 156.107 721.911 152.495L721.26 151.508ZM703.05 156.719V155.537C697.864 155.537 693.839 154.676 690.888 153.051L690.318 154.087L689.748 155.122C693.172 157.007 697.635 157.901 703.05 157.901V156.719ZM690.318 154.087L690.897 153.056C687.811 151.323 685.496 149.397 683.899 147.3L682.959 148.017L682.019 148.733C683.859 151.148 686.45 153.269 689.739 155.117L690.318 154.087ZM682.959 148.017L683.904 147.307C682.195 145.029 680.893 143.162 679.988 141.7L678.984 142.322L677.979 142.944C678.936 144.491 680.284 146.42 682.013 148.726L682.959 148.017ZM678.984 142.322V141.14H677.479V142.322V143.504H678.984V142.322ZM677.479 142.322H676.298V155H677.479H678.661V142.322H677.479ZM677.479 155V153.818H665.231V155V156.182H677.479V155ZM677.694 113.744H676.512C676.512 120.089 677.442 125.734 679.33 130.659L680.434 130.236L681.537 129.812C679.773 125.211 678.876 119.862 678.876 113.744H677.694ZM680.434 130.236L679.332 130.661C681.225 135.561 684.013 139.457 687.72 142.294L688.438 141.355L689.156 140.417C685.844 137.882 683.296 134.364 681.536 129.81L680.434 130.236ZM688.438 141.355L687.726 142.299C691.472 145.127 696.03 146.512 701.331 146.512V145.331V144.149C696.46 144.149 692.424 142.884 689.15 140.412L688.438 141.355ZM701.331 145.331V146.512C706.848 146.512 711.542 145.054 715.331 142.069L714.599 141.14L713.868 140.212C710.566 142.814 706.414 144.149 701.331 144.149V145.331ZM714.599 141.14L715.332 142.068C719.101 139.09 721.906 135.109 723.763 130.168L722.657 129.752L721.551 129.336C719.827 133.922 717.26 137.532 713.867 140.213L714.599 141.14ZM722.657 129.752L723.762 130.172C725.646 125.221 726.579 119.74 726.579 113.744H725.397H724.215C724.215 119.494 723.321 124.685 721.553 129.332L722.657 129.752ZM725.397 113.744H726.579C726.579 107.82 725.664 102.445 723.814 97.6336L722.711 98.0578L721.608 98.4821C723.339 102.982 724.215 108.064 724.215 113.744H725.397ZM722.711 98.0578L723.818 97.6438C721.994 92.7677 719.201 88.869 715.422 85.9971L714.707 86.938L713.992 87.8789C717.375 90.4506 719.918 93.965 721.604 98.4719L722.711 98.0578ZM714.707 86.938L715.432 86.0051C711.641 83.0563 706.912 81.6198 701.331 81.6198V82.8016V83.9835C706.493 83.9835 710.682 85.3046 713.981 87.8709L714.707 86.938ZM701.331 82.8016V81.6198C695.966 81.6198 691.373 82.9833 687.625 85.7754L688.331 86.7231L689.037 87.6709C692.308 85.2344 696.381 83.9835 701.331 83.9835V82.8016ZM688.331 86.7231L687.631 85.7707C683.914 88.5017 681.137 92.3149 679.277 97.1501L680.38 97.5744L681.483 97.9986C683.205 93.5225 685.728 90.1016 689.03 87.6755L688.331 86.7231ZM680.38 97.5744L679.278 97.1473C677.424 101.932 676.512 107.472 676.512 113.744H677.694H678.876C678.876 107.696 679.755 102.456 681.482 98.0015L680.38 97.5744ZM770.145 44.9835H771.326V43.8016H770.145V44.9835ZM770.145 155V156.182H771.326V155H770.145ZM757.467 155H756.285V156.182H757.467V155ZM757.467 44.9835V43.8016H756.285V44.9835H757.467ZM770.145 44.9835H768.963V155H770.145H771.326V44.9835H770.145ZM770.145 155V153.818H757.467V155V156.182H770.145V155ZM757.467 155H758.649V44.9835H757.467H756.285V155H757.467ZM757.467 44.9835V46.1653H770.145V44.9835V43.8016H757.467V44.9835ZM807.385 151.455L806.764 152.46L806.771 152.464L807.385 151.455ZM794.117 136.628L793.053 137.142L793.056 137.149L794.117 136.628ZM794.117 92.0413L793.052 91.5293L793.05 91.5318L794.117 92.0413ZM807.117 76.8926L807.762 77.8827L807.764 77.8817L807.117 76.8926ZM839.402 73.562L839.784 72.4437L839.784 72.4437L839.402 73.562ZM850.844 80.5455L850.036 81.4076L850.041 81.4121L850.844 80.5455ZM859.063 93.2231L860.165 92.7959L860.165 92.7959L859.063 93.2231ZM862.125 118.041V119.223H863.307V118.041H862.125ZM798.522 118.041H797.34V119.223H798.522V118.041ZM798.522 107.083V105.901H797.34V107.083H798.522ZM849.232 107.083V108.264H850.414V107.083H849.232ZM846.439 94.6198L845.382 95.1484L845.386 95.1566L846.439 94.6198ZM838.596 85.9711L837.968 86.9721L837.973 86.975L838.596 85.9711ZM813.563 86.562L814.225 87.5409L814.227 87.5394L813.563 86.562ZM805.129 96.2314L804.07 95.7067L804.07 95.7067L805.129 96.2314ZM805.398 132.169L804.339 132.694L804.344 132.705L805.398 132.169ZM814.476 142L813.881 143.021L813.888 143.025L814.476 142ZM836.985 143.934L837.372 145.051L837.38 145.048L836.985 143.934ZM844.022 139.636L844.842 140.487L844.85 140.48L844.022 139.636ZM848.588 132.438L848.907 131.3L847.862 131.007L847.481 132.023L848.588 132.438ZM860.836 135.876L861.965 136.226L862.324 135.066L861.155 134.738L860.836 135.876ZM854.336 146.835L855.181 147.661L855.186 147.656L854.336 146.835ZM843.055 154.14L843.478 155.244L843.486 155.241L843.055 154.14ZM827.96 156.719V155.537C820.187 155.537 813.55 153.823 808 150.445L807.385 151.455L806.771 152.464C812.753 156.105 819.832 157.901 827.96 157.901V156.719ZM807.385 151.455L808.007 150.45C802.475 147.027 798.2 142.256 795.177 136.107L794.117 136.628L793.056 137.149C796.265 143.677 800.835 148.792 806.764 152.46L807.385 151.455ZM794.117 136.628L795.181 136.114C792.192 129.928 790.679 122.696 790.679 114.388H789.497H788.315C788.315 122.984 789.882 130.579 793.053 137.142L794.117 136.628ZM789.497 114.388H790.679C790.679 106.081 792.192 98.8115 795.183 92.5508L794.117 92.0413L793.05 91.5318C789.882 98.1637 788.315 105.792 788.315 114.388H789.497ZM794.117 92.0413L795.182 92.5533C798.212 86.2488 802.407 81.3718 807.762 77.8827L807.117 76.8926L806.472 75.9024C800.724 79.6475 796.253 84.8697 793.052 91.5293L794.117 92.0413ZM807.117 76.8926L807.764 77.8817C813.136 74.3688 819.424 72.595 826.671 72.595V71.4132V70.2314C819.019 70.2314 812.271 72.1105 806.47 75.9034L807.117 76.8926ZM826.671 71.4132V72.595C830.834 72.595 834.949 73.2885 839.02 74.6802L839.402 73.562L839.784 72.4437C835.475 70.9704 831.102 70.2314 826.671 70.2314V71.4132ZM839.402 73.562L839.02 74.6802C843.041 76.0551 846.712 78.2916 850.036 81.4076L850.844 80.5455L851.652 79.6833C848.1 76.353 844.143 73.9338 839.784 72.4437L839.402 73.562ZM850.844 80.5455L850.041 81.4121C853.323 84.4551 855.972 88.5194 857.961 93.6504L859.063 93.2231L860.165 92.7959C858.072 87.3979 855.241 83.0104 851.648 79.6788L850.844 80.5455ZM859.063 93.2231L857.961 93.6504C859.934 98.7389 860.943 105.066 860.943 112.669H862.125H863.307C863.307 104.873 862.275 98.2363 860.165 92.7959L859.063 93.2231ZM862.125 112.669H860.943V118.041H862.125H863.307V112.669H862.125ZM862.125 118.041V116.86H798.522V118.041V119.223H862.125V118.041ZM798.522 118.041H799.704V107.083H798.522H797.34V118.041H798.522ZM798.522 107.083V108.264H849.232V107.083V105.901H798.522V107.083ZM849.232 107.083H850.414C850.414 102.266 849.45 97.9235 847.492 94.0831L846.439 94.6198L845.386 95.1566C847.153 98.622 848.051 102.588 848.051 107.083H849.232ZM846.439 94.6198L847.496 94.0913C845.574 90.247 842.811 87.1978 839.22 84.9671L838.596 85.9711L837.973 86.975C841.185 88.9703 843.651 91.6869 845.382 95.1484L846.439 94.6198ZM838.596 85.9711L839.224 84.9701C835.642 82.7218 831.442 81.6198 826.671 81.6198V82.8016V83.9835C831.067 83.9835 834.817 84.9945 837.968 86.9721L838.596 85.9711ZM826.671 82.8016V81.6198C821.416 81.6198 816.809 82.9273 812.899 85.5845L813.563 86.562L814.227 87.5394C817.695 85.1828 821.825 83.9835 826.671 83.9835V82.8016ZM813.563 86.562L812.901 85.5831C809.078 88.1694 806.13 91.5495 804.07 95.7067L805.129 96.2314L806.188 96.7561C808.068 92.9629 810.743 89.8967 814.225 87.5409L813.563 86.562ZM805.129 96.2314L804.07 95.7067C802.018 99.8492 800.993 104.291 800.993 109.017H802.175H803.356C803.356 104.646 804.301 100.564 806.188 96.7561L805.129 96.2314ZM802.175 109.017H800.993V116.322H802.175H803.356V109.017H802.175ZM802.175 116.322H800.993C800.993 122.685 802.089 128.158 804.339 132.694L805.398 132.169L806.457 131.644C804.409 127.514 803.356 122.422 803.356 116.322H802.175ZM805.398 132.169L804.344 132.705C806.623 137.189 809.802 140.641 813.881 143.021L814.476 142L815.072 140.979C811.415 138.846 808.541 135.745 806.451 131.634L805.398 132.169ZM814.476 142L813.888 143.025C817.96 145.363 822.663 146.512 827.96 146.512V145.331V144.149C823.014 144.149 818.728 143.078 815.065 140.975L814.476 142ZM827.96 145.331V146.512C831.4 146.512 834.542 146.031 837.372 145.051L836.985 143.934L836.597 142.817C834.055 143.699 831.181 144.149 827.96 144.149V145.331ZM836.985 143.934L837.38 145.048C840.251 144.027 842.744 142.509 844.842 140.487L844.022 139.636L843.202 138.785C841.36 140.56 839.161 141.906 836.589 142.82L836.985 143.934ZM844.022 139.636L844.85 140.48C846.955 138.412 848.566 135.862 849.694 132.853L848.588 132.438L847.481 132.023C846.461 134.744 845.028 136.992 843.194 138.793L844.022 139.636ZM848.588 132.438L848.268 133.576L860.516 137.014L860.836 135.876L861.155 134.738L848.907 131.3L848.588 132.438ZM860.836 135.876L859.707 135.526C858.473 139.502 856.402 142.994 853.486 146.014L854.336 146.835L855.186 147.656C858.357 144.372 860.62 140.558 861.965 136.226L860.836 135.876ZM854.336 146.835L853.49 146.009C850.575 148.993 846.961 151.34 842.623 153.04L843.055 154.14L843.486 155.241C848.102 153.431 852.008 150.908 855.181 147.661L854.336 146.835ZM843.055 154.14L842.631 153.037C838.31 154.697 833.425 155.537 827.96 155.537V156.719V157.901C833.668 157.901 838.846 157.023 843.478 155.244L843.055 154.14ZM887.642 155V156.182H888.476L888.755 155.395L887.642 155ZM873.675 155L872.565 154.593L871.982 156.182H873.675V155ZM914.071 44.9835V43.8016H913.246L912.962 44.5761L914.071 44.9835ZM927.823 44.9835L928.933 44.5761L928.648 43.8016H927.823V44.9835ZM968.22 155V156.182H969.913L969.329 154.593L968.22 155ZM954.253 155L953.139 155.395L953.419 156.182H954.253V155ZM921.377 62.3884L922.491 61.9931L922.212 61.2066H921.377V62.3884ZM920.518 62.3884V61.2066H919.683L919.404 61.9931L920.518 62.3884ZM892.799 112.025V110.843H891.617V112.025H892.799ZM949.096 112.025H950.278V110.843H949.096V112.025ZM949.096 123.843V125.025H950.278V123.843H949.096ZM892.799 123.843H891.617V125.025H892.799V123.843ZM887.642 155V153.818H873.675V155V156.182H887.642V155ZM873.675 155L874.784 155.407L915.181 45.3908L914.071 44.9835L912.962 44.5761L872.565 154.593L873.675 155ZM914.071 44.9835V46.1653H927.823V44.9835V43.8016H914.071V44.9835ZM927.823 44.9835L926.714 45.3908L967.111 155.407L968.22 155L969.329 154.593L928.933 44.5761L927.823 44.9835ZM968.22 155V153.818H954.253V155V156.182H968.22V155ZM954.253 155L955.367 154.605L922.491 61.9931L921.377 62.3884L920.263 62.7838L953.139 155.395L954.253 155ZM921.377 62.3884V61.2066H920.518V62.3884V63.5702H921.377V62.3884ZM920.518 62.3884L919.404 61.9931L886.528 154.605L887.642 155L888.755 155.395L921.631 62.7838L920.518 62.3884ZM892.799 112.025V113.207H949.096V112.025V110.843H892.799V112.025ZM949.096 112.025H947.914V123.843H949.096H950.278V112.025H949.096ZM949.096 123.843V122.661H892.799V123.843V125.025H949.096V123.843ZM892.799 123.843H893.98V112.025H892.799H891.617V123.843H892.799ZM998.679 44.9835H999.861V43.8016H998.679V44.9835ZM998.679 155V156.182H999.861V155H998.679ZM985.356 155H984.175V156.182H985.356V155ZM985.356 44.9835V43.8016H984.175V44.9835H985.356ZM998.679 44.9835H997.497V155H998.679H999.861V44.9835H998.679ZM998.679 155V153.818H985.356V155V156.182H998.679V155ZM985.356 155H986.538V44.9835H985.356H984.175V155H985.356ZM985.356 44.9835V46.1653H998.679V44.9835V43.8016H985.356V44.9835Z" fill="black" fill-opacity="0.2" mask="url(#path-8-outside-1_66_5528)"/>
</svg>
