<svg width="247" height="250" viewBox="0 0 247 250" fill="none" xmlns="http://www.w3.org/2000/svg">
<path d="M121.159 146.46C119.781 146.746 118.353 146.897 116.89 146.897C115.425 146.897 113.996 146.747 112.616 146.46H121.159ZM218.812 146.46C217.824 146.603 216.813 146.679 215.785 146.679C214.758 146.679 213.748 146.603 212.76 146.46H218.812ZM131.814 142.305C130.645 142.933 129.471 143.521 128.291 144.054H106.36C105.469 143.533 104.621 142.947 103.82 142.305H131.814ZM228.579 142.305C227.744 142.952 226.859 143.537 225.931 144.054H204.885C203.676 143.525 202.475 142.936 201.278 142.305H228.579ZM138.844 138.146C137.899 138.738 136.955 139.326 136.008 139.897H101.287C100.79 139.34 100.322 138.756 99.8857 138.146H138.844ZM232.631 138.146C232.183 138.756 231.703 139.341 231.192 139.897H197.03C196.075 139.326 195.122 138.74 194.17 138.146H232.631ZM145.502 133.989C144.558 134.562 143.614 135.148 142.672 135.739H98.3994C98.0995 135.171 97.8247 134.587 97.5771 133.989H145.502ZM235.007 133.989C234.751 134.587 234.469 135.171 234.161 135.739H190.321C189.376 135.148 188.431 134.562 187.484 133.989H235.007ZM153.144 129.833C151.979 130.369 150.821 130.957 149.666 131.583H96.75C96.5914 131.009 96.4564 130.426 96.3467 129.833H153.144ZM236.286 129.833C236.17 130.426 236.03 131.009 235.864 131.583H183.312C182.155 130.957 180.995 130.369 179.829 129.833H236.286ZM236.68 125.784C236.68 126.337 236.658 126.884 236.616 127.426H173.015C171.215 127.006 169.396 126.769 167.55 126.769H165.418C163.574 126.769 161.756 127.006 159.957 127.426H96.0449C96.0133 126.956 95.9951 126.481 95.9951 126.003C95.9951 125.894 95.9974 125.785 95.999 125.676H236.679C236.679 125.712 236.68 125.748 236.68 125.784ZM155.791 121.519C157.593 121.936 159.418 122.174 161.274 122.174H171.101C172.957 122.174 174.782 121.936 176.583 121.519H236.243C236.362 122.094 236.457 122.677 236.528 123.269H96.1738C96.2512 122.677 96.3537 122.093 96.4795 121.519H155.791ZM145.355 117.361C146.535 117.984 147.718 118.574 148.908 119.112H97.1592C97.3675 118.516 97.6019 117.932 97.8613 117.361H145.355ZM234.911 117.361C235.163 117.932 235.391 118.516 235.592 119.112H183.458C184.646 118.574 185.826 117.984 187.003 117.361H234.911ZM138.022 113.204C139.024 113.79 140.028 114.375 141.03 114.954H99.1543C99.5319 114.349 99.9394 113.765 100.375 113.204H138.022ZM232.468 113.204C232.892 113.766 233.29 114.35 233.657 114.954H191.315C192.313 114.375 193.31 113.79 194.307 113.204H232.468ZM130.526 109.048C131.63 109.601 132.729 110.189 133.825 110.798H102.561C103.227 110.17 103.934 109.585 104.679 109.048H130.526ZM228.296 109.048C229.016 109.587 229.699 110.172 230.343 110.798H198.464C199.546 110.19 200.632 109.604 201.721 109.048H228.296ZM116.89 105.108C118.642 105.108 120.345 105.325 121.972 105.731C122.977 105.983 123.976 106.289 124.968 106.641H109.027C111.454 105.654 114.108 105.108 116.89 105.108ZM215.785 104.89C218.766 104.89 221.6 105.516 224.165 106.641H207.104C208.307 106.192 209.517 105.806 210.739 105.503C212.355 105.102 214.045 104.89 215.785 104.89Z" fill="black"/>
<circle cx="126.269" cy="34.4116" r="24.3327" transform="rotate(-45 126.269 34.4116)" fill="black"/>
<circle cx="40.2047" cy="124.406" r="24.3327" transform="rotate(-45 40.2047 124.406)" fill="black"/>
<circle cx="126.269" cy="214.609" r="24.3327" transform="rotate(-45 126.269 214.609)" fill="black"/>
<path d="M154.579 61.6844C164.081 52.1824 179.488 52.1823 188.99 61.6844C198.493 71.1869 198.493 86.594 188.99 96.0965C179.488 105.599 164.082 105.599 154.579 96.0965V96.0965C148.017 89.5348 140.618 81.7186 131.339 81.7186H120.373C111.094 81.7186 103.694 89.5347 97.1327 96.0965V96.0965C87.6302 105.599 72.2231 105.599 62.7206 96.0965C53.2182 86.594 53.2181 71.1869 62.7206 61.6844C72.2231 52.1821 87.6303 52.182 97.1327 61.6844V61.6844C103.924 68.4758 111.532 76.7537 121.137 76.7537H130.573C140.178 76.7537 147.787 68.476 154.579 61.6844V61.6844Z" fill="black"/>
<path d="M155.258 151.739C164.76 142.237 180.167 142.237 189.67 151.739C199.172 161.242 199.172 176.649 189.67 186.151C180.167 195.654 164.76 195.654 155.258 186.151V186.151C148.696 179.59 141.297 171.773 132.017 171.773H121.053C111.773 171.773 104.374 179.59 97.8124 186.151V186.151C88.3099 195.654 72.9029 195.654 63.4003 186.151C53.8978 176.649 53.8978 161.242 63.4003 151.739C72.9029 142.237 88.3099 142.237 97.8124 151.739V151.739C104.604 158.53 112.212 166.808 121.816 166.808H131.253C140.857 166.808 148.466 158.53 155.258 151.739V151.739Z" fill="black"/>
</svg>
