<?xml version="1.0" encoding="UTF-8"?>
<svg version="1.1" xmlns="http://www.w3.org/2000/svg" width="3154" height="1164">
<path d="M0 0 C0.96626312 -0.00696899 1.93252625 -0.01393799 2.92807007 -0.02111816 C6.04063316 -0.03843978 9.15301567 -0.04484136 12.265625 -0.046875 C13.86516022 -0.04838562 13.86516022 -0.04838562 15.49700928 -0.04992676 C65.30718892 -0.01818447 124.06742036 5.41612461 161.515625 42.203125 C162.34964844 43.01265625 163.18367188 43.8221875 164.04296875 44.65625 C185.27556213 66.51044472 188.98340168 95.13887374 188.91625977 124.30517578 C188.92201523 126.58248248 188.92910326 128.85978613 188.93740845 131.13708496 C188.95243084 136.01116893 188.95830357 140.885144 188.95688057 145.75925064 C188.95482915 153.4983236 188.97453615 161.23725289 188.99705505 168.97628784 C189.02657011 179.85511947 189.04720986 190.73392816 189.05932617 201.61279297 C189.06009566 202.30083291 189.06086515 202.98887284 189.06165796 203.69776247 C189.06475867 206.48365906 189.06784149 209.26955566 189.070898 212.05545229 C189.0794023 219.69305841 189.0903137 227.33066032 189.10229492 234.96826172 C189.10336294 235.65119888 189.10443096 236.33413604 189.10553134 237.03776826 C189.12377173 248.52053061 189.14989219 260.00326377 189.18042606 271.48599994 C189.19691296 277.90363216 189.20902901 284.32121042 189.21066475 290.7388649 C188.0977248 349.08543821 188.0977248 349.08543821 200.24609375 405.68359375 C201.515625 409.203125 201.515625 409.203125 202.515625 413.203125 C165.555625 413.203125 128.595625 413.203125 90.515625 413.203125 C87.13887943 404.19847015 87.13887943 404.19847015 86.41796875 400.87109375 C86.2571582 400.14003418 86.09634766 399.40897461 85.93066406 398.65576172 C85.69428223 397.53451904 85.69428223 397.53451904 85.453125 396.390625 C85.19934082 395.21910889 85.19934082 395.21910889 84.94042969 394.02392578 C83.6716456 388.10660036 82.5148716 382.17230865 81.515625 376.203125 C80.81179688 376.88117188 80.10796875 377.55921875 79.3828125 378.2578125 C43.3270711 412.48441483 -6.05866703 425.022031 -54.86328125 424.359375 C-88.56907734 423.47721676 -121.3646207 416.02860967 -148.484375 395.203125 C-149.92683594 394.10484375 -149.92683594 394.10484375 -151.3984375 392.984375 C-156.62790567 388.91864763 -156.62790567 388.91864763 -158.484375 387.203125 C-158.484375 386.543125 -158.484375 385.883125 -158.484375 385.203125 C-159.144375 385.203125 -159.804375 385.203125 -160.484375 385.203125 C-183.47947196 359.81723346 -190.82696263 326.66237689 -189.484375 293.203125 C-187.75384473 265.06805221 -178.06950909 241.55055472 -158.484375 221.203125 C-157.91203125 220.55601562 -157.3396875 219.90890625 -156.75 219.2421875 C-124.01857981 183.30511276 -60.82468823 180.43788101 -15.95391846 175.39035034 C31.71868908 172.29248737 31.71868908 172.29248737 71.03125 149.4765625 C73.21921739 146.12551771 74.40635193 143.05295508 75.515625 139.203125 C75.78826172 138.34460938 75.78826172 138.34460938 76.06640625 137.46875 C78.47569473 125.31755592 76.93888998 109.99242702 70.8515625 99.16796875 C61.76228492 85.79982073 49.93824841 80.73709864 34.515625 77.203125 C6.61198742 72.4814754 -22.06079343 74.56993673 -46.234375 89.953125 C-58.74189123 102.46064123 -62.41372369 118.31454279 -65.484375 135.203125 C-102.114375 135.203125 -138.744375 135.203125 -176.484375 135.203125 C-176.484375 128.66165771 -176.39855772 122.90904246 -175.296875 116.578125 C-175.16450439 115.80887695 -175.03213379 115.03962891 -174.89575195 114.24707031 C-168.88699654 81.3591715 -150.90486238 53.33212565 -123.484375 34.203125 C-93.00069779 13.76073592 -57.64041884 4.81063542 -21.484375 1.203125 C-20.63759689 1.11579605 -19.79081879 1.0284671 -18.91838074 0.93849182 C-12.59959975 0.31887923 -6.34733068 0.03114693 0 0 Z M66.8125 223.28125 C57.27060243 227.84026128 46.87347757 229.94073964 36.515625 231.703125 C35.31574951 231.91396729 34.11587402 232.12480957 32.87963867 232.34204102 C24.22081053 233.83083076 15.54065327 235.01789759 6.828125 236.140625 C-19.92868476 239.65165893 -50.82336699 244.79501289 -69.30859375 266.328125 C-77.8499861 278.03219916 -79.34622805 292.74059767 -77.859375 306.765625 C-75.79719819 319.86651299 -70.77241987 329.73475379 -60.20703125 337.98046875 C-37.94970592 352.53475969 -7.76500246 351.32896094 17.34375 346.4609375 C35.96866092 342.05797739 52.89492748 332.31653218 63.546875 316.11328125 C77.35695562 293.70690015 77.97162523 269.64137322 77.703125 244.078125 C77.68804095 241.55860181 77.67435917 239.03906982 77.66210938 236.51953125 C77.62942216 230.41386687 77.57952189 224.30853847 77.515625 218.203125 C74.44218793 218.203125 69.48151111 221.86824412 66.8125 223.28125 Z " fill="#FFFFFF" transform="translate(2874.484375,439.796875)"/>
<path d="M0 0 C0.72215698 -0.00067474 1.44431396 -0.00134949 2.18835449 -0.00204468 C52.13102168 0.0715177 97.28276398 16.55673166 134.3125 50.25 C135.05757812 50.92289062 135.80265625 51.59578125 136.5703125 52.2890625 C173.72619352 87.6397995 191.88712397 141.3873329 196.3125 191.25 C196.42335938 192.44753906 196.53421875 193.64507813 196.6484375 194.87890625 C197.23563762 202.23477803 197.40994559 209.56079081 197.4375 216.9375 C197.44217285 217.78022461 197.4468457 218.62294922 197.45166016 219.49121094 C197.43483971 226.1702212 196.87207872 232.5350554 196.3125 239.25 C100.9425 239.25 5.5725 239.25 -92.6875 239.25 C-91.43068111 255.2856069 -91.43068111 255.2856069 -88.5625 270.9375 C-88.24708252 272.21620972 -88.24708252 272.21620972 -87.92529297 273.52075195 C-84.55328413 286.38323796 -79.18247409 298.9295102 -70.6875 309.25 C-69.99914063 310.09949219 -69.31078125 310.94898438 -68.6015625 311.82421875 C-52.93534596 330.21140974 -30.33318757 336.87119292 -7.05859375 338.93359375 C21.36610303 341.11723756 48.42333901 333.64712684 71.3125 316.25 C80.1199619 307.90608872 85.46554538 299.10863 91.3125 288.25 C123.6525 288.25 155.9925 288.25 189.3125 288.25 C180.84301369 316.48162103 167.75821624 342.94748404 148.3125 365.25 C147.88855957 365.74097168 147.46461914 366.23194336 147.02783203 366.73779297 C140.70792618 374.01826909 134.0167308 380.41753534 126.3125 386.25 C125.30058594 387.03890625 124.28867188 387.8278125 123.24609375 388.640625 C94.22428923 410.72357195 57.7132529 420.88915476 21.75 423.375 C20.60853516 423.46136719 19.46707031 423.54773438 18.29101562 423.63671875 C-33.43723229 427.35902557 -93.61338822 413.8430817 -133.875 379.4375 C-177.62929096 341.05632531 -200.12740084 288.70724866 -204.12109375 231.20678711 C-207.87168807 171.60331328 -192.22582242 111.99740915 -152.6875 66.25 C-151.99398438 65.43402344 -151.30046875 64.61804688 -150.5859375 63.77734375 C-137.70618249 49.0007521 -122.65257385 37.04883282 -105.6875 27.25 C-105.08405762 26.89437988 -104.48061523 26.53875977 -103.85888672 26.17236328 C-72.65563763 7.95236865 -35.85833498 0.030364 0 0 Z M-45.6875 92.25 C-47.08742188 92.87841797 -47.08742188 92.87841797 -48.515625 93.51953125 C-56.43546023 97.44550671 -62.50247364 103.06497364 -68.6875 109.25 C-69.45449219 110.01699219 -70.22148437 110.78398438 -71.01171875 111.57421875 C-85.29931554 126.73267859 -91.1351053 148.06886891 -92.6875 168.25 C-33.9475 168.25 24.7925 168.25 85.3125 168.25 C82.45501323 154.56812255 82.45501323 154.56812255 78.625 141.1875 C78.38007813 140.46127441 78.13515625 139.73504883 77.8828125 138.98681641 C73.90118326 127.72900252 68.19271892 116.28342169 60.3125 107.25 C59.6525 107.25 58.9925 107.25 58.3125 107.25 C58.09078125 106.68023438 57.8690625 106.11046875 57.640625 105.5234375 C51.86338965 95.63416992 37.25249879 90.3393739 27.00390625 87.25390625 C3.36211865 81.08520012 -23.34176645 82.1481075 -45.6875 92.25 Z " fill="#FFFFFF" transform="translate(2168.6875,439.75)"/>
<path d="M0 0 C39.27 0 78.54 0 119 0 C124.94 18.15 130.88 36.3 137 55 C141.75158903 69.30595184 141.75158903 69.30595184 146.52835083 83.60336304 C148.73611036 90.19355088 150.93735511 96.78591219 153.13671875 103.37890625 C153.46106305 104.35111587 153.46106305 104.35111587 153.79195976 105.34296608 C157.69965682 117.06060024 161.53007821 128.80188181 165.3276062 140.55557251 C169.7317649 154.17153013 174.2378273 167.75289795 178.765625 181.328125 C179.07154509 182.24537668 179.37746517 183.16262836 179.69265556 184.10767555 C182.81287054 193.46164216 185.93643096 202.81448602 189.06457806 212.16580296 C195.83405208 232.40522931 202.54376091 252.65805026 209 273 C212.37513604 265.01271697 215.06933223 256.85555829 217.68359375 248.59375 C218.13581938 247.1741332 218.58837358 245.75462103 219.04122925 244.33520508 C220.25785393 240.51871534 221.46996044 236.70080478 222.68118668 232.88259888 C223.95632203 228.86556523 225.23557656 224.84984374 226.5144043 220.83398438 C228.63059615 214.18688905 230.74433296 207.53901763 232.85644531 200.890625 C235.60840301 192.2286626 238.36672638 183.56874025 241.12752342 174.90959167 C242.9713309 169.12609672 244.81397079 163.3422296 246.6566658 157.55838013 C247.29858054 155.54368717 247.9406524 153.52904434 248.58273315 151.5144043 C253.60829181 135.7432943 258.59333813 119.96032395 263.5091095 104.15466309 C266.24305386 95.37649385 269.04002095 86.62095767 271.875 77.875 C272.25402214 76.70460175 272.25402214 76.70460175 272.64070129 75.51055908 C273.21342017 73.74266063 273.7863874 71.97484263 274.359375 70.20703125 C276.27080678 64.29589083 278.15049828 58.37512304 280.015625 52.44921875 C280.27405182 51.62842834 280.53247864 50.80763794 280.79873657 49.9619751 C282.04847445 45.99043339 283.29545371 42.01805131 284.53857422 38.04443359 C288.54046763 25.30532756 292.7750903 12.6747291 297 0 C334.95 0 372.9 0 412 0 C411.31513848 3.42430759 410.65776488 6.22896372 409.49609375 9.4453125 C409.01692505 10.77695435 409.01692505 10.77695435 408.52807617 12.13549805 C408.16818604 13.12203369 407.8082959 14.10856934 407.4375 15.125 C407.04602783 16.20499268 406.65455566 17.28498535 406.2512207 18.39770508 C401.43994536 31.61898475 396.51145689 44.79724407 391.59567261 57.97991943 C386.31360394 72.14551505 381.06042868 86.32172581 375.8125 100.5 C374.09646849 105.135459 372.38030575 109.77086939 370.6640625 114.40625 C370.2540802 115.51357986 369.8440979 116.62090973 369.42169189 117.76179504 C365.93886593 127.16748552 362.448948 136.57052405 358.95455933 145.97192383 C355.21933745 156.02136565 351.4890266 166.07262001 347.76171875 176.125 C338.69033801 200.58926101 329.61548981 225.05212904 320.5 249.5 C309.63065356 278.65330843 298.81273629 307.82565997 288 337 C287.55102356 338.21137634 287.10204712 339.42275269 286.63946533 340.6708374 C284.05009263 347.65744134 281.46126015 354.64424518 278.87298584 361.6312561 C278.04402633 363.86890352 277.2149662 366.10651366 276.38580322 368.34408569 C272.03252157 380.09202275 267.68672103 391.84260692 263.36328125 403.6015625 C259.26607396 414.74330008 255.14749257 425.87688123 251 437 C250.72605408 437.73627625 250.45210815 438.47255249 250.16986084 439.23114014 C241.70347141 461.96504846 232.57392228 483.18700984 217 502 C215.80890625 503.44826172 215.80890625 503.44826172 214.59375 504.92578125 C193.96887938 528.85498853 164.3603947 538.06361779 134 542 C133.26579834 542.09716309 132.53159668 542.19432617 131.77514648 542.29443359 C123.76938021 543.22898495 115.7368535 543.23990523 107.6875 543.25 C106.90762726 543.25200409 106.12775452 543.25400818 105.32424927 543.256073 C90.99145577 543.26491628 76.73416742 542.53835026 62.4375 541.5625 C61.44293793 541.4951062 60.44837585 541.4277124 59.42367554 541.35827637 C56.59314088 541.16325512 53.76327892 540.96086266 50.93359375 540.75390625 C50.08730408 540.69342606 49.2410144 540.63294586 48.36907959 540.57063293 C47.19529755 540.48068306 47.19529755 540.48068306 45.99780273 540.38891602 C45.31886459 540.33784195 44.63992645 540.28676788 43.94041443 540.23414612 C42 540 42 540 38 539 C38 508.64 38 478.28 38 447 C54.83 448.485 54.83 448.485 72 450 C78.15656687 450.25915014 84.17228408 450.4715607 90.3125 450.4375 C91.68555706 450.45697715 93.05860418 450.47716727 94.43164062 450.49804688 C107.84582446 450.5690415 120.85067 447.39978302 130.99609375 438.1875 C135.50693704 433.37593382 138.45107659 428.05019182 141 422 C141.32097656 421.2884375 141.64195312 420.576875 141.97265625 419.84375 C150.32959276 397.76588982 139.37651133 373.74991872 131.46226501 353.37677002 C128.47818931 345.68179307 125.58806464 337.95195703 122.69760132 330.22143555 C121.41456079 326.790518 120.12910508 323.36050711 118.84376526 319.93045044 C117.86662054 317.32270567 116.88982075 314.71483191 115.91308594 312.10693359 C113.20321196 304.872217 110.49009582 297.63871663 107.77706909 290.40518188 C106.23013317 286.2805951 104.68344121 282.15591683 103.13671875 278.03125 C102.47314566 276.26171833 101.80957141 274.49218709 101.14599609 272.72265625 C4.70727539 15.55273437 4.70727539 15.55273437 3.84329224 13.23706055 C3.2759473 11.73202478 2.69816105 10.23088806 2.11056519 8.73364258 C0.92231899 5.68166207 0 3.30639671 0 0 Z " fill="#FFFFFF" transform="translate(1535,451)"/>
<path d="M0 0 C111.87 0 223.74 0 339 0 C339 84 339 84 328 96 C324.51598965 100.26228093 324.51598965 100.26228093 321.0546875 104.54296875 C318.75510146 107.29285396 316.28440753 109.75374943 313.69921875 112.23046875 C311.01198287 115.0289006 308.76436474 118.14678609 306.48046875 121.27734375 C305.99191406 121.84582031 305.50335937 122.41429687 305 123 C304.34 123 303.68 123 303 123 C302.66548828 123.81210937 302.66548828 123.81210937 302.32421875 124.640625 C300.57919306 127.74975631 298.24686543 130.1785332 295.8125 132.75 C294.81051284 133.82488262 293.80920995 134.90040352 292.80859375 135.9765625 C292.32374512 136.49637695 291.83889648 137.01619141 291.33935547 137.55175781 C289.64911801 139.37940794 288.00607471 141.24446681 286.375 143.125 C281.5815447 148.64888658 276.67369865 154.07188366 271.7421875 159.47265625 C267.95048646 163.6408851 264.2766953 167.85450202 260.75 172.25 C256.09341188 178.00946426 251.07165823 183.37948699 246.0078125 188.77734375 C243.1552359 191.82061941 240.3907379 194.92944134 237.6640625 198.0859375 C233.40767677 202.98178024 229.01961553 207.76351301 224.671875 212.578125 C217.95137062 220.03011285 211.35153557 227.57621648 204.8125 235.1875 C204.30098389 235.78208008 203.78946777 236.37666016 203.26245117 236.98925781 C202.7697876 237.56385742 202.27712402 238.13845703 201.76953125 238.73046875 C201.29596191 239.2826709 200.82239258 239.83487305 200.33447266 240.40380859 C199.10231787 241.8776154 197.92894404 243.4000365 196.76171875 244.92578125 C196.18035156 245.61027344 195.59898437 246.29476562 195 247 C194.34 247 193.68 247 193 247 C192.78472656 247.53367187 192.56945313 248.06734375 192.34765625 248.6171875 C190.50423156 251.87657608 187.99986627 254.4281177 185.4375 257.125 C181.81366093 260.76403407 181.81366093 260.76403407 179 265 C178.34 265 177.68 265 177 265 C176.78730469 265.53109375 176.57460937 266.0621875 176.35546875 266.609375 C174.47752402 269.92148502 171.91958177 272.50932368 169.3125 275.25 C168.21798673 276.41725351 167.12423255 277.58521929 166.03125 278.75390625 C165.24234375 279.59526123 165.24234375 279.59526123 164.4375 280.45361328 C162.13378503 282.9318284 159.92067669 285.48461939 157.70703125 288.04296875 C155.66366569 290.3855915 153.58319141 292.69273422 151.5 295 C148.79080809 298.0025731 146.0967312 301.01559045 143.4375 304.0625 C139.65194965 308.39867586 135.82415192 312.69782909 132 317 C205.26 317.33 278.52 317.66 354 318 C354 345.72 354 373.44 354 402 C231.9 402 109.8 402 -16 402 C-16 318 -16 318 -7 308 C-4.40118786 305.03005554 -4.40118786 305.03005554 -1.80859375 302.0546875 C0.24664777 299.71979109 2.34243033 297.42420466 4.4375 295.125 C8.30781949 290.85704495 11.8811714 286.41866382 15.37109375 281.8359375 C15.90863281 281.23007812 16.44617187 280.62421875 17 280 C17.66 280 18.32 280 19 280 C19.2475 279.443125 19.495 278.88625 19.75 278.3125 C21.22924818 275.57589087 22.93467439 273.32349131 25 271 C25.66 271 26.32 271 27 271 C27.22300781 270.45859375 27.44601562 269.9171875 27.67578125 269.359375 C29.42081352 266.25023196 31.75320612 263.82155227 34.1875 261.25 C35.18033112 260.18419294 36.17251794 259.11778533 37.1640625 258.05078125 C37.6477832 257.53209473 38.13150391 257.0134082 38.62988281 256.47900391 C40.47110229 254.49145801 42.27336685 252.47197841 44.0625 250.4375 C44.58972656 249.83808594 45.11695313 249.23867188 45.66015625 248.62109375 C47.1883997 246.82845565 47.1883997 246.82845565 49 244 C49.66 244 50.32 244 51 244 C51.33451172 243.18789063 51.33451172 243.18789063 51.67578125 242.359375 C53.42080601 239.25024535 55.75312436 236.82145461 58.1875 234.25 C59.1907951 233.17382081 60.1934003 232.09699802 61.1953125 231.01953125 C61.68032227 230.49955566 62.16533203 229.97958008 62.66503906 229.44384766 C64.33374478 227.63903317 65.95403121 225.79608953 67.5625 223.9375 C70.27778038 220.80099473 73.06704206 217.741316 75.875 214.6875 C79.14529473 211.10738788 82.28026617 207.47083763 85.3125 203.6875 C89.94653434 197.94228514 94.95317154 192.59392484 100 187.21484375 C102.80838799 184.21882639 105.52309884 181.15418724 108.203125 178.04296875 C110.08115847 175.90772635 112.00706315 173.82046095 113.94042969 171.73535156 C117.89637886 167.46701975 121.73375274 163.1698656 125.375 158.625 C129.98571639 152.89477513 134.97756638 147.56914922 140.00390625 142.20703125 C144.35863472 137.56011109 148.51218906 132.75613479 152.62890625 127.8984375 C157.85701185 121.74388723 163.15460249 115.69586843 168.6875 109.8125 C173.27498028 104.93237479 177.63615783 99.94394702 181.8046875 94.6953125 C184.77384121 91.04991026 187.90398953 87.53829768 191 84 C127.97 83.67 64.94 83.34 0 83 C0 55.61 0 28.22 0 0 Z " fill="#FFFFFF" transform="translate(1169,451)"/>
<path d="M0 0 C36.63 0 73.26 0 111 0 C111 39.93 111 79.86 111 121 C137.73 121 164.46 121 192 121 C192 145.42 192 169.84 192 195 C165.27 195 138.54 195 111 195 C111.06293415 222.399653 111.13816364 249.79918272 111.23571491 277.19873238 C111.28062069 289.92170507 111.3200474 302.64465009 111.34643555 315.36767578 C111.36945787 326.46109462 111.40290318 337.55442553 111.44870156 348.64777458 C111.47257662 354.51794403 111.49134285 360.38802671 111.49761391 366.25824356 C111.50369062 371.79205927 111.52378359 377.3256531 111.55427551 382.85938644 C111.5630144 384.88208725 111.566787 386.90481711 111.56500816 388.92753601 C111.08012645 410.05380332 111.08012645 410.05380332 119 429 C130.84876424 440.01682973 149.47341127 439.49289958 164.67089844 439.11083984 C169.41990063 438.88483911 174.13459739 438.32306299 178.84765625 437.71166992 C179.55019531 437.62119385 180.25273437 437.53071777 180.9765625 437.4375 C181.89042725 437.31181641 181.89042725 437.31181641 182.82275391 437.18359375 C185.8716277 436.92650101 188.94030589 437 192 437 C192 465.38 192 493.76 192 523 C186.03938694 524.7030323 181.04617674 525.59579346 174.96875 526.10546875 C173.48042664 526.23129585 173.48042664 526.23129585 171.96203613 526.35966492 C159.808791 527.28951154 147.64924732 527.33599629 135.46630859 527.31567383 C131.504605 527.31250368 127.54364393 527.33611831 123.58203125 527.36132812 C87.25458227 527.45221459 47.86261638 523.429543 20.18359375 497.38671875 C16.45564299 493.31198187 13.67821301 488.81073114 11 484 C10.61199219 483.32195312 10.22398437 482.64390625 9.82421875 481.9453125 C-0.33758246 463.03416122 -0.44170207 441.79050906 -0.34057617 420.91552734 C-0.33972818 418.43999746 -0.3402084 415.96446683 -0.34190369 413.48893738 C-0.34258218 408.19679411 -0.33419112 402.9047894 -0.31719017 397.61268234 C-0.2926271 389.96156265 -0.28497739 382.31049637 -0.2812262 374.65934153 C-0.27468857 362.24063711 -0.25480112 349.82199239 -0.22631836 337.40332031 C-0.19870768 325.35221654 -0.17750859 313.30112909 -0.16479492 301.25 C-0.16400675 300.50499313 -0.16321858 299.75998627 -0.16240653 298.99240343 C-0.15849092 295.25427307 -0.15469991 291.51614259 -0.15097082 287.77801204 C-0.11995879 256.8519558 -0.06470154 225.92600936 0 195 C-22.11 195 -44.22 195 -67 195 C-67 170.58 -67 146.16 -67 121 C-44.89 121 -22.78 121 0 121 C0 81.07 0 41.14 0 0 Z " fill="#FFFFFF" transform="translate(2459,330)"/>
<path d="M0 0 C1.43737706 -0.02806159 2.87493423 -0.04684998 4.3125 -0.0625 C5.51326172 -0.07990234 5.51326172 -0.07990234 6.73828125 -0.09765625 C11.51201681 0.04526996 16.24837595 0.5336184 21 1 C21.02187378 1.90371338 21.02187378 1.90371338 21.04418945 2.82568359 C21.95929035 36.90106621 29.52385093 68.55340836 49 97 C49.66902344 97.98355469 50.33804687 98.96710938 51.02734375 99.98046875 C76.40675821 135.94761439 113.90381173 158.36272671 156.89892578 166.63916016 C163.95043047 167.85019013 170.85262169 168.13429312 178 168 C178.39771606 167.19502075 178.39771606 167.19502075 178.8034668 166.3737793 C196.25520677 131.34758309 219.89807034 104.28491487 252 82 C252.93070313 81.35160156 253.86140625 80.70320313 254.8203125 80.03515625 C260.72588235 76 260.72588235 76 263 76 C264.5617377 78.57297782 266.09906742 81.15591462 267.625 83.75 C268.07101562 84.47960937 268.51703125 85.20921875 268.9765625 85.9609375 C269.3890625 86.66992188 269.8015625 87.37890625 270.2265625 88.109375 C270.61408691 88.75874023 271.00161133 89.40810547 271.40087891 90.07714844 C272 92 272 92 271.28369141 94.11987305 C269.36002916 96.93731751 266.62739629 98.35741942 263.75 100.0625 C223.79305231 124.90018437 196.3466481 166.2113374 185.52001953 211.74316406 C185.34841309 212.48791992 185.17680664 213.23267578 185 214 C184.83483887 214.70092773 184.66967773 215.40185547 184.49951172 216.12402344 C181.75754812 228.42457988 181.71476107 240.83490972 181.6875 253.375 C181.68382416 254.19029175 181.68014832 255.0055835 181.67636108 255.84558105 C181.6162898 281.39161548 186.87154348 306.88705185 198 330 C199.134375 329.65066406 200.26875 329.30132813 201.4375 328.94140625 C202.95823091 328.48143208 204.4790701 328.02181577 206 327.5625 C207.11568359 327.21735352 207.11568359 327.21735352 208.25390625 326.86523438 C213.17915388 325.38766009 217.88127871 324.5060554 223 324 C222.48050781 322.8140625 221.96101563 321.628125 221.42578125 320.40625 C213.64822309 302.45286647 208.90601497 285.35771814 206 266 C205.80277344 264.73027344 205.60554688 263.46054687 205.40234375 262.15234375 C199.80299157 214.94752673 215.23933059 166.28913401 244 129 C246.82986531 125.47562562 249.84359184 122.23372651 253 119 C253.92377441 118.02377686 253.92377441 118.02377686 254.86621094 117.02783203 C265.07558071 106.24968851 275.44494014 96.94519697 288 89 C288.61230469 88.60651367 289.22460938 88.21302734 289.85546875 87.80761719 C296.72932727 83.42610141 296.72932727 83.42610141 300 82 C304.29032625 83.43010875 305.27239857 86.5751801 307.25 90.375 C307.62640625 91.06078125 308.0028125 91.7465625 308.390625 92.453125 C309.34634963 94.25916345 310.18164663 96.12770669 311 98 C309.61687097 102.1493871 307.64742312 102.49102807 303.8125 104.5 C287.23232311 113.55867764 272.3433141 126.96910676 261 142 C260.60071289 142.52432617 260.20142578 143.04865234 259.79003906 143.58886719 C232.44579189 179.72767317 221.67053853 223.22591058 227.5234375 268.05151367 C230.17826895 286.11863146 236.42208331 302.46981499 244 319 C244.87398437 318.98428955 245.74796875 318.9685791 246.6484375 318.95239258 C285.30538019 318.35217668 322.53603143 322.58296119 357.16210938 341.03271484 C360.41358303 342.7439713 363.70938619 344.36556517 367 346 C365.73586702 348.44118791 364.46407987 350.87783192 363.1875 353.3125 C362.83107422 354.00279297 362.47464844 354.69308594 362.10742188 355.40429688 C361.75615234 356.07138672 361.40488281 356.73847656 361.04296875 357.42578125 C360.72352295 358.03848877 360.40407715 358.65119629 360.07495117 359.2824707 C358.91461076 361.13643272 357.59703203 362.51434256 356 364 C355.45287354 363.72849121 354.90574707 363.45698242 354.34204102 363.17724609 C342.44883017 357.30825638 330.65007812 352.00106025 318 348 C316.26943359 347.43345703 316.26943359 347.43345703 314.50390625 346.85546875 C270.10937684 333.15218626 219.99311733 339.73132061 179.046875 360.89794922 C167.94615114 366.87465097 157.76581053 374.05778062 148 382 C147.17822266 382.65935547 147.17822266 382.65935547 146.33984375 383.33203125 C134.13450663 393.15860197 124.35406694 404.48147212 115 417 C117.81288172 420.46613328 120.52514781 423.66653649 123.9375 426.5625 C124.56527344 427.10003906 125.19304687 427.63757813 125.83984375 428.19140625 C128.55606603 430.46556703 131.27694892 432.73401866 134 435 C134.6290625 434.0821875 135.258125 433.164375 135.90625 432.21875 C140.30407843 425.88408097 144.62650262 419.96527898 150.26953125 414.66015625 C152.22272013 412.85346662 152.22272013 412.85346662 154.5 409.9375 C181.2362161 378.52244608 226.79186382 359.9936938 267.07446289 356.19848633 C273.1679159 355.78506921 279.26959718 355.75526551 285.375 355.75 C286.08175873 355.74932526 286.78851746 355.74865051 287.51669312 355.74795532 C299.22921754 355.76564721 310.53831458 356.46586981 322 359 C322.78052734 359.17160645 323.56105469 359.34321289 324.36523438 359.52001953 C344.66474757 364.14067764 362.81781488 371.95216583 381 382 C381 385.18420845 380.63765561 385.96380963 379.03125 388.57421875 C378.62519531 389.24130859 378.21914063 389.90839844 377.80078125 390.59570312 C377.37152344 391.28599609 376.94226563 391.97628906 376.5 392.6875 C376.07074219 393.38939453 375.64148438 394.09128906 375.19921875 394.81445312 C374.13872072 396.54659991 373.07012602 398.27378482 372 400 C368.83151278 399.33480774 366.22880675 398.21575708 363.3515625 396.7421875 C344.89346056 387.47888842 326.53521832 380.72684206 306 378 C305.30406738 377.9064624 304.60813477 377.8129248 303.89111328 377.71655273 C262.80832844 372.6140292 218.82881742 384.70844217 186.14453125 409.96484375 C170.52070873 422.23951215 157.12999335 435.7790113 147 453 C147.60585938 453.86238281 148.21171875 454.72476562 148.8359375 455.61328125 C172.52982216 489.88607229 185.62010904 530.17709 185 572 C178.4 572 171.8 572 165 572 C164.22623633 568.90494533 163.80942177 566.41327514 163.60546875 563.28125 C160.86471411 524.99100022 149.13210648 489.22954264 125 459 C124.31679688 458.113125 123.63359375 457.22625 122.9296875 456.3125 C109.39248149 439.12874034 93.37634283 426.30442629 74.75097656 415.06933594 C73.29399602 414.17954581 71.85878835 413.25422339 70.4296875 412.3203125 C52.33468215 400.65628466 30.01988781 394.61092498 9 391 C7.81535156 390.79503906 6.63070312 390.59007812 5.41015625 390.37890625 C2.608804 389.90493183 -0.19379596 389.444185 -3 389 C-3.09796875 389.70382812 -3.1959375 390.40765625 -3.296875 391.1328125 C-4.53970726 399.33979102 -6.58185918 407.06474177 -9 415 C-8.25621094 415.01417969 -7.51242187 415.02835938 -6.74609375 415.04296875 C42.01840686 417.17317716 84.57192318 443.0317374 117 478 C124.35075938 486.3142392 130.55660549 495.32988048 136 505 C136.39574219 505.69722168 136.79148437 506.39444336 137.19921875 507.11279297 C146.4218803 523.518489 153.24638972 540.53048135 157 559 C157.2163208 560.05743408 157.2163208 560.05743408 157.43701172 561.13623047 C160.17017264 575.01109577 160.6670593 588.89020286 161 603 C154.07 603 147.14 603 140 603 C139.896875 599.9475 139.79375 596.895 139.6875 593.75 C137.71428099 549.51181447 120.32502758 510.2805318 89 479 C85.45693804 475.8243294 81.78655145 472.8790755 78 470 C77.12730469 469.32324219 76.25460937 468.64648438 75.35546875 467.94921875 C68.27442768 462.60992717 60.77966454 458.21471668 53 454 C52.02289062 453.46375 51.04578125 452.9275 50.0390625 452.375 C28.91588281 441.26362877 5.620884 436.603444 -18 435 C-18.24878906 435.82757812 -18.49757813 436.65515625 -18.75390625 437.5078125 C-32.18143885 475.13857785 -67.46674071 509.66497611 -102 528 C-103.50787377 525.40011448 -105.00645461 522.79559803 -106.5 520.1875 C-106.92925781 519.44951172 -107.35851562 518.71152344 -107.80078125 517.95117188 C-108.20683594 517.23896484 -108.61289062 516.52675781 -109.03125 515.79296875 C-109.40830078 515.1383667 -109.78535156 514.48376465 -110.17382812 513.80932617 C-111 512 -111 512 -111 509 C-108.53338683 507.24772777 -106.08826469 505.67851603 -103.5 504.125 C-62.40789611 478.47812783 -35.94452 437.47688504 -24.47998047 390.88671875 C-21.12926756 376.2259943 -19.08427053 360.04134361 -20 345 C-20.04108887 344.30068359 -20.08217773 343.60136719 -20.12451172 342.88085938 C-21.45219352 322.06213004 -25.96963293 302.59138701 -33.25927734 283.08203125 C-34.32364101 280.09030635 -35.17260487 277.06503024 -36 274 C-37.2065625 274.34933594 -38.413125 274.69867187 -39.65625 275.05859375 C-41.27074559 275.51853726 -42.88533392 275.97815534 -44.5 276.4375 C-45.29148437 276.66759766 -46.08296875 276.89769531 -46.8984375 277.13476562 C-51.9401646 278.56049993 -56.78508177 279.47970426 -62 280 C-61.78384033 280.52207031 -61.56768066 281.04414062 -61.3449707 281.58203125 C-41.13407601 330.62498847 -37.48992644 381.09551084 -57.82421875 431.01171875 C-64.15822578 445.90730719 -71.80245964 460.38534947 -82 473 C-82.46905762 473.58040039 -82.93811523 474.16080078 -83.42138672 474.75878906 C-98.24180268 492.88728996 -117.30811268 512.12919623 -139 522 C-143.27942147 520.57352618 -144.30857448 517.46562413 -146.3125 513.6875 C-146.69728516 513.01009766 -147.08207031 512.33269531 -147.47851562 511.63476562 C-150.11875135 506.71498211 -150.11875135 506.71498211 -149.625 503.7421875 C-147.29737528 501.24670523 -144.71830225 499.99841373 -141.6875 498.4375 C-133.88749738 494.2358635 -127.57056654 488.89054822 -121 483 C-119.54252435 481.74900007 -118.08432337 480.49884403 -116.625 479.25 C-110.30473427 473.65248321 -104.72652955 467.72964403 -99.625 461 C-99.06409668 460.26088379 -98.50319336 459.52176758 -97.92529297 458.76025391 C-82.01637095 437.47097543 -70.84728817 412.39293493 -67 386 C-66.89316895 385.28118652 -66.78633789 384.56237305 -66.67626953 383.82177734 C-62.19117447 352.2928253 -66.92615758 320.97093984 -80 292 C-81.00198855 289.66751991 -82.00218513 287.33426861 -83 285 C-83.90427734 285.01571045 -84.80855469 285.0314209 -85.74023438 285.04760742 C-126.47392573 285.65923216 -163.58965325 280.36446508 -200 261 C-201.99726903 259.99455661 -203.99634822 258.99266285 -206 258 C-204.73888071 255.36992225 -203.46675409 252.74623869 -202.1875 250.125 C-201.83107422 249.37863281 -201.47464844 248.63226562 -201.10742188 247.86328125 C-200.75615234 247.14785156 -200.40488281 246.43242188 -200.04296875 245.6953125 C-199.72352295 245.03547363 -199.40407715 244.37563477 -199.07495117 243.69580078 C-198 242 -198 242 -195 240 C-192.10520485 241.17514532 -189.44899289 242.43655364 -186.6875 243.875 C-142.49000551 265.7464507 -91.88214966 269.77370703 -45 254 C-20.48974403 245.51829561 2.38339469 232.15028254 21.29296875 214.3984375 C23 213 23 213 25 213 C25.23460937 212.44441406 25.46921875 211.88882813 25.7109375 211.31640625 C27.32088227 208.42338428 29.34299493 206.33607808 31.625 203.9375 C36.56824936 198.60626305 40.85839885 192.98102737 45 187 C43.42860424 182.98317771 40.77454544 180.79827597 37.5625 178 C32.30101226 173.40407995 32.30101226 173.40407995 30.27734375 170.6875 C29.85582031 170.130625 29.43429687 169.57375 29 169 C28.34 169 27.68 169 27 169 C25.58355885 170.74285148 24.24265534 172.54732215 22.9375 174.375 C18.62867208 180.26569188 14.03249965 185.70421561 9 191 C8.48228027 191.55558594 7.96456055 192.11117187 7.43115234 192.68359375 C-15.01324399 216.6552143 -44.32844875 233.43657984 -76 242 C-76.67885254 242.18546387 -77.35770508 242.37092773 -78.05712891 242.56201172 C-126.16315363 255.44654933 -175.29956849 246.51183362 -218.47558594 223.01806641 C-220 222 -220 222 -221 220 C-220.19555664 218.21240234 -220.19555664 218.21240234 -218.91015625 216.0859375 C-218.45576172 215.32539062 -218.00136719 214.56484375 -217.53320312 213.78125 C-216.80520508 212.59015625 -216.80520508 212.59015625 -216.0625 211.375 C-215.58103516 210.57320312 -215.09957031 209.77140625 -214.60351562 208.9453125 C-213.40943235 206.95911458 -212.20804799 204.97772458 -211 203 C-210.030625 203.49628906 -209.06125 203.99257813 -208.0625 204.50390625 C-187.19873076 215.11460815 -167.24433034 222.53033482 -144 226 C-143.13632812 226.13277344 -142.27265625 226.26554688 -141.3828125 226.40234375 C-102.95074193 231.25622117 -60.46949388 219.74357995 -29.3125 196.796875 C-24.79435213 193.28615199 -20.35279464 189.71478228 -16 186 C-15.01773438 185.16597656 -14.03546875 184.33195313 -13.0234375 183.47265625 C-5.80927758 177.19409728 0.16312283 170.30247546 5.82080078 162.60107422 C6.89105354 161.14792358 7.98897699 159.71525419 9.08984375 158.28515625 C9.65832031 157.51042969 10.22679687 156.73570312 10.8125 155.9375 C11.29332031 155.28652344 11.77414062 154.63554687 12.26953125 153.96484375 C13.23556008 151.94857561 13.23556008 151.94857561 12.3515625 149.59765625 C10.88995144 146.78849048 9.28206044 144.15977748 7.5625 141.5 C-13.08740505 108.50945647 -25.10756038 71.13380024 -24 32 C-17.4 32 -10.8 32 -4 32 C-3.82984375 33.78921875 -3.6596875 35.5784375 -3.484375 37.421875 C-0.69164023 65.75633264 4.22408477 91.80449253 18 117 C18.73064151 118.37360604 19.46110729 119.74730556 20.19140625 121.12109375 C24.79278811 129.6524457 29.92806689 137.418059 36 145 C36.68449219 145.88816406 37.36898438 146.77632812 38.07421875 147.69140625 C65.5058619 182.52604367 109.05674552 207.36128665 153.13012695 213.07299805 C155.11035014 213.29672244 157.0942169 213.48751242 159.078125 213.67578125 C162 214 162 214 164 215 C164.061875 213.865625 164.12375 212.73125 164.1875 211.5625 C165.00842547 203.82589939 167.69812403 196.39828033 170 189 C168.30810547 188.87044922 168.30810547 188.87044922 166.58203125 188.73828125 C119.46488668 184.70879223 75.71923979 161.87535742 44.59765625 126.25 C42.34425821 123.53821843 40.15739667 120.78863495 38 118 C37.01773438 116.74316406 37.01773438 116.74316406 36.015625 115.4609375 C21.18327073 95.82290045 11.28179042 73.69754948 5 50 C4.68289063 48.84113281 4.36578125 47.68226563 4.0390625 46.48828125 C0.16046457 31.18510031 -0.31335376 15.70250522 0 0 Z M62 199 C60.51197363 200.82313975 59.12702836 202.65782016 57.75 204.5625 C38.1722488 230.76567091 12.32643651 250.75765483 -17 265 C-16.36255763 270.27567433 -14.66776987 274.78091912 -12.75 279.6875 C-3.57009763 303.99112641 0.22692341 328.76134039 0.0625 354.6875 C0.05747028 356.08268067 0.05291 357.47786311 0.04882812 358.87304688 C0.03714751 362.24874437 0.02076833 365.62434826 0 369 C0.7434668 369.12004395 1.48693359 369.24008789 2.25292969 369.36376953 C17.88273976 371.92378311 33.00078352 374.88317655 48 380 C49.00184326 380.32556885 49.00184326 380.32556885 50.02392578 380.65771484 C59.0565055 383.60218646 67.43877686 387.57953732 75.875 391.9375 C76.82608643 392.42750488 77.77717285 392.91750977 78.75708008 393.42236328 C84.49751383 396.45914742 89.785639 399.81954176 95.00830078 403.68188477 C96.87991128 405.1839633 96.87991128 405.1839633 99 405 C100.35199622 403.31758318 101.62978594 401.57541295 102.875 399.8125 C107.62821487 393.26678409 112.92604951 387.37896336 118.52099609 381.54638672 C119.89784084 380.10681349 121.25634374 378.64975912 122.61328125 377.19140625 C138.15048158 360.94689787 157.68667459 348.43972181 178 339 C177.39929573 333.9915306 175.75555068 329.73119137 173.8125 325.125 C162.05376527 295.88961729 160.44501696 266.05912772 161 235 C160.29206299 234.87995605 159.58412598 234.75991211 158.85473633 234.63623047 C125.65516321 228.93537493 94.05869911 220.07580831 66.22265625 200.43359375 C64.1606928 198.81932468 64.1606928 198.81932468 62 199 Z " fill="#FFFFFF" transform="translate(535,357)"/>
<path d="M0 0 C7.09727428 -0.10808032 13.96094956 0.06145994 21 1 C20.97679687 2.02996094 20.95359375 3.05992187 20.9296875 4.12109375 C20.29096717 44.5957923 33.7733727 81.72345523 62 111 C62.76699219 111.84175781 63.53398438 112.68351562 64.32421875 113.55078125 C87.56220642 138.28799393 121.80881409 150.93267661 155 154 C155.11044961 160.73742646 154.70132913 167.29980211 154 174 C130.49100676 173.41153959 108.45801636 167.04431966 87.74853516 155.93310547 C86.17066316 155.09107437 84.57640926 154.27991723 82.98046875 153.47265625 C46.50946614 134.6371313 20.1046841 98.74919473 7.34765625 60.3828125 C1.0790744 40.58029599 -0.38805943 20.65338521 0 0 Z " fill="#FFFFFF" transform="translate(559,326)"/>
<path d="M0 0 C35.31880782 3.13944958 69.15619412 15.24441957 96 39 C96.48952148 39.42925781 96.97904297 39.85851562 97.48339844 40.30078125 C130.64281666 69.48611574 150.85871609 109.6342811 153.75 153.8125 C154.1427408 160.9488071 153.7360914 167.88444976 153 175 C143.1 174.505 143.1 174.505 133 174 C132.96132813 171.42445313 132.96132813 171.42445313 132.921875 168.796875 C132.09998697 130.72889058 121.73344234 95.3144373 95.03515625 67.17578125 C93 65 93 65 90.6484375 62.0625 C87.95382147 58.80459975 84.9061118 56.25646442 81.5625 53.6875 C80.64887695 52.98028809 80.64887695 52.98028809 79.71679688 52.25878906 C56.19826599 34.31170871 31.32560363 25.16211711 2.07519531 21.36962891 C0 21 0 21 -1 20 C-1.10103604 18.33587693 -1.12963106 16.66718099 -1.125 15 C-1.12757813 14.0925 -1.13015625 13.185 -1.1328125 12.25 C-0.96476934 8.13788509 -0.49796289 4.08352254 0 0 Z " fill="#FFFFFF" transform="translate(518,817)"/>
<path d="M0 0 C4.79132712 0.49627682 8.02090287 2.80228492 11.8125 5.5625 C12.40998047 5.98724609 13.00746094 6.41199219 13.62304688 6.84960938 C15.08740533 7.89223259 16.54445735 8.94510452 18 10 C-2.77684357 43.92674456 -38.87953156 69.14432412 -77.37597656 78.58251953 C-101.98840755 84.25382959 -129.2366818 85.98514075 -154 80 C-154.83354004 79.80132324 -155.66708008 79.60264648 -156.52587891 79.39794922 C-175.46313372 74.73953109 -193.97352545 67.26184698 -210 56 C-206.81243454 49.90695451 -203.27290439 44.38885193 -199 39 C-198.36835938 39.35191406 -197.73671875 39.70382812 -197.0859375 40.06640625 C-194.06822483 41.73180099 -191.03638036 43.36888658 -188 45 C-186.40865234 45.86431641 -186.40865234 45.86431641 -184.78515625 46.74609375 C-152.2859555 63.77309624 -113.06744876 67.39816363 -77.9375 56.75 C-75.27250795 55.88368768 -72.63346032 54.95762194 -70 54 C-69.30519531 53.74734375 -68.61039063 53.4946875 -67.89453125 53.234375 C-39.84345744 42.81102517 -17.23287075 24.34982257 0 0 Z " fill="#FFFFFF" transform="translate(509,485)"/>
<path d="M0 0 C2.21161309 2.03708382 3.58544734 3.83957243 4.82421875 6.57421875 C5.28344727 7.57485352 5.28344727 7.57485352 5.75195312 8.59570312 C6.21504883 9.63114258 6.21504883 9.63114258 6.6875 10.6875 C7.00783203 11.38939453 7.32816406 12.09128906 7.65820312 12.81445312 C8.44479147 14.54025143 9.22320597 16.2697711 10 18 C8.93523437 18.59425781 7.87046875 19.18851562 6.7734375 19.80078125 C-3.19993719 25.46090819 -12.19715331 31.66235633 -21 39 C-21.71800781 39.57621094 -22.43601562 40.15242188 -23.17578125 40.74609375 C-27.64240991 44.40060811 -31.336443 48.55241329 -35 53 C-35.84820313 54.010625 -36.69640625 55.02125 -37.5703125 56.0625 C-61.74073121 85.40955518 -72.56862479 123.54839968 -69.375 161.25 C-67.85111021 176.88139245 -63.88304532 192.31554596 -57.00390625 206.453125 C-56 209 -56 209 -57 212 C-58.67407227 213.07495117 -58.67407227 213.07495117 -60.81640625 214.04296875 C-61.58017578 214.39423828 -62.34394531 214.74550781 -63.13085938 215.10742188 C-63.93330078 215.46384766 -64.73574219 215.82027344 -65.5625 216.1875 C-66.36880859 216.55552734 -67.17511719 216.92355469 -68.00585938 217.30273438 C-69.99986298 218.21124489 -71.99776958 219.10980336 -74 220 C-93.21282525 176.99759709 -96.53412067 131.81634734 -79.90673828 87.31054688 C-74.78133288 74.25000925 -68.29907832 62.29941876 -60 51 C-59.56429687 50.40348633 -59.12859375 49.80697266 -58.6796875 49.19238281 C-43.09882991 28.08761007 -23.16646621 12.19610258 0 0 Z " fill="#FFFFFF" transform="translate(875,444)"/>
<path d="M0 0 C19.19126802 40.14268192 21.8557551 84.90560323 7.625 127.03271484 C-0.83506776 150.7547859 -13.83781317 171.52394022 -32 189 C-33.175625 190.2065625 -33.175625 190.2065625 -34.375 191.4375 C-35.24125 192.283125 -36.1075 193.12875 -37 194 C-37.66 194.64453125 -38.32 195.2890625 -39 195.953125 C-47.29697047 203.75882748 -64.13578883 219 -76 219 C-78.64 213.39 -81.28 207.78 -84 202 C-82.14375 200.88625 -80.2875 199.7725 -78.375 198.625 C-43.37559526 177.19506222 -17.8676114 145.99751996 -8.0078125 105.6953125 C-7.66146652 104.13247869 -7.32611392 102.56718052 -7 101 C-6.72071655 99.668479 -6.72071655 99.668479 -6.43579102 98.31005859 C-4.86479023 90.00170672 -4.63993338 81.81192732 -4.6875 73.375 C-4.68998749 72.66934906 -4.69247498 71.96369812 -4.69503784 71.23666382 C-4.80524872 50.99593527 -8.42158203 32.66980824 -16.71875 14.07421875 C-18 11 -18 11 -18 8 C-15.3773768 6.66180502 -12.75213401 5.3292849 -10.125 4 C-9.37863281 3.6184375 -8.63226563 3.236875 -7.86328125 2.84375 C-7.14785156 2.4828125 -6.43242187 2.121875 -5.6953125 1.75 C-4.7055542 1.24726562 -4.7055542 1.24726562 -3.69580078 0.734375 C-2 0 -2 0 0 0 Z " fill="#FFFFFF" transform="translate(430,654)"/>
<path d="M0 0 C-0.59925491 2.88305128 -1.45146232 4.99659057 -3.06640625 7.453125 C-3.6706543 8.38125 -3.6706543 8.38125 -4.28710938 9.328125 C-4.70798828 9.96234375 -5.12886719 10.5965625 -5.5625 11.25 C-6.19961914 12.22453125 -6.19961914 12.22453125 -6.84960938 13.21875 C-7.8947306 14.81578918 -8.94669837 16.4083442 -10 18 C-10.825 17.50371094 -11.65 17.00742187 -12.5 16.49609375 C-47.92530442 -4.48858731 -87.35291363 -10.94951778 -127.48071289 -1.09472656 C-135.312527 0.95148258 -142.63493689 3.63571191 -150 7 C-151.17949219 7.53496094 -152.35898437 8.06992187 -153.57421875 8.62109375 C-173.94913371 18.3266363 -192.73063489 33.33638856 -205.65258789 51.93652344 C-206.80859375 53.54296875 -206.80859375 53.54296875 -209 56 C-213.8806994 56 -216.36448635 54.12982936 -220.25 51.5 C-220.8996875 51.07074219 -221.549375 50.64148438 -222.21875 50.19921875 C-223.81791396 49.14094848 -225.40969754 48.07154069 -227 47 C-219.69376422 33.68459053 -208.79812928 21.54409769 -197 12 C-195.58267578 10.84371094 -195.58267578 10.84371094 -194.13671875 9.6640625 C-169.62216521 -9.96974816 -140.19776922 -22.38036932 -109 -26 C-107.94683594 -26.12503906 -106.89367187 -26.25007812 -105.80859375 -26.37890625 C-68.08998541 -29.96467046 -32.01630645 -19.62710436 0 0 Z " fill="#FFFFFF" transform="translate(931,776)"/>
<path d="M0 0 C35.25870705 1.37371586 68.42668894 21.01588821 92.1875 46.25 C117.80280623 74.21494939 130.12238725 112.48636448 129 150 C128.75633818 153.34824946 128.41052042 156.6689323 128 160 C124.85343097 159.69463301 121.70791518 159.37951468 118.5625 159.0625 C117.21575195 158.93198242 117.21575195 158.93198242 115.84179688 158.79882812 C114.56079102 158.66831055 114.56079102 158.66831055 113.25390625 158.53515625 C112.46314697 158.456604 111.6723877 158.37805176 110.85766602 158.29711914 C109 158 109 158 108 157 C107.97872274 154.18228319 108.00935921 151.37896208 108.0625 148.5625 C108.28570893 112.59880703 96.12690117 80.25518288 70.6875 54.375 C52.72397157 36.53786629 30.84523608 26.77112598 6.38671875 21.59082031 C3.54652027 20.88774336 0.77577739 19.92525913 -2 19 C-1.34 12.73 -0.68 6.46 0 0 Z " fill="#FFFFFF" transform="translate(519,864)"/>
<path d="M0 0 C3.14656903 0.30536699 6.29208482 0.62048532 9.4375 0.9375 C10.33533203 1.02451172 11.23316406 1.11152344 12.15820312 1.20117188 C13.01220703 1.28818359 13.86621094 1.37519531 14.74609375 1.46484375 C15.53685303 1.543396 16.3276123 1.62194824 17.14233398 1.70288086 C19 2 19 2 20 3 C20.0509329 4.4861089 20.03537385 5.97458332 19.9921875 7.4609375 C19.24284972 44.23540036 29.77994661 76.80597536 55.48095703 103.81542969 C75.84758614 124.68411708 101.46656334 135.46665025 130 140 C129.34 146.6 128.68 153.2 128 160 C102.15892116 158.87647483 74.99019834 147.16896213 55 131 C54.18668213 130.34475342 54.18668213 130.34475342 53.35693359 129.67626953 C40.51420034 119.24669552 29.9490184 107.95094124 21 94 C20.07574219 92.56914062 20.07574219 92.56914062 19.1328125 91.109375 C8.99400142 74.61690897 3.31468561 55.95915719 0 37 C-0.18949219 35.94683594 -0.37898437 34.89367187 -0.57421875 33.80859375 C-1.16643764 28.51122298 -1.14444925 23.2633536 -1.125 17.9375 C-1.12886719 16.87466797 -1.13273438 15.81183594 -1.13671875 14.71679688 C-1.13045854 9.70549559 -1.07473809 4.92161807 0 0 Z " fill="#FFFFFF" transform="translate(584,294)"/>
<path d="M0 0 C0.60642334 0.37302246 1.21284668 0.74604492 1.83764648 1.13037109 C3.5 2.20703125 3.5 2.20703125 6 4.1875 C6 7.46997431 5.66923327 8.01316967 3.8125 10.54296875 C3.36132812 11.16494141 2.91015625 11.78691406 2.4453125 12.42773438 C1.72988281 13.39163086 1.72988281 13.39163086 1 14.375 C0.52304687 15.02919922 0.04609375 15.68339844 -0.4453125 16.35742188 C-1.62389275 17.97207682 -2.81113182 19.58040497 -4 21.1875 C-7.61582251 19.86916471 -10.52991954 18.24890837 -13.6875 16.0625 C-32.94536612 3.64726733 -55.31152927 -2.23857356 -78.125 -2.125 C-79.30352539 -2.12008545 -80.48205078 -2.1151709 -81.69628906 -2.11010742 C-114.58609678 -1.67238476 -144.98781981 11.73910384 -168 35.1875 C-171.75463116 39.10932782 -175.40257398 43.12147139 -179 47.1875 C-183.24229387 44.84047818 -187.14176651 42.47408679 -190.9375 39.4375 C-191.70964844 38.82390625 -192.48179687 38.2103125 -193.27734375 37.578125 C-193.84582031 37.11921875 -194.41429687 36.6603125 -195 36.1875 C-185.41030311 13.75736151 -156.09233772 -3.81637422 -134.47265625 -12.71484375 C-89.49003796 -30.44423973 -40.81847922 -25.44190451 0 0 Z " fill="#FFFFFF" transform="translate(940,808.8125)"/>
<path d="M0 0 C2.04174813 3.06262219 3.60095872 6.11744567 5.1875 9.4375 C5.73792969 10.57058594 6.28835938 11.70367187 6.85546875 12.87109375 C8.03945268 16.10785527 8.24487546 16.9257293 7 20 C4.42866628 21.53682039 1.94455227 22.8450299 -0.75 24.125 C-8.99054735 28.25825773 -15.95377629 33.08964296 -23 39 C-23.81984375 39.66773438 -24.6396875 40.33546875 -25.484375 41.0234375 C-44.13410761 56.77924608 -55.48560238 79.85354745 -62 103 C-62.34160156 104.21300781 -62.68320312 105.42601562 -63.03515625 106.67578125 C-68.54826177 130.54881029 -65.72469287 155.76788617 -56.953125 178.41015625 C-56 181 -56 181 -56 183 C-58.41242713 184.17620825 -60.82927691 185.3410956 -63.25 186.5 C-63.93191406 186.83386719 -64.61382813 187.16773438 -65.31640625 187.51171875 C-68.8520992 189.19374744 -71.01929286 190 -75 190 C-79.37506807 178.4789874 -82.59552793 167.0840135 -85 155 C-85.176521 154.24267578 -85.35304199 153.48535156 -85.53491211 152.70507812 C-86.57519815 146.65449055 -86.24507346 140.3802918 -86.25 134.25 C-86.25067474 133.50290771 -86.25134949 132.75581543 -86.25204468 131.98608398 C-86.2362658 121.02050133 -85.80292596 110.65789992 -83 100 C-82.83371094 99.32727051 -82.66742187 98.65454102 -82.49609375 97.96142578 C-73.50079247 61.9052598 -50.64156028 29.71066003 -19 10 C-12.78134482 6.45136396 -6.40576449 3.19568938 0 0 Z " fill="#FFFFFF" transform="translate(915,449)"/>
<path d="M0 0 C4.40785758 0.87570555 7.30710183 3.31196487 10.75 6.0625 C11.35199219 6.53494141 11.95398438 7.00738281 12.57421875 7.49414062 C14.05409943 8.65690401 15.52768096 9.8276766 17 11 C14.24108222 15.34836456 11.21477033 19.1775682 7.6875 22.9375 C7.19822021 23.46255127 6.70894043 23.98760254 6.20483398 24.52856445 C4.80738505 26.02294626 3.40387386 27.51165236 2 29 C1.08347656 29.99773437 1.08347656 29.99773437 0.1484375 31.015625 C-23.01917086 55.438621 -59.34174624 69.12780418 -92.52734375 70.28125 C-125.04429281 70.93985017 -159.36442356 63.27207406 -185 42 C-181.89842047 36.16903048 -178.14443819 31.13398101 -174 26 C-169.97163989 27.44873134 -166.64509751 29.41882684 -163.0625 31.75 C-136.39542578 48.57383156 -102.69074332 53.33468756 -72.0703125 46.49169922 C-43.24588725 39.64589822 -17.61329963 24.05199829 0 0 Z " fill="#FFFFFF" transform="translate(469,462)"/>
<path d="M0 0 C12.66494925 26.5841197 14.98146787 60.65970347 8 89 C7.81195801 89.77682129 7.62391602 90.55364258 7.43017578 91.35400391 C0.99341836 117.0139812 -11.5792908 139.14776614 -30 158 C-30.78761719 158.84949219 -31.57523437 159.69898438 -32.38671875 160.57421875 C-41.96874474 170.66306264 -53.0245986 178.21366979 -65.25 184.75 C-66.07234131 185.19279297 -66.89468262 185.63558594 -67.74194336 186.09179688 C-68.5128833 186.48947266 -69.28382324 186.88714844 -70.078125 187.296875 C-70.76293945 187.65104492 -71.44775391 188.00521484 -72.15332031 188.37011719 C-74 189 -74 189 -77 188 C-77.9831543 186.32592773 -77.9831543 186.32592773 -78.82421875 184.18359375 C-79.28344727 183.03793945 -79.28344727 183.03793945 -79.75195312 181.86914062 C-80.06068359 181.06669922 -80.36941406 180.26425781 -80.6875 179.4375 C-81.16799805 178.22803711 -81.16799805 178.22803711 -81.65820312 176.99414062 C-82.44877255 175.00001775 -83.225685 173.00049052 -84 171 C-83.06800781 170.52691406 -82.13601563 170.05382812 -81.17578125 169.56640625 C-67.28083294 162.40695659 -55.14466189 153.98769482 -44 143 C-43.20851563 142.22140625 -42.41703125 141.4428125 -41.6015625 140.640625 C-18.79715432 116.79601575 -9.20436067 83.20870726 -9.75 50.953125 C-10.1444659 38.5432279 -12.97852134 27.11312303 -16.9140625 15.390625 C-17.81262392 12.58504475 -18.50225976 9.8979543 -19 7 C-17.10545176 6.03912864 -15.20930419 5.08141031 -13.3125 4.125 C-12.25675781 3.59132813 -11.20101562 3.05765625 -10.11328125 2.5078125 C-2.42829828 -1.21414914 -2.42829828 -1.21414914 0 0 Z " fill="#FFFFFF" transform="translate(391,679)"/>
<path d="M0 0 C14.87927763 1.57760198 27.97990482 6.80671969 41 14 C41.94746094 14.51691406 42.89492188 15.03382813 43.87109375 15.56640625 C50.0746634 19.11821602 55.5174113 23.43276524 61 28 C61.56589844 28.44214844 62.13179687 28.88429688 62.71484375 29.33984375 C67.05273958 32.75723118 70.51075422 36.75222253 74 41 C74.77601563 41.9384375 75.55203125 42.876875 76.3515625 43.84375 C92.34355549 63.63352849 104.10814691 89.07923611 104.1328125 114.90234375 C104.13410156 116.20494141 104.13539063 117.50753906 104.13671875 118.84960938 C104.13462402 119.52145264 104.1325293 120.1932959 104.13037109 120.88549805 C104.12502408 122.9282985 104.13032964 124.97087824 104.13671875 127.01367188 C104.13542969 128.31755859 104.13414062 129.62144531 104.1328125 130.96484375 C104.13168457 132.1468335 104.13055664 133.32882324 104.12939453 134.54663086 C103.99655352 138.09198203 103.56246986 141.49922558 103 145 C101.16608458 144.88385202 99.33287372 144.75656767 97.5 144.625 C96.4790625 144.55539062 95.458125 144.48578125 94.40625 144.4140625 C90.46679429 143.93518371 86.8321337 143.02467923 83 142 C83.0314209 140.68733154 83.0314209 140.68733154 83.06347656 139.34814453 C83.70921913 115.37590553 83.70921913 115.37590553 79 92 C78.62617187 90.84242188 78.25234375 89.68484375 77.8671875 88.4921875 C68.38267549 61.9229916 49.61489713 41.35177344 24.48999023 28.77514648 C15.74563528 24.68601413 6.32834943 22.3620208 -3 20 C-2.68839539 17.79154015 -2.37567654 15.58323749 -2.0625 13.375 C-1.88847656 12.14523437 -1.71445312 10.91546875 -1.53515625 9.6484375 C-1.06225699 6.42443816 -0.54848998 3.21187824 0 0 Z " fill="#FFFFFF" transform="translate(520,910)"/>
<path d="M0 0 C4.49108752 1.42860919 7.46169316 3.93077292 10.8125 7.125 C11.31458984 7.59292969 11.81667969 8.06085938 12.33398438 8.54296875 C13.56189455 9.68901825 14.78178215 10.84365311 16 12 C1.47273185 34.23691484 -24.99087084 47.48904609 -50 54 C-51.19109375 54.3196875 -52.3821875 54.639375 -53.609375 54.96875 C-84.18300773 61.93489417 -117.14710847 55.7732882 -144 40 C-148.464868 37.18086588 -152.7385786 34.11685146 -157 31 C-157.99 30.34 -158.98 29.68 -160 29 C-159.46511282 24.8928306 -157.27954908 22.82167386 -154.5 19.875 C-151.38621216 16.69217817 -151.38621216 16.69217817 -149 13 C-145.5414804 13.61536723 -143.51829329 14.9378833 -140.75 17.0625 C-118.42161278 33.00667093 -90.61262367 39.3307186 -63.51953125 35.27734375 C-43.95037462 31.8429366 -26.04784919 24.02322948 -11 11 C-10.15308594 10.34 -9.30617188 9.68 -8.43359375 9 C-6.24419521 7.20068692 -4.48744504 5.42667772 -2.6875 3.25 C-2.17574219 2.63640625 -1.66398438 2.0228125 -1.13671875 1.390625 C-0.76160156 0.93171875 -0.38648438 0.4728125 0 0 Z " fill="#FFFFFF" transform="translate(429,439)"/>
<path d="M0 0 C2.02139807 0.11550846 4.04211906 0.24288941 6.0625 0.375 C7.18785156 0.44460938 8.31320312 0.51421875 9.47265625 0.5859375 C13.20813985 1.02443281 16.42008343 1.8781408 20 3 C19.9592334 3.57741943 19.9184668 4.15483887 19.87646484 4.74975586 C17.8794835 34.48946183 22.2003124 63.42349338 42 87 C42.72058594 87.85851562 43.44117188 88.71703125 44.18359375 89.6015625 C57.940332 105.38485664 75.28223856 116.85576103 95.67578125 122.04296875 C99 123 99 123 106 126 C105.01 131.94 104.02 137.88 103 144 C92.74660404 147.41779865 74.74970818 137.47018621 65.69824219 132.94750977 C36.04045704 117.6344219 14.65915645 91.19353088 4.09375 59.67578125 C-1.63395816 40.42659062 -4.32486471 19.86505655 0 0 Z " fill="#FFFFFF" transform="translate(608,263)"/>
<path d="M0 0 C2.22256066 3.33384099 2.97807678 6.06936094 4 9.9375 C4.495 11.77634766 4.495 11.77634766 5 13.65234375 C10.02845104 34.53707758 9.6248457 56.29737775 4 77 C3.82871582 77.65822754 3.65743164 78.31645508 3.48095703 78.99462891 C-0.82408183 95.08579723 -9.32757964 110.28754176 -20 123 C-20.71800781 123.85722656 -21.43601562 124.71445312 -22.17578125 125.59765625 C-33.82902341 138.98957042 -46.8509889 148.53497368 -62.5625 156.5 C-63.22918701 156.83854004 -63.89587402 157.17708008 -64.58276367 157.52587891 C-68.02762965 159.21657307 -71.18934224 160.47338319 -75 161 C-76.00605593 158.39802798 -77.00502525 155.79370638 -78 153.1875 C-78.28617187 152.44951172 -78.57234375 151.71152344 -78.8671875 150.95117188 C-79.13789063 150.23896484 -79.40859375 149.52675781 -79.6875 148.79296875 C-79.93886719 148.1383667 -80.19023437 147.48376465 -80.44921875 146.80932617 C-81 145 -81 145 -81 142 C-80.48727539 141.77449463 -79.97455078 141.54898926 -79.44628906 141.31665039 C-68.65037448 136.51940622 -59.06706036 131.6689335 -50 124 C-49.22785156 123.38898438 -48.45570313 122.77796875 -47.66015625 122.1484375 C-30.89682634 108.30175023 -20.17678201 87.84276426 -15 67 C-14.75636719 66.05898438 -14.51273437 65.11796875 -14.26171875 64.1484375 C-10.76475714 47.63897248 -12.56189781 30.25699649 -16.51928711 14.03857422 C-17.06955647 11.7050297 -17.52980256 9.35098719 -18 7 C-9.09 3.535 -9.09 3.535 0 0 Z " fill="#FFFFFF" transform="translate(350,702)"/>
<path d="M0 0 C-1.62612407 3.67189306 -3.87957994 6.61621667 -6.375 9.75 C-7.14585937 10.73484375 -7.91671875 11.7196875 -8.7109375 12.734375 C-11 15 -11 15 -15 15 C-17.70703125 13.27734375 -17.70703125 13.27734375 -20.8125 10.9375 C-31.44371711 3.24537652 -43.26180127 -1.81167268 -56 -5 C-56.70495605 -5.17660156 -57.40991211 -5.35320313 -58.13623047 -5.53515625 C-75.46344407 -9.4723604 -95.09565724 -8.35829075 -112 -3 C-113.12792969 -2.649375 -114.25585938 -2.29875 -115.41796875 -1.9375 C-133.4315567 4.38151745 -147.92154169 15.31324131 -161 29 C-164.9374409 26.7757418 -168.3373337 24.20149367 -171.8125 21.3125 C-172.78832031 20.50425781 -173.76414062 19.69601562 -174.76953125 18.86328125 C-175.50558594 18.24839844 -176.24164062 17.63351562 -177 17 C-163.56113839 0.73190437 -148.18792848 -10.37586871 -129 -19 C-127.42025391 -19.72316406 -127.42025391 -19.72316406 -125.80859375 -20.4609375 C-84.08339787 -38.0462691 -34.66694341 -27.592057 0 0 Z " fill="#FFFFFF" transform="translate(962,850)"/>
<path d="M0 0 C1.00380916 2.79035046 2.0031945 5.58214855 3 8.375 C3.28617188 9.1690625 3.57234375 9.963125 3.8671875 10.78125 C4.27324219 11.92207031 4.27324219 11.92207031 4.6875 13.0859375 C4.93886719 13.7876709 5.19023438 14.4894043 5.44921875 15.21240234 C6 17 6 17 6 19 C4.99582031 19.40089844 3.99164062 19.80179687 2.95703125 20.21484375 C-24.05049921 31.30745955 -43.81291401 51.42014415 -55.25 78.25 C-64.10543123 101.16924256 -64.60299698 125.39892645 -58 149 C-57.64863975 150.66295967 -57.30660252 152.32820941 -57 154 C-59.57861025 155.03444249 -62.16174635 156.05272284 -64.75 157.0625 C-65.84441406 157.50432617 -65.84441406 157.50432617 -66.9609375 157.95507812 C-67.66992188 158.22900391 -68.37890625 158.50292969 -69.109375 158.78515625 C-69.75874023 159.04176025 -70.40810547 159.29836426 -71.07714844 159.56274414 C-73.36632786 160.08330284 -74.79256664 159.72364304 -77 159 C-77.63088128 156.7306649 -78.25470072 154.45973104 -78.875 152.1875 C-79.22304688 150.92292969 -79.57109375 149.65835938 -79.9296875 148.35546875 C-82.51991908 138.11709359 -83.37067568 128.37656587 -83.3125 117.8125 C-83.31067719 117.12679932 -83.30885437 116.44109863 -83.30697632 115.73461914 C-83.26114556 105.50077462 -82.81326365 95.88045418 -80 86 C-79.6596875 84.78441406 -79.319375 83.56882812 -78.96875 82.31640625 C-72.73455049 62.07631933 -62.63105562 45.26170457 -48 30 C-47.23171875 29.16855469 -46.4634375 28.33710938 -45.671875 27.48046875 C-35.33724456 16.62910679 -15.80315485 0 0 0 Z " fill="#FFFFFF" transform="translate(956,455)"/>
<path d="M0 0 C1.36125 1.2065625 1.36125 1.2065625 2.75 2.4375 C2.33685438 6.88676052 -0.75461527 9.27850104 -3.8125 12.1875 C-4.33263672 12.69410156 -4.85277344 13.20070313 -5.38867188 13.72265625 C-6.66910084 14.96784405 -7.95867554 16.20361502 -9.25 17.4375 C-12.76414319 16.20004103 -15.0529412 14.9288055 -17.6875 12.3125 C-27.3271136 3.64767879 -38.90101225 -1.15825896 -51.25 -4.5625 C-52.136875 -4.80871094 -53.02375 -5.05492187 -53.9375 -5.30859375 C-74.61940478 -9.9943378 -97.94405966 -6.09124498 -116.16845703 4.55859375 C-122.22815077 8.38882315 -127.78018445 12.81854464 -133.25 17.4375 C-137.32376031 15.82739473 -140.01507069 12.89927729 -143 9.8125 C-143.50660156 9.296875 -144.01320313 8.78125 -144.53515625 8.25 C-145.77803902 6.98366661 -147.01465276 5.7111856 -148.25 4.4375 C-144.71699628 -0.10018087 -141.08848472 -3.56977789 -136.4375 -6.9375 C-135.45898071 -7.64640381 -135.45898071 -7.64640381 -134.46069336 -8.36962891 C-122.73576432 -16.6356829 -110.08638597 -21.95745007 -96.25 -25.5625 C-95.31671875 -25.80871094 -94.3834375 -26.05492187 -93.421875 -26.30859375 C-59.46655148 -33.5067252 -25.7930832 -21.95266437 0 0 Z " fill="#FFFFFF" transform="translate(974.25,884.5625)"/>
<path d="M0 0 C9.405 2.475 9.405 2.475 19 5 C18.67 7.536875 18.34 10.07375 18 12.6875 C15.20448746 36.11304596 18.64585773 59.29681732 33.01953125 78.73046875 C34.97598498 81.18783272 36.9755758 83.59855753 39 86 C39.93199219 87.23169922 39.93199219 87.23169922 40.8828125 88.48828125 C51.02322332 100.51832582 66.46942161 107.15647387 81 112 C79.35 118.27 77.7 124.54 76 131 C53.32490178 127.76070025 31.65060048 111.97596672 18.0625 93.9375 C4.42657618 74.57818069 -4.21551951 52.8288819 -4.1875 28.875 C-4.18669434 28.14434326 -4.18588867 27.41368652 -4.18505859 26.66088867 C-4.08312151 17.44757548 -2.92466508 8.77399525 0 0 Z " fill="#FFFFFF" transform="translate(633,230)"/>
<path d="M0 0 C28.38007368 7.38659452 51.4567695 25.64017679 66.25 50.8125 C74.37179264 65.24518595 79.13179005 81.45139224 80 98 C80.05285156 98.86238281 80.10570312 99.72476562 80.16015625 100.61328125 C80.45032339 109.73462222 80.16635187 122.66729626 76 131 C69.51527007 130.26309887 63.30760257 128.64681249 57 127 C57.14514409 125.52076554 57.29116422 124.04161704 57.4375 122.5625 C57.57285156 121.18964844 57.57285156 121.18964844 57.7109375 119.7890625 C57.96541347 117.33371325 58.25953594 114.88718086 58.5625 112.4375 C60.93062932 90.51320593 54.52023081 67.7747983 40.8125 50.5 C39.54734244 48.99520975 38.27661262 47.49508447 37 46 C36.37996094 45.18144531 35.75992188 44.36289062 35.12109375 43.51953125 C25.27383707 31.82251365 9.48330479 24.13808708 -5 20 C-4.35587386 17.22875964 -3.70977252 14.45800555 -3.0625 11.6875 C-2.88009766 10.90181641 -2.69769531 10.11613281 -2.50976562 9.30664062 C-2.33251953 8.54931641 -2.15527344 7.79199219 -1.97265625 7.01171875 C-1.81031494 6.31522217 -1.64797363 5.61872559 -1.48071289 4.90112305 C-1.06234435 3.2465594 -0.53968631 1.61905892 0 0 Z " fill="#FFFFFF" transform="translate(522,956)"/>
<path d="M0 0 C0.91702733 2.46823265 1.62243251 4.77132708 2.25 7.3125 C2.435625 7.98990234 2.62125 8.66730469 2.8125 9.36523438 C3.49572724 12.01273994 3.98684156 14.56869542 4.0703125 17.3046875 C2.20153464 20.26472251 -1.18914425 20.80224505 -4.375 21.8125 C-11.63831549 24.32452101 -17.74901466 27.46828408 -24 32 C-24.80050781 32.5671875 -25.60101562 33.134375 -26.42578125 33.71875 C-44.50041278 47.08486407 -54.12438032 67.34055955 -58.58984375 88.83984375 C-59.14158549 93.09088248 -59.19074085 97.2797208 -59.1875 101.5625 C-59.18814453 102.44131836 -59.18878906 103.32013672 -59.18945312 104.22558594 C-59.1324086 111.31207225 -58.42133366 118.04561746 -57 125 C-59.95716407 125.83752161 -62.915913 126.66930031 -65.875 127.5 C-66.71675781 127.73847656 -67.55851563 127.97695313 -68.42578125 128.22265625 C-69.63427734 128.56103516 -69.63427734 128.56103516 -70.8671875 128.90625 C-71.61081543 129.11572266 -72.35444336 129.32519531 -73.12060547 129.54101562 C-75 130 -75 130 -77 130 C-81.85477432 110.60980018 -81.93323357 90.14092977 -76 71 C-75.79101074 70.31647461 -75.58202148 69.63294922 -75.36669922 68.92871094 C-70.58275998 53.79927911 -62.56953679 40.80723348 -52 29 C-51.45085938 28.37996094 -50.90171875 27.75992187 -50.3359375 27.12109375 C-40.89322978 17.09693851 -14.61895868 -4.87298623 0 0 Z " fill="#FFFFFF" transform="translate(996,461)"/>
<path d="M0 0 C3.55026637 1.2483784 5.87971228 2.5647299 8.5625 5.1875 C24.30613681 19.36856611 45.96200844 24.95255 66.765625 24.28515625 C87.59137958 23.14041031 108.12971338 14.87028662 123 0 C126.75984014 0.05822761 128.74615293 2.43216974 131.26171875 4.99804688 C131.75285156 5.51431641 132.24398437 6.03058594 132.75 6.5625 C133.25660156 7.08263672 133.76320313 7.60277344 134.28515625 8.13867188 C135.53034405 9.41910084 136.76611502 10.70867554 138 12 C132.90278655 24.00137558 116.30567969 31.86827743 104.875 36.8125 C77.39643968 47.48021418 47.98534813 48.60983108 20.6484375 36.75 C10.89361338 32.15076734 1.80344788 27.05530064 -6.5 20.125 C-7.0583252 19.6606958 -7.61665039 19.1963916 -8.19189453 18.71801758 C-9.71875 17.3828125 -9.71875 17.3828125 -12 15 C-12 12 -12 12 -9.375 9.08203125 C-8.25750594 7.98449244 -7.13214357 6.89492105 -6 5.8125 C-5.42765625 5.25369141 -4.8553125 4.69488281 -4.265625 4.11914062 C-2.85037212 2.73926907 -1.42602845 1.36873266 0 0 Z " fill="#FFFFFF" transform="translate(266,416)"/>
<path d="M0 0 C6.36987966 29.27111367 2.99420038 58.2701994 -13 84 C-22.71782087 98.90329759 -35.46840493 111.34304537 -51 120 C-52.01835937 120.57234375 -53.03671875 121.1446875 -54.0859375 121.734375 C-61.12174921 125.46464788 -68.33242453 127.89760028 -76 130 C-81.14756499 116.66312706 -81.14756499 116.66312706 -81 110 C-79.96101562 109.63648438 -78.92203125 109.27296875 -77.8515625 108.8984375 C-55.88088471 101.05063594 -37.45469766 87.36242352 -26.9765625 66.0234375 C-21.16637411 53.51909703 -17.79966852 40.80673058 -17.8125 26.9375 C-17.81185547 26.20668213 -17.81121094 25.47586426 -17.81054688 24.72290039 C-17.87749865 17.6982901 -18.77189767 10.91904079 -20 4 C-17.23208055 3.13521219 -14.46134374 2.28288326 -11.6875 1.4375 C-10.90181641 1.19064453 -10.11613281 0.94378906 -9.30664062 0.68945312 C-8.54931641 0.46064453 -7.79199219 0.23183594 -7.01171875 -0.00390625 C-6.31522217 -0.21861572 -5.61872559 -0.4333252 -4.90112305 -0.65454102 C-3 -1 -3 -1 0 0 Z " fill="#FFFFFF" transform="translate(312,728)"/>
</svg>
