<svg width="1056" height="250" viewBox="0 0 1056 250" fill="none" xmlns="http://www.w3.org/2000/svg">
<path d="M121.159 146.46C119.781 146.746 118.353 146.897 116.89 146.897C115.425 146.897 113.996 146.747 112.616 146.46H121.159ZM218.812 146.46C217.824 146.603 216.813 146.679 215.785 146.679C214.758 146.679 213.748 146.603 212.76 146.46H218.812ZM131.814 142.305C130.645 142.933 129.471 143.521 128.291 144.054H106.36C105.469 143.533 104.621 142.947 103.82 142.305H131.814ZM228.579 142.305C227.744 142.952 226.859 143.537 225.931 144.054H204.885C203.676 143.525 202.475 142.936 201.278 142.305H228.579ZM138.844 138.146C137.899 138.738 136.955 139.326 136.008 139.897H101.287C100.79 139.34 100.322 138.756 99.8857 138.146H138.844ZM232.631 138.146C232.183 138.756 231.703 139.341 231.192 139.897H197.03C196.075 139.326 195.122 138.74 194.17 138.146H232.631ZM145.502 133.989C144.558 134.562 143.614 135.148 142.672 135.739H98.3994C98.0995 135.171 97.8247 134.587 97.5771 133.989H145.502ZM235.007 133.989C234.751 134.587 234.469 135.171 234.161 135.739H190.321C189.376 135.148 188.431 134.562 187.484 133.989H235.007ZM153.144 129.833C151.979 130.369 150.821 130.957 149.666 131.583H96.75C96.5914 131.009 96.4564 130.426 96.3467 129.833H153.144ZM236.286 129.833C236.17 130.426 236.03 131.009 235.864 131.583H183.312C182.155 130.957 180.995 130.369 179.829 129.833H236.286ZM236.68 125.784C236.68 126.337 236.658 126.884 236.616 127.426H173.015C171.215 127.006 169.396 126.769 167.55 126.769H165.418C163.574 126.769 161.756 127.006 159.957 127.426H96.0449C96.0133 126.956 95.9951 126.481 95.9951 126.003C95.9951 125.894 95.9974 125.785 95.999 125.676H236.679C236.679 125.712 236.68 125.748 236.68 125.784ZM155.791 121.519C157.593 121.936 159.418 122.174 161.274 122.174H171.101C172.957 122.174 174.782 121.936 176.583 121.519H236.243C236.362 122.094 236.457 122.677 236.528 123.269H96.1738C96.2512 122.677 96.3537 122.093 96.4795 121.519H155.791ZM145.355 117.361C146.535 117.984 147.718 118.574 148.908 119.112H97.1592C97.3675 118.516 97.6019 117.932 97.8613 117.361H145.355ZM234.911 117.361C235.163 117.932 235.391 118.516 235.592 119.112H183.458C184.646 118.574 185.826 117.984 187.003 117.361H234.911ZM138.022 113.204C139.024 113.79 140.028 114.375 141.03 114.954H99.1543C99.5319 114.349 99.9394 113.765 100.375 113.204H138.022ZM232.468 113.204C232.892 113.766 233.29 114.35 233.657 114.954H191.315C192.313 114.375 193.31 113.79 194.307 113.204H232.468ZM130.526 109.048C131.63 109.601 132.729 110.189 133.825 110.798H102.561C103.227 110.17 103.934 109.585 104.679 109.048H130.526ZM228.296 109.048C229.016 109.587 229.699 110.172 230.343 110.798H198.464C199.546 110.19 200.632 109.604 201.721 109.048H228.296ZM116.89 105.108C118.642 105.108 120.345 105.325 121.972 105.731C122.977 105.983 123.976 106.289 124.968 106.641H109.027C111.454 105.654 114.108 105.108 116.89 105.108ZM215.785 104.89C218.766 104.89 221.6 105.516 224.165 106.641H207.104C208.307 106.192 209.517 105.806 210.739 105.503C212.355 105.102 214.045 104.89 215.785 104.89Z" fill="white"/>
<circle cx="126.269" cy="34.4116" r="24.3327" transform="rotate(-45 126.269 34.4116)" fill="white"/>
<circle cx="40.2047" cy="124.406" r="24.3327" transform="rotate(-45 40.2047 124.406)" fill="white"/>
<circle cx="126.269" cy="214.609" r="24.3327" transform="rotate(-45 126.269 214.609)" fill="white"/>
<path d="M154.579 61.6844C164.081 52.1824 179.488 52.1823 188.99 61.6844C198.493 71.1869 198.493 86.594 188.99 96.0965C179.488 105.599 164.082 105.599 154.579 96.0965V96.0965C148.017 89.5348 140.618 81.7186 131.339 81.7186H120.373C111.094 81.7186 103.694 89.5347 97.1327 96.0965V96.0965C87.6302 105.599 72.2231 105.599 62.7206 96.0965C53.2182 86.594 53.2181 71.1869 62.7206 61.6844C72.2231 52.1821 87.6303 52.182 97.1327 61.6844V61.6844C103.924 68.4758 111.532 76.7537 121.137 76.7537H130.573C140.178 76.7537 147.787 68.476 154.579 61.6844V61.6844Z" fill="white"/>
<path d="M155.258 151.739C164.76 142.237 180.167 142.237 189.67 151.739C199.172 161.242 199.172 176.649 189.67 186.151C180.167 195.654 164.76 195.654 155.258 186.151V186.151C148.696 179.59 141.297 171.773 132.017 171.773H121.053C111.773 171.773 104.374 179.59 97.8124 186.151V186.151C88.3099 195.654 72.9029 195.654 63.4003 186.151C53.8978 176.649 53.8978 161.242 63.4003 151.739C72.9029 142.237 88.3099 142.237 97.8124 151.739V151.739C104.604 158.53 112.212 166.808 121.816 166.808H131.253C140.857 166.808 148.466 158.53 155.258 151.739V151.739Z" fill="white"/>
<mask id="path-8-outside-1_73_15194" maskUnits="userSpaceOnUse" x="259" y="63" width="797" height="121" fill="black">
<rect fill="white" x="259" y="63" width="797" height="121"/>
<path d="M294.273 180H260.322V69.9835H295.777C306.449 69.9835 315.581 72.1859 323.174 76.5909C330.766 80.96 336.585 87.2452 340.632 95.4463C344.679 103.612 346.702 113.388 346.702 124.777C346.702 136.237 344.661 146.103 340.579 154.376C336.496 162.613 330.551 168.952 322.744 173.393C314.937 177.798 305.446 180 294.273 180ZM273.645 168.182H293.413C302.51 168.182 310.048 166.427 316.029 162.917C322.01 159.408 326.468 154.412 329.405 147.93C332.342 141.448 333.81 133.73 333.81 124.777C333.81 115.895 332.36 108.249 329.459 101.839C326.558 95.3926 322.225 90.4504 316.459 87.0124C310.693 83.5386 303.512 81.8016 294.917 81.8016H273.645V168.182ZM401.926 181.719C393.975 181.719 387.117 179.964 381.351 176.455C375.621 172.909 371.198 167.967 368.083 161.628C365.003 155.253 363.463 147.84 363.463 139.388C363.463 130.937 365.003 123.488 368.083 117.041C371.198 110.559 375.532 105.51 381.083 101.893C386.669 98.2397 393.187 96.4132 400.636 96.4132C404.934 96.4132 409.178 97.1295 413.368 98.562C417.558 99.9945 421.372 102.322 424.81 105.545C428.248 108.733 430.988 112.959 433.029 118.223C435.07 123.488 436.091 129.97 436.091 137.669V143.041H372.488V132.083H423.198C423.198 127.427 422.267 123.273 420.405 119.62C418.579 115.967 415.964 113.084 412.562 110.971C409.196 108.858 405.22 107.802 400.636 107.802C395.587 107.802 391.218 109.055 387.529 111.562C383.876 114.033 381.065 117.256 379.095 121.231C377.125 125.207 376.141 129.468 376.141 134.017V141.322C376.141 147.554 377.215 152.836 379.364 157.169C381.548 161.467 384.574 164.744 388.442 167C392.31 169.22 396.804 170.331 401.926 170.331C405.256 170.331 408.264 169.865 410.95 168.934C413.672 167.967 416.018 166.534 417.988 164.636C419.957 162.702 421.479 160.303 422.554 157.438L434.802 160.876C433.512 165.03 431.346 168.683 428.302 171.835C425.258 174.95 421.497 177.386 417.021 179.14C412.544 180.86 407.512 181.719 401.926 181.719ZM492.12 97.4876V108.231H447.641V97.4876H492.12ZM460.963 180V86.0992C460.963 81.3719 462.073 77.4325 464.293 74.281C466.514 71.1295 469.397 68.7658 472.942 67.1901C476.488 65.6143 480.23 64.8264 484.169 64.8264C487.285 64.8264 489.828 65.0771 491.798 65.5785C493.767 66.0799 495.236 66.5454 496.202 66.9752L492.55 77.9339C491.905 77.719 491.01 77.4504 489.864 77.1281C488.753 76.8058 487.285 76.6446 485.459 76.6446C481.269 76.6446 478.242 77.7011 476.38 79.814C474.554 81.927 473.641 85.0248 473.641 89.1074V180H460.963ZM509.887 180V97.4876H522.565V180H509.887ZM516.334 83.7355C513.863 83.7355 511.732 82.8939 509.941 81.2107C508.186 79.5275 507.309 77.5041 507.309 75.1405C507.309 72.7769 508.186 70.7534 509.941 69.0702C511.732 67.387 513.863 66.5454 516.334 66.5454C518.805 66.5454 520.918 67.387 522.673 69.0702C524.463 70.7534 525.358 72.7769 525.358 75.1405C525.358 77.5041 524.463 79.5275 522.673 81.2107C520.918 82.8939 518.805 83.7355 516.334 83.7355ZM558.463 130.364V180H545.785V97.4876H558.033V110.38H559.107C561.041 106.19 563.978 102.824 567.917 100.281C571.857 97.7025 576.942 96.4132 583.174 96.4132C588.76 96.4132 593.649 97.5592 597.839 99.8512C602.029 102.107 605.288 105.545 607.616 110.165C609.944 114.749 611.107 120.551 611.107 127.57V180H598.43V128.43C598.43 121.948 596.747 116.898 593.38 113.281C590.014 109.628 585.394 107.802 579.521 107.802C575.474 107.802 571.857 108.679 568.669 110.434C565.518 112.189 563.029 114.749 561.202 118.116C559.376 121.482 558.463 125.565 558.463 130.364ZM658.555 181.934C653.326 181.934 648.581 180.949 644.319 178.979C640.058 176.974 636.673 174.091 634.166 170.331C631.659 166.534 630.406 161.95 630.406 156.579C630.406 151.851 631.337 148.019 633.199 145.083C635.062 142.11 637.551 139.782 640.666 138.099C643.782 136.416 647.22 135.163 650.98 134.339C654.777 133.479 658.591 132.799 662.423 132.298C667.436 131.653 671.501 131.169 674.617 130.847C677.768 130.489 680.06 129.898 681.493 129.074C682.961 128.251 683.695 126.818 683.695 124.777V124.347C683.695 119.047 682.245 114.928 679.344 111.992C676.479 109.055 672.128 107.587 666.29 107.587C660.238 107.587 655.493 108.912 652.055 111.562C648.617 114.212 646.199 117.041 644.803 120.05L632.77 115.752C634.918 110.738 637.783 106.835 641.365 104.041C644.982 101.212 648.921 99.2424 653.183 98.1322C657.48 96.9862 661.706 96.4132 665.861 96.4132C668.511 96.4132 671.555 96.7355 674.993 97.3802C678.467 97.989 681.815 99.2603 685.038 101.194C688.297 103.128 691.001 106.047 693.15 109.95C695.299 113.854 696.373 119.083 696.373 125.636V180H683.695V168.826H683.051C682.191 170.617 680.759 172.533 678.753 174.574C676.748 176.616 674.08 178.353 670.749 179.785C667.418 181.218 663.354 181.934 658.555 181.934ZM660.489 170.545C665.502 170.545 669.728 169.561 673.166 167.591C676.64 165.621 679.254 163.079 681.009 159.963C682.8 156.847 683.695 153.57 683.695 150.132V138.529C683.158 139.174 681.976 139.764 680.15 140.302C678.359 140.803 676.282 141.251 673.918 141.645C671.591 142.003 669.316 142.325 667.096 142.612C664.912 142.862 663.139 143.077 661.778 143.256C658.483 143.686 655.403 144.384 652.538 145.351C649.709 146.282 647.417 147.697 645.662 149.595C643.943 151.457 643.084 154 643.084 157.223C643.084 161.628 644.713 164.959 647.972 167.215C651.267 169.435 655.439 170.545 660.489 170.545ZM721.231 180V69.9835H733.909V110.595H734.984C735.915 109.163 737.204 107.336 738.851 105.116C740.534 102.859 742.934 100.854 746.05 99.0992C749.201 97.3085 753.463 96.4132 758.835 96.4132C765.782 96.4132 771.906 98.1501 777.207 101.624C782.507 105.098 786.643 110.022 789.616 116.397C792.588 122.771 794.074 130.292 794.074 138.959C794.074 147.697 792.588 155.271 789.616 161.682C786.643 168.056 782.525 172.999 777.26 176.508C771.996 179.982 765.926 181.719 759.05 181.719C753.749 181.719 749.506 180.842 746.318 179.087C743.131 177.296 740.678 175.273 738.959 173.017C737.24 170.725 735.915 168.826 734.984 167.322H733.479V180H721.231ZM733.694 138.744C733.694 144.975 734.607 150.472 736.434 155.236C738.26 159.963 740.928 163.669 744.438 166.355C747.948 169.006 752.245 170.331 757.331 170.331C762.631 170.331 767.054 168.934 770.599 166.14C774.18 163.311 776.866 159.515 778.657 154.752C780.484 149.953 781.397 144.617 781.397 138.744C781.397 132.942 780.501 127.713 778.711 123.058C776.956 118.366 774.288 114.66 770.707 111.938C767.161 109.18 762.703 107.802 757.331 107.802C752.174 107.802 747.84 109.109 744.331 111.723C740.821 114.302 738.171 117.919 736.38 122.574C734.59 127.194 733.694 132.584 733.694 138.744ZM826.145 69.9835V180H813.467V69.9835H826.145ZM883.96 181.719C876.009 181.719 869.151 179.964 863.385 176.455C857.655 172.909 853.232 167.967 850.117 161.628C847.037 155.253 845.497 147.84 845.497 139.388C845.497 130.937 847.037 123.488 850.117 117.041C853.232 110.559 857.566 105.51 863.117 101.893C868.704 98.2397 875.221 96.4132 882.671 96.4132C886.968 96.4132 891.212 97.1295 895.402 98.562C899.592 99.9945 903.406 102.322 906.844 105.545C910.282 108.733 913.022 112.959 915.063 118.223C917.104 123.488 918.125 129.97 918.125 137.669V143.041H854.522V132.083H905.232C905.232 127.427 904.301 123.273 902.439 119.62C900.613 115.967 897.998 113.084 894.596 110.971C891.23 108.858 887.255 107.802 882.671 107.802C877.621 107.802 873.252 109.055 869.563 111.562C865.91 114.033 863.099 117.256 861.129 121.231C859.159 125.207 858.175 129.468 858.175 134.017V141.322C858.175 147.554 859.249 152.836 861.398 157.169C863.582 161.467 866.609 164.744 870.476 167C874.344 169.22 878.839 170.331 883.96 170.331C887.29 170.331 890.299 169.865 892.985 168.934C895.706 167.967 898.052 166.534 900.022 164.636C901.991 162.702 903.513 160.303 904.588 157.438L916.836 160.876C915.547 165.03 913.38 168.683 910.336 171.835C907.292 174.95 903.531 177.386 899.055 179.14C894.578 180.86 889.547 181.719 883.96 181.719ZM943.642 180H929.675L970.071 69.9835H983.823L1024.22 180H1010.25L977.377 87.3884H976.518L943.642 180ZM948.799 137.025H1005.1V148.843H948.799V137.025ZM1054.68 69.9835V180H1041.36V69.9835H1054.68Z"/>
</mask>
<path d="M294.273 180H260.322V69.9835H295.777C306.449 69.9835 315.581 72.1859 323.174 76.5909C330.766 80.96 336.585 87.2452 340.632 95.4463C344.679 103.612 346.702 113.388 346.702 124.777C346.702 136.237 344.661 146.103 340.579 154.376C336.496 162.613 330.551 168.952 322.744 173.393C314.937 177.798 305.446 180 294.273 180ZM273.645 168.182H293.413C302.51 168.182 310.048 166.427 316.029 162.917C322.01 159.408 326.468 154.412 329.405 147.93C332.342 141.448 333.81 133.73 333.81 124.777C333.81 115.895 332.36 108.249 329.459 101.839C326.558 95.3926 322.225 90.4504 316.459 87.0124C310.693 83.5386 303.512 81.8016 294.917 81.8016H273.645V168.182ZM401.926 181.719C393.975 181.719 387.117 179.964 381.351 176.455C375.621 172.909 371.198 167.967 368.083 161.628C365.003 155.253 363.463 147.84 363.463 139.388C363.463 130.937 365.003 123.488 368.083 117.041C371.198 110.559 375.532 105.51 381.083 101.893C386.669 98.2397 393.187 96.4132 400.636 96.4132C404.934 96.4132 409.178 97.1295 413.368 98.562C417.558 99.9945 421.372 102.322 424.81 105.545C428.248 108.733 430.988 112.959 433.029 118.223C435.07 123.488 436.091 129.97 436.091 137.669V143.041H372.488V132.083H423.198C423.198 127.427 422.267 123.273 420.405 119.62C418.579 115.967 415.964 113.084 412.562 110.971C409.196 108.858 405.22 107.802 400.636 107.802C395.587 107.802 391.218 109.055 387.529 111.562C383.876 114.033 381.065 117.256 379.095 121.231C377.125 125.207 376.141 129.468 376.141 134.017V141.322C376.141 147.554 377.215 152.836 379.364 157.169C381.548 161.467 384.574 164.744 388.442 167C392.31 169.22 396.804 170.331 401.926 170.331C405.256 170.331 408.264 169.865 410.95 168.934C413.672 167.967 416.018 166.534 417.988 164.636C419.957 162.702 421.479 160.303 422.554 157.438L434.802 160.876C433.512 165.03 431.346 168.683 428.302 171.835C425.258 174.95 421.497 177.386 417.021 179.14C412.544 180.86 407.512 181.719 401.926 181.719ZM492.12 97.4876V108.231H447.641V97.4876H492.12ZM460.963 180V86.0992C460.963 81.3719 462.073 77.4325 464.293 74.281C466.514 71.1295 469.397 68.7658 472.942 67.1901C476.488 65.6143 480.23 64.8264 484.169 64.8264C487.285 64.8264 489.828 65.0771 491.798 65.5785C493.767 66.0799 495.236 66.5454 496.202 66.9752L492.55 77.9339C491.905 77.719 491.01 77.4504 489.864 77.1281C488.753 76.8058 487.285 76.6446 485.459 76.6446C481.269 76.6446 478.242 77.7011 476.38 79.814C474.554 81.927 473.641 85.0248 473.641 89.1074V180H460.963ZM509.887 180V97.4876H522.565V180H509.887ZM516.334 83.7355C513.863 83.7355 511.732 82.8939 509.941 81.2107C508.186 79.5275 507.309 77.5041 507.309 75.1405C507.309 72.7769 508.186 70.7534 509.941 69.0702C511.732 67.387 513.863 66.5454 516.334 66.5454C518.805 66.5454 520.918 67.387 522.673 69.0702C524.463 70.7534 525.358 72.7769 525.358 75.1405C525.358 77.5041 524.463 79.5275 522.673 81.2107C520.918 82.8939 518.805 83.7355 516.334 83.7355ZM558.463 130.364V180H545.785V97.4876H558.033V110.38H559.107C561.041 106.19 563.978 102.824 567.917 100.281C571.857 97.7025 576.942 96.4132 583.174 96.4132C588.76 96.4132 593.649 97.5592 597.839 99.8512C602.029 102.107 605.288 105.545 607.616 110.165C609.944 114.749 611.107 120.551 611.107 127.57V180H598.43V128.43C598.43 121.948 596.747 116.898 593.38 113.281C590.014 109.628 585.394 107.802 579.521 107.802C575.474 107.802 571.857 108.679 568.669 110.434C565.518 112.189 563.029 114.749 561.202 118.116C559.376 121.482 558.463 125.565 558.463 130.364ZM658.555 181.934C653.326 181.934 648.581 180.949 644.319 178.979C640.058 176.974 636.673 174.091 634.166 170.331C631.659 166.534 630.406 161.95 630.406 156.579C630.406 151.851 631.337 148.019 633.199 145.083C635.062 142.11 637.551 139.782 640.666 138.099C643.782 136.416 647.22 135.163 650.98 134.339C654.777 133.479 658.591 132.799 662.423 132.298C667.436 131.653 671.501 131.169 674.617 130.847C677.768 130.489 680.06 129.898 681.493 129.074C682.961 128.251 683.695 126.818 683.695 124.777V124.347C683.695 119.047 682.245 114.928 679.344 111.992C676.479 109.055 672.128 107.587 666.29 107.587C660.238 107.587 655.493 108.912 652.055 111.562C648.617 114.212 646.199 117.041 644.803 120.05L632.77 115.752C634.918 110.738 637.783 106.835 641.365 104.041C644.982 101.212 648.921 99.2424 653.183 98.1322C657.48 96.9862 661.706 96.4132 665.861 96.4132C668.511 96.4132 671.555 96.7355 674.993 97.3802C678.467 97.989 681.815 99.2603 685.038 101.194C688.297 103.128 691.001 106.047 693.15 109.95C695.299 113.854 696.373 119.083 696.373 125.636V180H683.695V168.826H683.051C682.191 170.617 680.759 172.533 678.753 174.574C676.748 176.616 674.08 178.353 670.749 179.785C667.418 181.218 663.354 181.934 658.555 181.934ZM660.489 170.545C665.502 170.545 669.728 169.561 673.166 167.591C676.64 165.621 679.254 163.079 681.009 159.963C682.8 156.847 683.695 153.57 683.695 150.132V138.529C683.158 139.174 681.976 139.764 680.15 140.302C678.359 140.803 676.282 141.251 673.918 141.645C671.591 142.003 669.316 142.325 667.096 142.612C664.912 142.862 663.139 143.077 661.778 143.256C658.483 143.686 655.403 144.384 652.538 145.351C649.709 146.282 647.417 147.697 645.662 149.595C643.943 151.457 643.084 154 643.084 157.223C643.084 161.628 644.713 164.959 647.972 167.215C651.267 169.435 655.439 170.545 660.489 170.545ZM721.231 180V69.9835H733.909V110.595H734.984C735.915 109.163 737.204 107.336 738.851 105.116C740.534 102.859 742.934 100.854 746.05 99.0992C749.201 97.3085 753.463 96.4132 758.835 96.4132C765.782 96.4132 771.906 98.1501 777.207 101.624C782.507 105.098 786.643 110.022 789.616 116.397C792.588 122.771 794.074 130.292 794.074 138.959C794.074 147.697 792.588 155.271 789.616 161.682C786.643 168.056 782.525 172.999 777.26 176.508C771.996 179.982 765.926 181.719 759.05 181.719C753.749 181.719 749.506 180.842 746.318 179.087C743.131 177.296 740.678 175.273 738.959 173.017C737.24 170.725 735.915 168.826 734.984 167.322H733.479V180H721.231ZM733.694 138.744C733.694 144.975 734.607 150.472 736.434 155.236C738.26 159.963 740.928 163.669 744.438 166.355C747.948 169.006 752.245 170.331 757.331 170.331C762.631 170.331 767.054 168.934 770.599 166.14C774.18 163.311 776.866 159.515 778.657 154.752C780.484 149.953 781.397 144.617 781.397 138.744C781.397 132.942 780.501 127.713 778.711 123.058C776.956 118.366 774.288 114.66 770.707 111.938C767.161 109.18 762.703 107.802 757.331 107.802C752.174 107.802 747.84 109.109 744.331 111.723C740.821 114.302 738.171 117.919 736.38 122.574C734.59 127.194 733.694 132.584 733.694 138.744ZM826.145 69.9835V180H813.467V69.9835H826.145ZM883.96 181.719C876.009 181.719 869.151 179.964 863.385 176.455C857.655 172.909 853.232 167.967 850.117 161.628C847.037 155.253 845.497 147.84 845.497 139.388C845.497 130.937 847.037 123.488 850.117 117.041C853.232 110.559 857.566 105.51 863.117 101.893C868.704 98.2397 875.221 96.4132 882.671 96.4132C886.968 96.4132 891.212 97.1295 895.402 98.562C899.592 99.9945 903.406 102.322 906.844 105.545C910.282 108.733 913.022 112.959 915.063 118.223C917.104 123.488 918.125 129.97 918.125 137.669V143.041H854.522V132.083H905.232C905.232 127.427 904.301 123.273 902.439 119.62C900.613 115.967 897.998 113.084 894.596 110.971C891.23 108.858 887.255 107.802 882.671 107.802C877.621 107.802 873.252 109.055 869.563 111.562C865.91 114.033 863.099 117.256 861.129 121.231C859.159 125.207 858.175 129.468 858.175 134.017V141.322C858.175 147.554 859.249 152.836 861.398 157.169C863.582 161.467 866.609 164.744 870.476 167C874.344 169.22 878.839 170.331 883.96 170.331C887.29 170.331 890.299 169.865 892.985 168.934C895.706 167.967 898.052 166.534 900.022 164.636C901.991 162.702 903.513 160.303 904.588 157.438L916.836 160.876C915.547 165.03 913.38 168.683 910.336 171.835C907.292 174.95 903.531 177.386 899.055 179.14C894.578 180.86 889.547 181.719 883.96 181.719ZM943.642 180H929.675L970.071 69.9835H983.823L1024.22 180H1010.25L977.377 87.3884H976.518L943.642 180ZM948.799 137.025H1005.1V148.843H948.799V137.025ZM1054.68 69.9835V180H1041.36V69.9835H1054.68Z" fill="white"/>
<path d="M260.322 180H259.14V181.182H260.322V180ZM260.322 69.9835V68.8016H259.14V69.9835H260.322ZM323.174 76.5909L322.58 77.6131L322.584 77.6152L323.174 76.5909ZM340.632 95.4463L339.572 95.9692L339.573 95.9711L340.632 95.4463ZM340.579 154.376L341.637 154.901L341.638 154.899L340.579 154.376ZM322.744 173.393L323.325 174.422L323.328 174.42L322.744 173.393ZM273.645 168.182H272.463V169.364H273.645V168.182ZM316.029 162.917L315.431 161.898L316.029 162.917ZM329.459 101.839L328.381 102.324L328.382 102.326L329.459 101.839ZM316.459 87.0124L315.849 88.0247L315.853 88.0275L316.459 87.0124ZM273.645 81.8016V80.6198H272.463V81.8016H273.645ZM294.273 180V178.818H260.322V180V181.182H294.273V180ZM260.322 180H261.504V69.9835H260.322H259.14V180H260.322ZM260.322 69.9835V71.1653H295.777V69.9835V68.8016H260.322V69.9835ZM295.777 69.9835V71.1653C306.286 71.1653 315.204 73.3331 322.58 77.6131L323.174 76.5909L323.767 75.5687C315.959 71.0388 306.613 68.8016 295.777 68.8016V69.9835ZM323.174 76.5909L322.584 77.6152C329.964 81.8622 335.624 87.9684 339.572 95.9692L340.632 95.4463L341.692 94.9233C337.546 86.5219 331.568 80.0579 323.763 75.5666L323.174 76.5909ZM340.632 95.4463L339.573 95.9711C343.522 103.938 345.521 113.526 345.521 124.777H346.702H347.884C347.884 113.251 345.836 103.285 341.691 94.9215L340.632 95.4463ZM346.702 124.777H345.521C345.521 136.098 343.504 145.778 339.519 153.853L340.579 154.376L341.638 154.899C345.818 146.429 347.884 136.375 347.884 124.777H346.702ZM340.579 154.376L339.52 153.851C335.539 161.882 329.757 168.044 322.159 172.365L322.744 173.393L323.328 174.42C331.345 169.86 337.453 163.344 341.637 154.901L340.579 154.376ZM322.744 173.393L322.163 172.363C314.572 176.646 305.292 178.818 294.273 178.818V180V181.182C305.6 181.182 315.302 178.949 323.325 174.422L322.744 173.393ZM273.645 168.182V169.364H293.413V168.182V167H273.645V168.182ZM293.413 168.182V169.364C302.656 169.364 310.417 167.581 316.627 163.937L316.029 162.917L315.431 161.898C309.68 165.273 302.363 167 293.413 167V168.182ZM316.029 162.917L316.627 163.937C322.824 160.3 327.447 155.116 330.481 148.417L329.405 147.93L328.328 147.442C325.49 153.708 321.195 158.515 315.431 161.898L316.029 162.917ZM329.405 147.93L330.481 148.417C333.503 141.748 334.992 133.856 334.992 124.777H333.81H332.628C332.628 133.604 331.18 141.147 328.328 147.442L329.405 147.93ZM333.81 124.777H334.992C334.992 115.77 333.521 107.95 330.535 101.352L329.459 101.839L328.382 102.326C331.198 108.549 332.628 116.021 332.628 124.777H333.81ZM329.459 101.839L330.536 101.354C327.542 94.699 323.049 89.5662 317.064 85.9973L316.459 87.0124L315.853 88.0275C321.4 91.3346 325.574 96.0861 328.381 102.324L329.459 101.839ZM316.459 87.0124L317.069 86.0001C311.074 82.3886 303.669 80.6198 294.917 80.6198V81.8016V82.9835C303.356 82.9835 310.311 84.6885 315.849 88.0247L316.459 87.0124ZM294.917 81.8016V80.6198H273.645V81.8016V82.9835H294.917V81.8016ZM273.645 81.8016H272.463V168.182H273.645H274.826V81.8016H273.645ZM381.351 176.455L380.729 177.46L380.737 177.464L381.351 176.455ZM368.083 161.628L367.019 162.142L367.022 162.149L368.083 161.628ZM368.083 117.041L367.017 116.529L367.016 116.532L368.083 117.041ZM381.083 101.893L381.728 102.883L381.729 102.882L381.083 101.893ZM413.368 98.562L413.75 97.4437L413.75 97.4437L413.368 98.562ZM424.81 105.545L424.002 106.408L424.006 106.412L424.81 105.545ZM433.029 118.223L434.131 117.796L434.131 117.796L433.029 118.223ZM436.091 143.041V144.223H437.273V143.041H436.091ZM372.488 143.041H371.306V144.223H372.488V143.041ZM372.488 132.083V130.901H371.306V132.083H372.488ZM423.198 132.083V133.264H424.38V132.083H423.198ZM420.405 119.62L419.348 120.148L419.352 120.157L420.405 119.62ZM412.562 110.971L411.934 111.972L411.938 111.975L412.562 110.971ZM387.529 111.562L388.191 112.541L388.193 112.539L387.529 111.562ZM379.095 121.231L378.036 120.707L378.036 120.707L379.095 121.231ZM379.364 157.169L378.305 157.694L378.31 157.705L379.364 157.169ZM388.442 167L387.847 168.021L387.854 168.025L388.442 167ZM410.95 168.934L411.338 170.051L411.346 170.048L410.95 168.934ZM417.988 164.636L418.808 165.487L418.816 165.48L417.988 164.636ZM422.554 157.438L422.873 156.3L421.828 156.007L421.447 157.023L422.554 157.438ZM434.802 160.876L435.93 161.226L436.29 160.066L435.121 159.738L434.802 160.876ZM428.302 171.835L429.147 172.661L429.152 172.656L428.302 171.835ZM417.021 179.14L417.444 180.244L417.452 180.241L417.021 179.14ZM401.926 181.719V180.537C394.153 180.537 387.516 178.823 381.966 175.445L381.351 176.455L380.737 177.464C386.718 181.105 393.797 182.901 401.926 182.901V181.719ZM381.351 176.455L381.973 175.45C376.441 172.027 372.166 167.256 369.143 161.107L368.083 161.628L367.022 162.149C370.231 168.677 374.801 173.792 380.729 177.46L381.351 176.455ZM368.083 161.628L369.147 161.114C366.158 154.928 364.645 147.696 364.645 139.388H363.463H362.281C362.281 147.984 363.848 155.579 367.019 162.142L368.083 161.628ZM363.463 139.388H364.645C364.645 131.081 366.158 123.811 369.149 117.551L368.083 117.041L367.016 116.532C363.848 123.164 362.281 130.792 362.281 139.388H363.463ZM368.083 117.041L369.148 117.553C372.178 111.249 376.373 106.372 381.728 102.883L381.083 101.893L380.437 100.902C374.69 104.648 370.219 109.87 367.017 116.529L368.083 117.041ZM381.083 101.893L381.729 102.882C387.102 99.3688 393.389 97.595 400.636 97.595V96.4132V95.2314C392.985 95.2314 386.237 97.1105 380.436 100.903L381.083 101.893ZM400.636 96.4132V97.595C404.8 97.595 408.915 98.2885 412.985 99.6802L413.368 98.562L413.75 97.4437C409.441 95.9704 405.068 95.2314 400.636 95.2314V96.4132ZM413.368 98.562L412.985 99.6802C417.007 101.055 420.678 103.292 424.002 106.408L424.81 105.545L425.618 104.683C422.066 101.353 418.109 98.9338 413.75 97.4437L413.368 98.562ZM424.81 105.545L424.006 106.412C427.289 109.455 429.937 113.519 431.927 118.65L433.029 118.223L434.131 117.796C432.038 112.398 429.207 108.01 425.613 104.679L424.81 105.545ZM433.029 118.223L431.927 118.65C433.9 123.739 434.909 130.066 434.909 137.669H436.091H437.273C437.273 129.873 436.24 123.236 434.131 117.796L433.029 118.223ZM436.091 137.669H434.909V143.041H436.091H437.273V137.669H436.091ZM436.091 143.041V141.86H372.488V143.041V144.223H436.091V143.041ZM372.488 143.041H373.669V132.083H372.488H371.306V143.041H372.488ZM372.488 132.083V133.264H423.198V132.083V130.901H372.488V132.083ZM423.198 132.083H424.38C424.38 127.266 423.416 122.923 421.458 119.083L420.405 119.62L419.352 120.157C421.119 123.622 422.017 127.588 422.017 132.083H423.198ZM420.405 119.62L421.462 119.091C419.54 115.247 416.777 112.198 413.186 109.967L412.562 110.971L411.938 111.975C415.151 113.97 417.617 116.687 419.348 120.148L420.405 119.62ZM412.562 110.971L413.19 109.97C409.608 107.722 405.408 106.62 400.636 106.62V107.802V108.983C405.033 108.983 408.783 109.994 411.934 111.972L412.562 110.971ZM400.636 107.802V106.62C395.382 106.62 390.774 107.927 386.865 110.585L387.529 111.562L388.193 112.539C391.661 110.183 395.791 108.983 400.636 108.983V107.802ZM387.529 111.562L386.867 110.583C383.043 113.169 380.096 116.549 378.036 120.707L379.095 121.231L380.154 121.756C382.034 117.963 384.709 114.897 388.191 112.541L387.529 111.562ZM379.095 121.231L378.036 120.707C375.984 124.849 374.959 129.291 374.959 134.017H376.141H377.322C377.322 129.646 378.267 125.564 380.154 121.756L379.095 121.231ZM376.141 134.017H374.959V141.322H376.141H377.322V134.017H376.141ZM376.141 141.322H374.959C374.959 147.685 376.055 153.158 378.305 157.694L379.364 157.169L380.422 156.644C378.374 152.514 377.322 147.422 377.322 141.322H376.141ZM379.364 157.169L378.31 157.705C380.589 162.189 383.768 165.641 387.847 168.021L388.442 167L389.038 165.979C385.381 163.846 382.507 160.745 380.417 156.634L379.364 157.169ZM388.442 167L387.854 168.025C391.926 170.363 396.629 171.512 401.926 171.512V170.331V169.149C396.98 169.149 392.694 168.078 389.031 165.975L388.442 167ZM401.926 170.331V171.512C405.366 171.512 408.508 171.031 411.338 170.051L410.95 168.934L410.563 167.817C408.021 168.699 405.147 169.149 401.926 169.149V170.331ZM410.95 168.934L411.346 170.048C414.217 169.027 416.71 167.509 418.808 165.487L417.988 164.636L417.168 163.785C415.326 165.56 413.127 166.906 410.555 167.82L410.95 168.934ZM417.988 164.636L418.816 165.48C420.921 163.412 422.532 160.862 423.66 157.853L422.554 157.438L421.447 157.023C420.427 159.744 418.994 161.992 417.16 163.793L417.988 164.636ZM422.554 157.438L422.234 158.576L434.482 162.014L434.802 160.876L435.121 159.738L422.873 156.3L422.554 157.438ZM434.802 160.876L433.673 160.526C432.439 164.502 430.368 167.994 427.452 171.014L428.302 171.835L429.152 172.656C432.323 169.372 434.586 165.558 435.93 161.226L434.802 160.876ZM428.302 171.835L427.456 171.009C424.541 173.993 420.926 176.34 416.589 178.04L417.021 179.14L417.452 180.241C422.068 178.431 425.974 175.908 429.147 172.661L428.302 171.835ZM417.021 179.14L416.597 178.037C412.276 179.697 407.391 180.537 401.926 180.537V181.719V182.901C407.634 182.901 412.812 182.023 417.444 180.244L417.021 179.14ZM492.12 97.4876H493.302V96.3058H492.12V97.4876ZM492.12 108.231V109.413H493.302V108.231H492.12ZM447.641 108.231H446.459V109.413H447.641V108.231ZM447.641 97.4876V96.3058H446.459V97.4876H447.641ZM460.963 180H459.781V181.182H460.963V180ZM464.293 74.281L463.327 73.6003L463.327 73.6003L464.293 74.281ZM472.942 67.1901L472.462 66.1101L472.462 66.1101L472.942 67.1901ZM491.798 65.5785L491.506 66.7238L491.506 66.7238L491.798 65.5785ZM496.202 66.9752L497.324 67.3489L497.663 66.331L496.682 65.8952L496.202 66.9752ZM492.55 77.9339L492.176 79.055L493.297 79.4288L493.671 78.3076L492.55 77.9339ZM489.864 77.1281L489.534 78.2631L489.544 78.2658L489.864 77.1281ZM476.38 79.814L475.494 79.0326L475.486 79.0412L476.38 79.814ZM473.641 180V181.182H474.822V180H473.641ZM492.12 97.4876H490.938V108.231H492.12H493.302V97.4876H492.12ZM492.12 108.231V107.05H447.641V108.231V109.413H492.12V108.231ZM447.641 108.231H448.822V97.4876H447.641H446.459V108.231H447.641ZM447.641 97.4876V98.6694H492.12V97.4876V96.3058H447.641V97.4876ZM460.963 180H462.145V86.0992H460.963H459.781V180H460.963ZM460.963 86.0992H462.145C462.145 81.5597 463.209 77.8727 465.26 74.9617L464.293 74.281L463.327 73.6003C460.937 76.9923 459.781 81.1841 459.781 86.0992H460.963ZM464.293 74.281L465.26 74.9617C467.356 71.9859 470.071 69.7596 473.422 68.27L472.942 67.1901L472.462 66.1101C468.723 67.772 465.671 70.273 463.327 73.6003L464.293 74.281ZM472.942 67.1901L473.422 68.27C476.814 66.7625 480.393 66.0083 484.169 66.0083V64.8264V63.6446C480.067 63.6446 476.161 64.4661 472.462 66.1101L472.942 67.1901ZM484.169 64.8264V66.0083C487.233 66.0083 489.668 66.2559 491.506 66.7238L491.798 65.5785L492.089 64.4332C489.988 63.8983 487.337 63.6446 484.169 63.6446V64.8264ZM491.798 65.5785L491.506 66.7238C493.459 67.2208 494.849 67.6669 495.723 68.0552L496.202 66.9752L496.682 65.8952C495.622 65.424 494.076 64.939 492.089 64.4332L491.798 65.5785ZM496.202 66.9752L495.081 66.6015L491.428 77.5602L492.55 77.9339L493.671 78.3076L497.324 67.3489L496.202 66.9752ZM492.55 77.9339L492.923 76.8127C492.253 76.5891 491.336 76.3146 490.184 75.9904L489.864 77.1281L489.544 78.2658C490.683 78.5862 491.557 78.8489 492.176 79.055L492.55 77.9339ZM489.864 77.1281L490.193 75.9931C488.933 75.6271 487.34 75.4628 485.459 75.4628V76.6446V77.8264C487.23 77.8264 488.574 77.9844 489.534 78.263L489.864 77.1281ZM485.459 76.6446V75.4628C481.097 75.4628 477.671 76.5619 475.494 79.0326L476.38 79.814L477.267 80.5955C478.814 78.8403 481.441 77.8264 485.459 77.8264V76.6446ZM476.38 79.814L475.486 79.0412C473.405 81.4492 472.459 84.8691 472.459 89.1074H473.641H474.822C474.822 85.1805 475.703 82.4048 477.274 80.5869L476.38 79.814ZM473.641 89.1074H472.459V180H473.641H474.822V89.1074H473.641ZM473.641 180V178.818H460.963V180V181.182H473.641V180ZM509.887 180H508.706V181.182H509.887V180ZM509.887 97.4876V96.3058H508.706V97.4876H509.887ZM522.565 97.4876H523.747V96.3058H522.565V97.4876ZM522.565 180V181.182H523.747V180H522.565ZM509.941 81.2107L509.123 82.0637L509.132 82.0718L509.941 81.2107ZM509.941 69.0702L509.132 68.2091L509.123 68.2173L509.941 69.0702ZM522.673 69.0702L521.854 69.9232L521.863 69.9313L522.673 69.0702ZM522.673 81.2107L521.863 80.3496L521.854 80.3578L522.673 81.2107ZM509.887 180H511.069V97.4876H509.887H508.706V180H509.887ZM509.887 97.4876V98.6694H522.565V97.4876V96.3058H509.887V97.4876ZM522.565 97.4876H521.383V180H522.565H523.747V97.4876H522.565ZM522.565 180V178.818H509.887V180V181.182H522.565V180ZM516.334 83.7355V82.5537C514.162 82.5537 512.321 81.8256 510.751 80.3496L509.941 81.2107L509.132 82.0718C511.143 83.9623 513.564 84.9174 516.334 84.9174V83.7355ZM509.941 81.2107L510.759 80.3578C509.229 78.8903 508.491 77.1719 508.491 75.1405H507.309H506.127C506.127 77.8364 507.143 80.1648 509.123 82.0636L509.941 81.2107ZM507.309 75.1405H508.491C508.491 73.1091 509.229 71.3907 510.759 69.9231L509.941 69.0702L509.123 68.2173C507.143 70.1162 506.127 72.4446 506.127 75.1405H507.309ZM509.941 69.0702L510.751 69.9313C512.321 68.4554 514.162 67.7273 516.334 67.7273V66.5454V65.3636C513.564 65.3636 511.143 66.3187 509.132 68.2091L509.941 69.0702ZM516.334 66.5454V67.7273C518.505 67.7273 520.324 68.4548 521.854 69.9231L522.673 69.0702L523.491 68.2173C521.512 66.3193 519.104 65.3636 516.334 65.3636V66.5454ZM522.673 69.0702L521.863 69.9313C523.427 71.4012 524.177 73.1173 524.177 75.1405H525.358H526.54C526.54 72.4364 525.5 70.1057 523.482 68.2091L522.673 69.0702ZM525.358 75.1405H524.177C524.177 77.1637 523.427 78.8798 521.863 80.3496L522.673 81.2107L523.482 82.0718C525.5 80.1753 526.54 77.8446 526.54 75.1405H525.358ZM522.673 81.2107L521.854 80.3578C520.324 81.8262 518.505 82.5537 516.334 82.5537V83.7355V84.9174C519.104 84.9174 521.512 83.9617 523.491 82.0636L522.673 81.2107ZM558.463 180V181.182H559.645V180H558.463ZM545.785 180H544.603V181.182H545.785V180ZM545.785 97.4876V96.3058H544.603V97.4876H545.785ZM558.033 97.4876H559.215V96.3058H558.033V97.4876ZM558.033 110.38H556.851V111.562H558.033V110.38ZM559.107 110.38V111.562H559.864L560.18 110.875L559.107 110.38ZM567.917 100.281L568.558 101.274L568.565 101.27L567.917 100.281ZM597.839 99.8512L597.272 100.888L597.279 100.892L597.839 99.8512ZM607.616 110.165L606.56 110.697L606.562 110.7L607.616 110.165ZM611.107 180V181.182H612.289V180H611.107ZM598.43 180H597.248V181.182H598.43V180ZM593.38 113.281L592.511 114.082L592.515 114.086L593.38 113.281ZM568.669 110.434L568.099 109.399L568.094 109.401L568.669 110.434ZM561.202 118.116L560.164 117.552L560.164 117.552L561.202 118.116ZM558.463 130.364H557.281V180H558.463H559.645V130.364H558.463ZM558.463 180V178.818H545.785V180V181.182H558.463V180ZM545.785 180H546.967V97.4876H545.785H544.603V180H545.785ZM545.785 97.4876V98.6694H558.033V97.4876V96.3058H545.785V97.4876ZM558.033 97.4876H556.851V110.38H558.033H559.215V97.4876H558.033ZM558.033 110.38V111.562H559.107V110.38V109.198H558.033V110.38ZM559.107 110.38L560.18 110.875C562.019 106.892 564.804 103.697 568.558 101.274L567.917 100.281L567.276 99.288C563.152 101.95 560.064 105.488 558.034 109.885L559.107 110.38ZM567.917 100.281L568.565 101.27C572.259 98.852 577.099 97.595 583.174 97.595V96.4132V95.2314C576.785 95.2314 571.455 96.553 567.27 99.2922L567.917 100.281ZM583.174 96.4132V97.595C588.596 97.595 593.283 98.7062 597.272 100.888L597.839 99.8512L598.406 98.8144C594.015 96.4123 588.925 95.2314 583.174 95.2314V96.4132ZM597.839 99.8512L597.279 100.892C601.237 103.023 604.332 106.274 606.56 110.697L607.616 110.165L608.671 109.633C606.244 104.817 602.821 101.192 598.399 98.8107L597.839 99.8512ZM607.616 110.165L606.562 110.7C608.781 115.069 609.926 120.672 609.926 127.57H611.107H612.289C612.289 120.429 611.106 114.429 608.669 109.63L607.616 110.165ZM611.107 127.57H609.926V180H611.107H612.289V127.57H611.107ZM611.107 180V178.818H598.43V180V181.182H611.107V180ZM598.43 180H599.612V128.43H598.43H597.248V180H598.43ZM598.43 128.43H599.612C599.612 121.745 597.872 116.373 594.245 112.476L593.38 113.281L592.515 114.086C595.621 117.423 597.248 122.151 597.248 128.43H598.43ZM593.38 113.281L594.249 112.48C590.618 108.54 585.659 106.62 579.521 106.62V107.802V108.983C585.129 108.983 589.409 110.716 592.511 114.082L593.38 113.281ZM579.521 107.802V106.62C575.297 106.62 571.48 107.537 568.099 109.399L568.669 110.434L569.239 111.469C572.233 109.821 575.65 108.983 579.521 108.983V107.802ZM568.669 110.434L568.094 109.401C564.735 111.272 562.09 114.001 560.164 117.552L561.202 118.116L562.241 118.679C563.968 115.497 566.301 113.105 569.244 111.466L568.669 110.434ZM561.202 118.116L560.164 117.552C558.223 121.13 557.281 125.417 557.281 130.364H558.463H559.645C559.645 125.713 560.53 121.834 562.241 118.679L561.202 118.116ZM644.319 178.979L643.816 180.049L643.823 180.052L644.319 178.979ZM634.166 170.331L633.18 170.982L633.183 170.986L634.166 170.331ZM633.199 145.083L634.197 145.716L634.201 145.71L633.199 145.083ZM650.98 134.339L651.233 135.493L651.241 135.491L650.98 134.339ZM662.423 132.298L662.272 131.125L662.269 131.126L662.423 132.298ZM674.617 130.847L674.738 132.023L674.75 132.021L674.617 130.847ZM681.493 129.074L680.915 128.044L680.904 128.05L681.493 129.074ZM679.344 111.992L678.498 112.817L678.503 112.822L679.344 111.992ZM652.055 111.562L652.776 112.498L652.776 112.498L652.055 111.562ZM644.803 120.05L644.405 121.163L645.421 121.525L645.875 120.547L644.803 120.05ZM632.77 115.752L631.683 115.287L631.188 116.442L632.372 116.865L632.77 115.752ZM641.365 104.041L642.092 104.973L642.093 104.972L641.365 104.041ZM653.183 98.1322L653.481 99.2759L653.487 99.2741L653.183 98.1322ZM674.993 97.3802L674.775 98.5418L674.789 98.5442L674.993 97.3802ZM685.038 101.194L684.43 102.208L684.435 102.211L685.038 101.194ZM693.15 109.95L692.114 110.52L692.114 110.52L693.15 109.95ZM696.373 180V181.182H697.555V180H696.373ZM683.695 180H682.513V181.182H683.695V180ZM683.695 168.826H684.877V167.645H683.695V168.826ZM683.051 168.826V167.645H682.307L681.985 168.315L683.051 168.826ZM678.753 174.574L679.596 175.403L679.596 175.403L678.753 174.574ZM670.749 179.785L670.282 178.699L670.282 178.699L670.749 179.785ZM673.166 167.591L672.583 166.563L672.579 166.565L673.166 167.591ZM681.009 159.963L679.985 159.374L679.98 159.383L681.009 159.963ZM683.695 138.529H684.877V135.265L682.787 137.772L683.695 138.529ZM680.15 140.302L680.468 141.44L680.476 141.438L680.483 141.435L680.15 140.302ZM673.918 141.645L674.098 142.813L674.105 142.812L674.113 142.81L673.918 141.645ZM667.096 142.612L667.231 143.786L667.239 143.785L667.247 143.784L667.096 142.612ZM661.778 143.256L661.931 144.428L661.932 144.428L661.778 143.256ZM652.538 145.351L652.908 146.474L652.916 146.471L652.538 145.351ZM645.662 149.595L644.794 148.793L644.794 148.793L645.662 149.595ZM647.972 167.215L647.299 168.187L647.306 168.191L647.312 168.195L647.972 167.215ZM658.555 181.934V180.752C653.478 180.752 648.904 179.797 644.815 177.907L644.319 178.979L643.823 180.052C648.257 182.101 653.174 183.116 658.555 183.116V181.934ZM644.319 178.979L644.822 177.91C640.747 175.992 637.532 173.249 635.15 169.675L634.166 170.331L633.183 170.986C635.814 174.933 639.368 177.956 643.816 180.049L644.319 178.979ZM634.166 170.331L635.153 169.679C632.795 166.109 631.588 161.762 631.588 156.579H630.406H629.224C629.224 162.139 630.524 166.96 633.18 170.982L634.166 170.331ZM630.406 156.579H631.588C631.588 151.997 632.491 148.406 634.197 145.716L633.199 145.083L632.201 144.45C630.183 147.632 629.224 151.705 629.224 156.579H630.406ZM633.199 145.083L634.201 145.71C635.954 142.913 638.29 140.726 641.228 139.139L640.666 138.099L640.105 137.059C636.811 138.839 634.17 141.308 632.198 144.455L633.199 145.083ZM640.666 138.099L641.228 139.139C644.239 137.513 647.571 136.295 651.233 135.493L650.98 134.339L650.728 133.184C646.869 134.03 643.325 135.319 640.105 137.059L640.666 138.099ZM650.98 134.339L651.241 135.491C655.002 134.64 658.78 133.966 662.576 133.469L662.423 132.298L662.269 131.126C658.401 131.632 654.551 132.319 650.719 133.186L650.98 134.339ZM662.423 132.298L662.573 133.47C667.582 132.826 671.636 132.344 674.738 132.023L674.617 130.847L674.495 129.672C671.366 129.995 667.29 130.48 662.272 131.125L662.423 132.298ZM674.617 130.847L674.75 132.021C677.942 131.659 680.433 131.047 682.082 130.099L681.493 129.074L680.904 128.05C679.688 128.749 677.595 129.319 674.483 129.673L674.617 130.847ZM681.493 129.074L682.071 130.105C683.997 129.025 684.877 127.138 684.877 124.777H683.695H682.513C682.513 126.498 681.925 127.477 680.915 128.044L681.493 129.074ZM683.695 124.777H684.877V124.347H683.695H682.513V124.777H683.695ZM683.695 124.347H684.877C684.877 118.828 683.361 114.377 680.185 111.161L679.344 111.992L678.503 112.822C681.128 115.48 682.513 119.265 682.513 124.347H683.695ZM679.344 111.992L680.19 111.166C677.023 107.92 672.31 106.405 666.29 106.405V107.587V108.769C671.946 108.769 675.935 110.19 678.498 112.817L679.344 111.992ZM666.29 107.587V106.405C660.078 106.405 655.046 107.764 651.333 110.626L652.055 111.562L652.776 112.498C655.94 110.059 660.398 108.769 666.29 108.769V107.587ZM652.055 111.562L651.333 110.626C647.79 113.357 645.228 116.327 643.731 119.552L644.803 120.05L645.875 120.547C647.171 117.756 649.444 115.067 652.776 112.498L652.055 111.562ZM644.803 120.05L645.2 118.937L633.167 114.639L632.77 115.752L632.372 116.865L644.405 121.163L644.803 120.05ZM632.77 115.752L633.856 116.218C635.942 111.35 638.696 107.622 642.092 104.973L641.365 104.041L640.638 103.109C636.871 106.048 633.895 110.126 631.683 115.287L632.77 115.752ZM641.365 104.041L642.093 104.972C645.588 102.238 649.382 100.344 653.481 99.2759L653.183 98.1322L652.885 96.9886C648.46 98.1413 644.375 100.186 640.637 103.11L641.365 104.041ZM653.183 98.1322L653.487 99.2741C657.693 98.1528 661.816 97.595 665.861 97.595V96.4132V95.2314C661.596 95.2314 657.268 95.8197 652.878 96.9903L653.183 98.1322ZM665.861 96.4132V97.595C668.419 97.595 671.387 97.9066 674.775 98.5417L674.993 97.3802L675.211 96.2186C671.722 95.5645 668.603 95.2314 665.861 95.2314V96.4132ZM674.993 97.3802L674.789 98.5442C678.111 99.1264 681.323 100.343 684.43 102.208L685.038 101.194L685.646 100.181C682.307 98.1773 678.823 96.8515 675.197 96.2161L674.993 97.3802ZM685.038 101.194L684.435 102.211C687.483 104.019 690.049 106.769 692.114 110.52L693.15 109.95L694.185 109.381C691.953 105.325 689.111 102.237 685.641 100.178L685.038 101.194ZM693.15 109.95L692.114 110.52C694.132 114.186 695.191 119.195 695.191 125.636H696.373H697.555C697.555 118.971 696.465 113.522 694.185 109.381L693.15 109.95ZM696.373 125.636H695.191V180H696.373H697.555V125.636H696.373ZM696.373 180V178.818H683.695V180V181.182H696.373V180ZM683.695 180H684.877V168.826H683.695H682.513V180H683.695ZM683.695 168.826V167.645H683.051V168.826V170.008H683.695V168.826ZM683.051 168.826L681.985 168.315C681.201 169.949 679.861 171.76 677.91 173.746L678.753 174.574L679.596 175.403C681.656 173.306 683.182 171.285 684.116 169.338L683.051 168.826ZM678.753 174.574L677.91 173.746C676.037 175.653 673.508 177.312 670.282 178.699L670.749 179.785L671.216 180.871C674.651 179.393 677.459 177.578 679.596 175.403L678.753 174.574ZM670.749 179.785L670.282 178.699C667.138 180.052 663.242 180.752 658.555 180.752V181.934V183.116C663.465 183.116 667.698 182.384 671.216 180.871L670.749 179.785ZM660.489 170.545V171.727C665.655 171.727 670.095 170.712 673.754 168.616L673.166 167.591L672.579 166.565C669.361 168.409 665.35 169.364 660.489 169.364V170.545ZM673.166 167.591L673.749 168.619C677.388 166.556 680.167 163.867 682.039 160.543L681.009 159.963L679.98 159.383C678.342 162.29 675.893 164.686 672.583 166.563L673.166 167.591ZM681.009 159.963L682.034 160.552C683.923 157.265 684.877 153.786 684.877 150.132H683.695H682.513C682.513 153.354 681.677 156.429 679.985 159.374L681.009 159.963ZM683.695 150.132H684.877V138.529H683.695H682.513V150.132H683.695ZM683.695 138.529L682.787 137.772C682.666 137.918 682.397 138.139 681.877 138.399C681.37 138.652 680.689 138.911 679.816 139.168L680.15 140.302L680.483 141.435C681.437 141.155 682.26 140.85 682.935 140.513C683.597 140.182 684.187 139.784 684.603 139.285L683.695 138.529ZM680.15 140.302L679.831 139.164C678.091 139.651 676.057 140.09 673.724 140.479L673.918 141.645L674.113 142.81C676.507 142.411 678.627 141.955 680.468 141.44L680.15 140.302ZM673.918 141.645L673.739 140.477C671.42 140.833 669.155 141.154 666.945 141.439L667.096 142.612L667.247 143.784C669.478 143.496 671.761 143.172 674.098 142.813L673.918 141.645ZM667.096 142.612L666.961 141.437C664.774 141.689 662.994 141.904 661.624 142.084L661.778 143.256L661.932 144.428C663.284 144.25 665.049 144.036 667.231 143.786L667.096 142.612ZM661.778 143.256L661.625 142.084C658.261 142.523 655.105 143.238 652.16 144.231L652.538 145.351L652.916 146.471C655.701 145.531 658.705 144.849 661.931 144.428L661.778 143.256ZM652.538 145.351L652.169 144.229C649.178 145.213 646.705 146.726 644.794 148.793L645.662 149.595L646.53 150.397C648.129 148.668 650.24 147.352 652.908 146.474L652.538 145.351ZM645.662 149.595L644.794 148.793C642.823 150.929 641.902 153.787 641.902 157.223H643.084H644.266C644.266 154.213 645.064 151.986 646.531 150.397L645.662 149.595ZM643.084 157.223H641.902C641.902 161.965 643.682 165.682 647.299 168.187L647.972 167.215L648.645 166.243C645.744 164.235 644.266 161.291 644.266 157.223H643.084ZM647.972 167.215L647.312 168.195C650.848 170.578 655.267 171.727 660.489 171.727V170.545V169.364C655.611 169.364 651.685 168.292 648.633 166.235L647.972 167.215ZM721.231 180H720.05V181.182H721.231V180ZM721.231 69.9835V68.8016H720.05V69.9835H721.231ZM733.909 69.9835H735.091V68.8016H733.909V69.9835ZM733.909 110.595H732.727V111.777H733.909V110.595ZM734.984 110.595V111.777H735.625L735.974 111.239L734.984 110.595ZM738.851 105.116L737.904 104.409L737.902 104.412L738.851 105.116ZM746.05 99.0992L746.63 100.129L746.633 100.127L746.05 99.0992ZM777.207 101.624L777.854 100.636L777.854 100.636L777.207 101.624ZM789.616 161.682L790.687 162.181L790.688 162.179L789.616 161.682ZM777.26 176.508L777.911 177.495L777.916 177.492L777.26 176.508ZM746.318 179.087L745.739 180.117L745.748 180.122L746.318 179.087ZM738.959 173.017L738.013 173.726L738.019 173.733L738.959 173.017ZM734.984 167.322L735.988 166.7L735.642 166.14H734.984V167.322ZM733.479 167.322V166.14H732.298V167.322H733.479ZM733.479 180V181.182H734.661V180H733.479ZM736.434 155.236L735.33 155.659L735.332 155.661L736.434 155.236ZM744.438 166.355L743.72 167.294L743.726 167.299L744.438 166.355ZM770.599 166.14L771.331 167.069L771.332 167.068L770.599 166.14ZM778.657 154.752L777.553 154.332L777.551 154.336L778.657 154.752ZM778.711 123.058L777.604 123.472L777.608 123.482L778.711 123.058ZM770.707 111.938L769.981 112.871L769.992 112.879L770.707 111.938ZM744.331 111.723L745.03 112.676L745.037 112.671L744.331 111.723ZM736.38 122.574L737.482 123.001L737.483 122.999L736.38 122.574ZM721.231 180H722.413V69.9835H721.231H720.05V180H721.231ZM721.231 69.9835V71.1653H733.909V69.9835V68.8016H721.231V69.9835ZM733.909 69.9835H732.727V110.595H733.909H735.091V69.9835H733.909ZM733.909 110.595V111.777H734.984V110.595V109.413H733.909V110.595ZM734.984 110.595L735.974 111.239C736.887 109.836 738.16 108.031 739.8 105.82L738.851 105.116L737.902 104.412C736.248 106.641 734.943 108.489 733.993 109.951L734.984 110.595ZM738.851 105.116L739.799 105.822C741.36 103.729 743.62 101.824 746.63 100.129L746.05 99.0992L745.47 98.0694C742.248 99.8841 739.709 101.99 737.904 104.409L738.851 105.116ZM746.05 99.0992L746.633 100.127C749.541 98.4745 753.576 97.595 758.835 97.595V96.4132V95.2314C753.35 95.2314 748.861 96.1426 745.466 98.0716L746.05 99.0992ZM758.835 96.4132V97.595C765.575 97.595 771.469 99.2768 776.559 102.612L777.207 101.624L777.854 100.636C772.343 97.0234 765.989 95.2314 758.835 95.2314V96.4132ZM777.207 101.624L776.559 102.612C781.656 105.953 785.655 110.698 788.545 116.896L789.616 116.397L790.687 115.897C787.632 109.346 783.358 104.243 777.854 100.636L777.207 101.624ZM789.616 116.397L788.545 116.896C791.429 123.082 792.893 130.425 792.893 138.959H794.074H795.256C795.256 130.159 793.747 122.46 790.687 115.897L789.616 116.397ZM794.074 138.959H792.893C792.893 147.565 791.429 154.962 788.544 161.185L789.616 161.682L790.688 162.179C793.748 155.58 795.256 147.829 795.256 138.959H794.074ZM789.616 161.682L788.545 161.182C785.653 167.383 781.669 172.149 776.605 175.525L777.26 176.508L777.916 177.492C783.38 173.849 787.633 168.73 790.687 162.181L789.616 161.682ZM777.26 176.508L776.609 175.522C771.556 178.857 765.716 180.537 759.05 180.537V181.719V182.901C766.135 182.901 772.436 181.107 777.911 177.495L777.26 176.508ZM759.05 181.719V180.537C753.864 180.537 749.839 179.676 746.888 178.051L746.318 179.087L745.748 180.122C749.172 182.007 753.635 182.901 759.05 182.901V181.719ZM746.318 179.087L746.897 178.056C743.811 176.323 741.496 174.397 739.899 172.3L738.959 173.017L738.019 173.733C739.859 176.148 742.45 178.269 745.739 180.117L746.318 179.087ZM738.959 173.017L739.904 172.307C738.195 170.029 736.893 168.162 735.988 166.7L734.984 167.322L733.979 167.944C734.936 169.491 736.284 171.42 738.013 173.726L738.959 173.017ZM734.984 167.322V166.14H733.479V167.322V168.504H734.984V167.322ZM733.479 167.322H732.298V180H733.479H734.661V167.322H733.479ZM733.479 180V178.818H721.231V180V181.182H733.479V180ZM733.694 138.744H732.512C732.512 145.089 733.442 150.734 735.33 155.659L736.434 155.236L737.537 154.812C735.773 150.211 734.876 144.862 734.876 138.744H733.694ZM736.434 155.236L735.332 155.661C737.225 160.561 740.013 164.457 743.72 167.294L744.438 166.355L745.156 165.417C741.844 162.882 739.296 159.364 737.536 154.81L736.434 155.236ZM744.438 166.355L743.726 167.299C747.472 170.127 752.03 171.512 757.331 171.512V170.331V169.149C752.46 169.149 748.424 167.884 745.15 165.412L744.438 166.355ZM757.331 170.331V171.512C762.848 171.512 767.542 170.054 771.331 167.069L770.599 166.14L769.868 165.212C766.566 167.814 762.414 169.149 757.331 169.149V170.331ZM770.599 166.14L771.332 167.068C775.101 164.09 777.906 160.109 779.763 155.168L778.657 154.752L777.551 154.336C775.827 158.922 773.26 162.532 769.867 165.213L770.599 166.14ZM778.657 154.752L779.762 155.172C781.646 150.221 782.579 144.74 782.579 138.744H781.397H780.215C780.215 144.494 779.321 149.685 777.553 154.332L778.657 154.752ZM781.397 138.744H782.579C782.579 132.82 781.664 127.445 779.814 122.634L778.711 123.058L777.608 123.482C779.339 127.982 780.215 133.064 780.215 138.744H781.397ZM778.711 123.058L779.818 122.644C777.994 117.768 775.201 113.869 771.422 110.997L770.707 111.938L769.992 112.879C773.375 115.451 775.918 118.965 777.604 123.472L778.711 123.058ZM770.707 111.938L771.432 111.005C767.641 108.056 762.912 106.62 757.331 106.62V107.802V108.983C762.493 108.983 766.682 110.305 769.981 112.871L770.707 111.938ZM757.331 107.802V106.62C751.966 106.62 747.373 107.983 743.625 110.775L744.331 111.723L745.037 112.671C748.308 110.234 752.381 108.983 757.331 108.983V107.802ZM744.331 111.723L743.631 110.771C739.914 113.502 737.137 117.315 735.277 122.15L736.38 122.574L737.483 122.999C739.205 118.523 741.728 115.102 745.03 112.676L744.331 111.723ZM736.38 122.574L735.278 122.147C733.424 126.932 732.512 132.472 732.512 138.744H733.694H734.876C734.876 132.696 735.755 127.456 737.482 123.001L736.38 122.574ZM826.145 69.9835H827.326V68.8016H826.145V69.9835ZM826.145 180V181.182H827.326V180H826.145ZM813.467 180H812.285V181.182H813.467V180ZM813.467 69.9835V68.8016H812.285V69.9835H813.467ZM826.145 69.9835H824.963V180H826.145H827.326V69.9835H826.145ZM826.145 180V178.818H813.467V180V181.182H826.145V180ZM813.467 180H814.649V69.9835H813.467H812.285V180H813.467ZM813.467 69.9835V71.1653H826.145V69.9835V68.8016H813.467V69.9835ZM863.385 176.455L862.764 177.46L862.771 177.464L863.385 176.455ZM850.117 161.628L849.053 162.142L849.056 162.149L850.117 161.628ZM850.117 117.041L849.052 116.529L849.05 116.532L850.117 117.041ZM863.117 101.893L863.762 102.883L863.764 102.882L863.117 101.893ZM895.402 98.562L895.784 97.4437L895.784 97.4437L895.402 98.562ZM906.844 105.545L906.036 106.408L906.041 106.412L906.844 105.545ZM915.063 118.223L916.165 117.796L916.165 117.796L915.063 118.223ZM918.125 143.041V144.223H919.307V143.041H918.125ZM854.522 143.041H853.34V144.223H854.522V143.041ZM854.522 132.083V130.901H853.34V132.083H854.522ZM905.232 132.083V133.264H906.414V132.083H905.232ZM902.439 119.62L901.382 120.148L901.386 120.157L902.439 119.62ZM894.596 110.971L893.968 111.972L893.973 111.975L894.596 110.971ZM869.563 111.562L870.225 112.541L870.227 112.539L869.563 111.562ZM861.129 121.231L860.07 120.707L860.07 120.707L861.129 121.231ZM861.398 157.169L860.339 157.694L860.344 157.705L861.398 157.169ZM870.476 167L869.881 168.021L869.888 168.025L870.476 167ZM892.985 168.934L893.372 170.051L893.38 170.048L892.985 168.934ZM900.022 164.636L900.842 165.487L900.85 165.48L900.022 164.636ZM904.588 157.438L904.907 156.3L903.862 156.007L903.481 157.023L904.588 157.438ZM916.836 160.876L917.965 161.226L918.324 160.066L917.155 159.738L916.836 160.876ZM910.336 171.835L911.181 172.661L911.186 172.656L910.336 171.835ZM899.055 179.14L899.478 180.244L899.486 180.241L899.055 179.14ZM883.96 181.719V180.537C876.187 180.537 869.55 178.823 864 175.445L863.385 176.455L862.771 177.464C868.753 181.105 875.832 182.901 883.96 182.901V181.719ZM863.385 176.455L864.007 175.45C858.475 172.027 854.2 167.256 851.177 161.107L850.117 161.628L849.056 162.149C852.265 168.677 856.835 173.792 862.764 177.46L863.385 176.455ZM850.117 161.628L851.181 161.114C848.192 154.928 846.679 147.696 846.679 139.388H845.497H844.315C844.315 147.984 845.882 155.579 849.053 162.142L850.117 161.628ZM845.497 139.388H846.679C846.679 131.081 848.192 123.811 851.183 117.551L850.117 117.041L849.05 116.532C845.882 123.164 844.315 130.792 844.315 139.388H845.497ZM850.117 117.041L851.182 117.553C854.212 111.249 858.407 106.372 863.762 102.883L863.117 101.893L862.472 100.902C856.724 104.648 852.253 109.87 849.052 116.529L850.117 117.041ZM863.117 101.893L863.764 102.882C869.136 99.3688 875.424 97.595 882.671 97.595V96.4132V95.2314C875.019 95.2314 868.271 97.1105 862.47 100.903L863.117 101.893ZM882.671 96.4132V97.595C886.834 97.595 890.949 98.2885 895.02 99.6802L895.402 98.562L895.784 97.4437C891.475 95.9704 887.102 95.2314 882.671 95.2314V96.4132ZM895.402 98.562L895.02 99.6802C899.041 101.055 902.712 103.292 906.036 106.408L906.844 105.545L907.652 104.683C904.1 101.353 900.143 98.9338 895.784 97.4437L895.402 98.562ZM906.844 105.545L906.041 106.412C909.323 109.455 911.972 113.519 913.961 118.65L915.063 118.223L916.165 117.796C914.072 112.398 911.241 108.01 907.648 104.679L906.844 105.545ZM915.063 118.223L913.961 118.65C915.934 123.739 916.943 130.066 916.943 137.669H918.125H919.307C919.307 129.873 918.275 123.236 916.165 117.796L915.063 118.223ZM918.125 137.669H916.943V143.041H918.125H919.307V137.669H918.125ZM918.125 143.041V141.86H854.522V143.041V144.223H918.125V143.041ZM854.522 143.041H855.704V132.083H854.522H853.34V143.041H854.522ZM854.522 132.083V133.264H905.232V132.083V130.901H854.522V132.083ZM905.232 132.083H906.414C906.414 127.266 905.45 122.923 903.492 119.083L902.439 119.62L901.386 120.157C903.153 123.622 904.051 127.588 904.051 132.083H905.232ZM902.439 119.62L903.496 119.091C901.574 115.247 898.811 112.198 895.22 109.967L894.596 110.971L893.973 111.975C897.185 113.97 899.651 116.687 901.382 120.148L902.439 119.62ZM894.596 110.971L895.224 109.97C891.642 107.722 887.442 106.62 882.671 106.62V107.802V108.983C887.067 108.983 890.817 109.994 893.968 111.972L894.596 110.971ZM882.671 107.802V106.62C877.416 106.62 872.809 107.927 868.899 110.585L869.563 111.562L870.227 112.539C873.695 110.183 877.825 108.983 882.671 108.983V107.802ZM869.563 111.562L868.901 110.583C865.078 113.169 862.13 116.549 860.07 120.707L861.129 121.231L862.188 121.756C864.068 117.963 866.743 114.897 870.225 112.541L869.563 111.562ZM861.129 121.231L860.07 120.707C858.018 124.849 856.993 129.291 856.993 134.017H858.175H859.356C859.356 129.646 860.301 125.564 862.188 121.756L861.129 121.231ZM858.175 134.017H856.993V141.322H858.175H859.356V134.017H858.175ZM858.175 141.322H856.993C856.993 147.685 858.089 153.158 860.339 157.694L861.398 157.169L862.457 156.644C860.409 152.514 859.356 147.422 859.356 141.322H858.175ZM861.398 157.169L860.344 157.705C862.623 162.189 865.802 165.641 869.881 168.021L870.476 167L871.072 165.979C867.415 163.846 864.541 160.745 862.451 156.634L861.398 157.169ZM870.476 167L869.888 168.025C873.96 170.363 878.663 171.512 883.96 171.512V170.331V169.149C879.014 169.149 874.728 168.078 871.065 165.975L870.476 167ZM883.96 170.331V171.512C887.4 171.512 890.542 171.031 893.372 170.051L892.985 168.934L892.597 167.817C890.055 168.699 887.181 169.149 883.96 169.149V170.331ZM892.985 168.934L893.38 170.048C896.251 169.027 898.744 167.509 900.842 165.487L900.022 164.636L899.202 163.785C897.36 165.56 895.161 166.906 892.589 167.82L892.985 168.934ZM900.022 164.636L900.85 165.48C902.955 163.412 904.566 160.862 905.694 157.853L904.588 157.438L903.481 157.023C902.461 159.744 901.028 161.992 899.194 163.793L900.022 164.636ZM904.588 157.438L904.268 158.576L916.516 162.014L916.836 160.876L917.155 159.738L904.907 156.3L904.588 157.438ZM916.836 160.876L915.707 160.526C914.473 164.502 912.402 167.994 909.486 171.014L910.336 171.835L911.186 172.656C914.357 169.372 916.62 165.558 917.965 161.226L916.836 160.876ZM910.336 171.835L909.49 171.009C906.575 173.993 902.961 176.34 898.623 178.04L899.055 179.14L899.486 180.241C904.102 178.431 908.008 175.908 911.181 172.661L910.336 171.835ZM899.055 179.14L898.631 178.037C894.31 179.697 889.425 180.537 883.96 180.537V181.719V182.901C889.668 182.901 894.846 182.023 899.478 180.244L899.055 179.14ZM943.642 180V181.182H944.476L944.755 180.395L943.642 180ZM929.675 180L928.565 179.593L927.982 181.182H929.675V180ZM970.071 69.9835V68.8016H969.246L968.962 69.5761L970.071 69.9835ZM983.823 69.9835L984.933 69.5761L984.648 68.8016H983.823V69.9835ZM1024.22 180V181.182H1025.91L1025.33 179.593L1024.22 180ZM1010.25 180L1009.14 180.395L1009.42 181.182H1010.25V180ZM977.377 87.3884L978.491 86.9931L978.212 86.2066H977.377V87.3884ZM976.518 87.3884V86.2066H975.683L975.404 86.9931L976.518 87.3884ZM948.799 137.025V135.843H947.617V137.025H948.799ZM1005.1 137.025H1006.28V135.843H1005.1V137.025ZM1005.1 148.843V150.025H1006.28V148.843H1005.1ZM948.799 148.843H947.617V150.025H948.799V148.843ZM943.642 180V178.818H929.675V180V181.182H943.642V180ZM929.675 180L930.784 180.407L971.181 70.3908L970.071 69.9835L968.962 69.5761L928.565 179.593L929.675 180ZM970.071 69.9835V71.1653H983.823V69.9835V68.8016H970.071V69.9835ZM983.823 69.9835L982.714 70.3908L1023.11 180.407L1024.22 180L1025.33 179.593L984.933 69.5761L983.823 69.9835ZM1024.22 180V178.818H1010.25V180V181.182H1024.22V180ZM1010.25 180L1011.37 179.605L978.491 86.9931L977.377 87.3884L976.263 87.7838L1009.14 180.395L1010.25 180ZM977.377 87.3884V86.2066H976.518V87.3884V88.5702H977.377V87.3884ZM976.518 87.3884L975.404 86.9931L942.528 179.605L943.642 180L944.755 180.395L977.631 87.7838L976.518 87.3884ZM948.799 137.025V138.207H1005.1V137.025V135.843H948.799V137.025ZM1005.1 137.025H1003.91V148.843H1005.1H1006.28V137.025H1005.1ZM1005.1 148.843V147.661H948.799V148.843V150.025H1005.1V148.843ZM948.799 148.843H949.98V137.025H948.799H947.617V148.843H948.799ZM1054.68 69.9835H1055.86V68.8016H1054.68V69.9835ZM1054.68 180V181.182H1055.86V180H1054.68ZM1041.36 180H1040.17V181.182H1041.36V180ZM1041.36 69.9835V68.8016H1040.17V69.9835H1041.36ZM1054.68 69.9835H1053.5V180H1054.68H1055.86V69.9835H1054.68ZM1054.68 180V178.818H1041.36V180V181.182H1054.68V180ZM1041.36 180H1042.54V69.9835H1041.36H1040.17V180H1041.36ZM1041.36 69.9835V71.1653H1054.68V69.9835V68.8016H1041.36V69.9835Z" fill="white" mask="url(#path-8-outside-1_73_15194)"/>
<path d="M260.322 180H259.14V181.182H260.322V180ZM260.322 69.9835V68.8016H259.14V69.9835H260.322ZM323.174 76.5909L322.58 77.6131L322.584 77.6152L323.174 76.5909ZM340.632 95.4463L339.572 95.9692L339.573 95.9711L340.632 95.4463ZM340.579 154.376L341.637 154.901L341.638 154.899L340.579 154.376ZM322.744 173.393L323.325 174.422L323.328 174.42L322.744 173.393ZM273.645 168.182H272.463V169.364H273.645V168.182ZM316.029 162.917L315.431 161.898L316.029 162.917ZM329.459 101.839L328.381 102.324L328.382 102.326L329.459 101.839ZM316.459 87.0124L315.849 88.0247L315.853 88.0275L316.459 87.0124ZM273.645 81.8016V80.6198H272.463V81.8016H273.645ZM294.273 180V178.818H260.322V180V181.182H294.273V180ZM260.322 180H261.504V69.9835H260.322H259.14V180H260.322ZM260.322 69.9835V71.1653H295.777V69.9835V68.8016H260.322V69.9835ZM295.777 69.9835V71.1653C306.286 71.1653 315.204 73.3331 322.58 77.6131L323.174 76.5909L323.767 75.5687C315.959 71.0388 306.613 68.8016 295.777 68.8016V69.9835ZM323.174 76.5909L322.584 77.6152C329.964 81.8622 335.624 87.9684 339.572 95.9692L340.632 95.4463L341.692 94.9233C337.546 86.5219 331.568 80.0579 323.763 75.5666L323.174 76.5909ZM340.632 95.4463L339.573 95.9711C343.522 103.938 345.521 113.526 345.521 124.777H346.702H347.884C347.884 113.251 345.836 103.285 341.691 94.9215L340.632 95.4463ZM346.702 124.777H345.521C345.521 136.098 343.504 145.778 339.519 153.853L340.579 154.376L341.638 154.899C345.818 146.429 347.884 136.375 347.884 124.777H346.702ZM340.579 154.376L339.52 153.851C335.539 161.882 329.757 168.044 322.159 172.365L322.744 173.393L323.328 174.42C331.345 169.86 337.453 163.344 341.637 154.901L340.579 154.376ZM322.744 173.393L322.163 172.363C314.572 176.646 305.292 178.818 294.273 178.818V180V181.182C305.6 181.182 315.302 178.949 323.325 174.422L322.744 173.393ZM273.645 168.182V169.364H293.413V168.182V167H273.645V168.182ZM293.413 168.182V169.364C302.656 169.364 310.417 167.581 316.627 163.937L316.029 162.917L315.431 161.898C309.68 165.273 302.363 167 293.413 167V168.182ZM316.029 162.917L316.627 163.937C322.824 160.3 327.447 155.116 330.481 148.417L329.405 147.93L328.328 147.442C325.49 153.708 321.195 158.515 315.431 161.898L316.029 162.917ZM329.405 147.93L330.481 148.417C333.503 141.748 334.992 133.856 334.992 124.777H333.81H332.628C332.628 133.604 331.18 141.147 328.328 147.442L329.405 147.93ZM333.81 124.777H334.992C334.992 115.77 333.521 107.95 330.535 101.352L329.459 101.839L328.382 102.326C331.198 108.549 332.628 116.021 332.628 124.777H333.81ZM329.459 101.839L330.536 101.354C327.542 94.699 323.049 89.5662 317.064 85.9973L316.459 87.0124L315.853 88.0275C321.4 91.3346 325.574 96.0861 328.381 102.324L329.459 101.839ZM316.459 87.0124L317.069 86.0001C311.074 82.3886 303.669 80.6198 294.917 80.6198V81.8016V82.9835C303.356 82.9835 310.311 84.6885 315.849 88.0247L316.459 87.0124ZM294.917 81.8016V80.6198H273.645V81.8016V82.9835H294.917V81.8016ZM273.645 81.8016H272.463V168.182H273.645H274.826V81.8016H273.645ZM381.351 176.455L380.729 177.46L380.737 177.464L381.351 176.455ZM368.083 161.628L367.019 162.142L367.022 162.149L368.083 161.628ZM368.083 117.041L367.017 116.529L367.016 116.532L368.083 117.041ZM381.083 101.893L381.728 102.883L381.729 102.882L381.083 101.893ZM413.368 98.562L413.75 97.4437L413.75 97.4437L413.368 98.562ZM424.81 105.545L424.002 106.408L424.006 106.412L424.81 105.545ZM433.029 118.223L434.131 117.796L434.131 117.796L433.029 118.223ZM436.091 143.041V144.223H437.273V143.041H436.091ZM372.488 143.041H371.306V144.223H372.488V143.041ZM372.488 132.083V130.901H371.306V132.083H372.488ZM423.198 132.083V133.264H424.38V132.083H423.198ZM420.405 119.62L419.348 120.148L419.352 120.157L420.405 119.62ZM412.562 110.971L411.934 111.972L411.938 111.975L412.562 110.971ZM387.529 111.562L388.191 112.541L388.193 112.539L387.529 111.562ZM379.095 121.231L378.036 120.707L378.036 120.707L379.095 121.231ZM379.364 157.169L378.305 157.694L378.31 157.705L379.364 157.169ZM388.442 167L387.847 168.021L387.854 168.025L388.442 167ZM410.95 168.934L411.338 170.051L411.346 170.048L410.95 168.934ZM417.988 164.636L418.808 165.487L418.816 165.48L417.988 164.636ZM422.554 157.438L422.873 156.3L421.828 156.007L421.447 157.023L422.554 157.438ZM434.802 160.876L435.93 161.226L436.29 160.066L435.121 159.738L434.802 160.876ZM428.302 171.835L429.147 172.661L429.152 172.656L428.302 171.835ZM417.021 179.14L417.444 180.244L417.452 180.241L417.021 179.14ZM401.926 181.719V180.537C394.153 180.537 387.516 178.823 381.966 175.445L381.351 176.455L380.737 177.464C386.718 181.105 393.797 182.901 401.926 182.901V181.719ZM381.351 176.455L381.973 175.45C376.441 172.027 372.166 167.256 369.143 161.107L368.083 161.628L367.022 162.149C370.231 168.677 374.801 173.792 380.729 177.46L381.351 176.455ZM368.083 161.628L369.147 161.114C366.158 154.928 364.645 147.696 364.645 139.388H363.463H362.281C362.281 147.984 363.848 155.579 367.019 162.142L368.083 161.628ZM363.463 139.388H364.645C364.645 131.081 366.158 123.811 369.149 117.551L368.083 117.041L367.016 116.532C363.848 123.164 362.281 130.792 362.281 139.388H363.463ZM368.083 117.041L369.148 117.553C372.178 111.249 376.373 106.372 381.728 102.883L381.083 101.893L380.437 100.902C374.69 104.648 370.219 109.87 367.017 116.529L368.083 117.041ZM381.083 101.893L381.729 102.882C387.102 99.3688 393.389 97.595 400.636 97.595V96.4132V95.2314C392.985 95.2314 386.237 97.1105 380.436 100.903L381.083 101.893ZM400.636 96.4132V97.595C404.8 97.595 408.915 98.2885 412.985 99.6802L413.368 98.562L413.75 97.4437C409.441 95.9704 405.068 95.2314 400.636 95.2314V96.4132ZM413.368 98.562L412.985 99.6802C417.007 101.055 420.678 103.292 424.002 106.408L424.81 105.545L425.618 104.683C422.066 101.353 418.109 98.9338 413.75 97.4437L413.368 98.562ZM424.81 105.545L424.006 106.412C427.289 109.455 429.937 113.519 431.927 118.65L433.029 118.223L434.131 117.796C432.038 112.398 429.207 108.01 425.613 104.679L424.81 105.545ZM433.029 118.223L431.927 118.65C433.9 123.739 434.909 130.066 434.909 137.669H436.091H437.273C437.273 129.873 436.24 123.236 434.131 117.796L433.029 118.223ZM436.091 137.669H434.909V143.041H436.091H437.273V137.669H436.091ZM436.091 143.041V141.86H372.488V143.041V144.223H436.091V143.041ZM372.488 143.041H373.669V132.083H372.488H371.306V143.041H372.488ZM372.488 132.083V133.264H423.198V132.083V130.901H372.488V132.083ZM423.198 132.083H424.38C424.38 127.266 423.416 122.923 421.458 119.083L420.405 119.62L419.352 120.157C421.119 123.622 422.017 127.588 422.017 132.083H423.198ZM420.405 119.62L421.462 119.091C419.54 115.247 416.777 112.198 413.186 109.967L412.562 110.971L411.938 111.975C415.151 113.97 417.617 116.687 419.348 120.148L420.405 119.62ZM412.562 110.971L413.19 109.97C409.608 107.722 405.408 106.62 400.636 106.62V107.802V108.983C405.033 108.983 408.783 109.994 411.934 111.972L412.562 110.971ZM400.636 107.802V106.62C395.382 106.62 390.774 107.927 386.865 110.585L387.529 111.562L388.193 112.539C391.661 110.183 395.791 108.983 400.636 108.983V107.802ZM387.529 111.562L386.867 110.583C383.043 113.169 380.096 116.549 378.036 120.707L379.095 121.231L380.154 121.756C382.034 117.963 384.709 114.897 388.191 112.541L387.529 111.562ZM379.095 121.231L378.036 120.707C375.984 124.849 374.959 129.291 374.959 134.017H376.141H377.322C377.322 129.646 378.267 125.564 380.154 121.756L379.095 121.231ZM376.141 134.017H374.959V141.322H376.141H377.322V134.017H376.141ZM376.141 141.322H374.959C374.959 147.685 376.055 153.158 378.305 157.694L379.364 157.169L380.422 156.644C378.374 152.514 377.322 147.422 377.322 141.322H376.141ZM379.364 157.169L378.31 157.705C380.589 162.189 383.768 165.641 387.847 168.021L388.442 167L389.038 165.979C385.381 163.846 382.507 160.745 380.417 156.634L379.364 157.169ZM388.442 167L387.854 168.025C391.926 170.363 396.629 171.512 401.926 171.512V170.331V169.149C396.98 169.149 392.694 168.078 389.031 165.975L388.442 167ZM401.926 170.331V171.512C405.366 171.512 408.508 171.031 411.338 170.051L410.95 168.934L410.563 167.817C408.021 168.699 405.147 169.149 401.926 169.149V170.331ZM410.95 168.934L411.346 170.048C414.217 169.027 416.71 167.509 418.808 165.487L417.988 164.636L417.168 163.785C415.326 165.56 413.127 166.906 410.555 167.82L410.95 168.934ZM417.988 164.636L418.816 165.48C420.921 163.412 422.532 160.862 423.66 157.853L422.554 157.438L421.447 157.023C420.427 159.744 418.994 161.992 417.16 163.793L417.988 164.636ZM422.554 157.438L422.234 158.576L434.482 162.014L434.802 160.876L435.121 159.738L422.873 156.3L422.554 157.438ZM434.802 160.876L433.673 160.526C432.439 164.502 430.368 167.994 427.452 171.014L428.302 171.835L429.152 172.656C432.323 169.372 434.586 165.558 435.93 161.226L434.802 160.876ZM428.302 171.835L427.456 171.009C424.541 173.993 420.926 176.34 416.589 178.04L417.021 179.14L417.452 180.241C422.068 178.431 425.974 175.908 429.147 172.661L428.302 171.835ZM417.021 179.14L416.597 178.037C412.276 179.697 407.391 180.537 401.926 180.537V181.719V182.901C407.634 182.901 412.812 182.023 417.444 180.244L417.021 179.14ZM492.12 97.4876H493.302V96.3058H492.12V97.4876ZM492.12 108.231V109.413H493.302V108.231H492.12ZM447.641 108.231H446.459V109.413H447.641V108.231ZM447.641 97.4876V96.3058H446.459V97.4876H447.641ZM460.963 180H459.781V181.182H460.963V180ZM464.293 74.281L463.327 73.6003L463.327 73.6003L464.293 74.281ZM472.942 67.1901L472.462 66.1101L472.462 66.1101L472.942 67.1901ZM491.798 65.5785L491.506 66.7238L491.506 66.7238L491.798 65.5785ZM496.202 66.9752L497.324 67.3489L497.663 66.331L496.682 65.8952L496.202 66.9752ZM492.55 77.9339L492.176 79.055L493.297 79.4288L493.671 78.3076L492.55 77.9339ZM489.864 77.1281L489.534 78.2631L489.544 78.2658L489.864 77.1281ZM476.38 79.814L475.494 79.0326L475.486 79.0412L476.38 79.814ZM473.641 180V181.182H474.822V180H473.641ZM492.12 97.4876H490.938V108.231H492.12H493.302V97.4876H492.12ZM492.12 108.231V107.05H447.641V108.231V109.413H492.12V108.231ZM447.641 108.231H448.822V97.4876H447.641H446.459V108.231H447.641ZM447.641 97.4876V98.6694H492.12V97.4876V96.3058H447.641V97.4876ZM460.963 180H462.145V86.0992H460.963H459.781V180H460.963ZM460.963 86.0992H462.145C462.145 81.5597 463.209 77.8727 465.26 74.9617L464.293 74.281L463.327 73.6003C460.937 76.9923 459.781 81.1841 459.781 86.0992H460.963ZM464.293 74.281L465.26 74.9617C467.356 71.9859 470.071 69.7596 473.422 68.27L472.942 67.1901L472.462 66.1101C468.723 67.772 465.671 70.273 463.327 73.6003L464.293 74.281ZM472.942 67.1901L473.422 68.27C476.814 66.7625 480.393 66.0083 484.169 66.0083V64.8264V63.6446C480.067 63.6446 476.161 64.4661 472.462 66.1101L472.942 67.1901ZM484.169 64.8264V66.0083C487.233 66.0083 489.668 66.2559 491.506 66.7238L491.798 65.5785L492.089 64.4332C489.988 63.8983 487.337 63.6446 484.169 63.6446V64.8264ZM491.798 65.5785L491.506 66.7238C493.459 67.2208 494.849 67.6669 495.723 68.0552L496.202 66.9752L496.682 65.8952C495.622 65.424 494.076 64.939 492.089 64.4332L491.798 65.5785ZM496.202 66.9752L495.081 66.6015L491.428 77.5602L492.55 77.9339L493.671 78.3076L497.324 67.3489L496.202 66.9752ZM492.55 77.9339L492.923 76.8127C492.253 76.5891 491.336 76.3146 490.184 75.9904L489.864 77.1281L489.544 78.2658C490.683 78.5862 491.557 78.8489 492.176 79.055L492.55 77.9339ZM489.864 77.1281L490.193 75.9931C488.933 75.6271 487.34 75.4628 485.459 75.4628V76.6446V77.8264C487.23 77.8264 488.574 77.9844 489.534 78.263L489.864 77.1281ZM485.459 76.6446V75.4628C481.097 75.4628 477.671 76.5619 475.494 79.0326L476.38 79.814L477.267 80.5955C478.814 78.8403 481.441 77.8264 485.459 77.8264V76.6446ZM476.38 79.814L475.486 79.0412C473.405 81.4492 472.459 84.8691 472.459 89.1074H473.641H474.822C474.822 85.1805 475.703 82.4048 477.274 80.5869L476.38 79.814ZM473.641 89.1074H472.459V180H473.641H474.822V89.1074H473.641ZM473.641 180V178.818H460.963V180V181.182H473.641V180ZM509.887 180H508.706V181.182H509.887V180ZM509.887 97.4876V96.3058H508.706V97.4876H509.887ZM522.565 97.4876H523.747V96.3058H522.565V97.4876ZM522.565 180V181.182H523.747V180H522.565ZM509.941 81.2107L509.123 82.0637L509.132 82.0718L509.941 81.2107ZM509.941 69.0702L509.132 68.2091L509.123 68.2173L509.941 69.0702ZM522.673 69.0702L521.854 69.9232L521.863 69.9313L522.673 69.0702ZM522.673 81.2107L521.863 80.3496L521.854 80.3578L522.673 81.2107ZM509.887 180H511.069V97.4876H509.887H508.706V180H509.887ZM509.887 97.4876V98.6694H522.565V97.4876V96.3058H509.887V97.4876ZM522.565 97.4876H521.383V180H522.565H523.747V97.4876H522.565ZM522.565 180V178.818H509.887V180V181.182H522.565V180ZM516.334 83.7355V82.5537C514.162 82.5537 512.321 81.8256 510.751 80.3496L509.941 81.2107L509.132 82.0718C511.143 83.9623 513.564 84.9174 516.334 84.9174V83.7355ZM509.941 81.2107L510.759 80.3578C509.229 78.8903 508.491 77.1719 508.491 75.1405H507.309H506.127C506.127 77.8364 507.143 80.1648 509.123 82.0636L509.941 81.2107ZM507.309 75.1405H508.491C508.491 73.1091 509.229 71.3907 510.759 69.9231L509.941 69.0702L509.123 68.2173C507.143 70.1162 506.127 72.4446 506.127 75.1405H507.309ZM509.941 69.0702L510.751 69.9313C512.321 68.4554 514.162 67.7273 516.334 67.7273V66.5454V65.3636C513.564 65.3636 511.143 66.3187 509.132 68.2091L509.941 69.0702ZM516.334 66.5454V67.7273C518.505 67.7273 520.324 68.4548 521.854 69.9231L522.673 69.0702L523.491 68.2173C521.512 66.3193 519.104 65.3636 516.334 65.3636V66.5454ZM522.673 69.0702L521.863 69.9313C523.427 71.4012 524.177 73.1173 524.177 75.1405H525.358H526.54C526.54 72.4364 525.5 70.1057 523.482 68.2091L522.673 69.0702ZM525.358 75.1405H524.177C524.177 77.1637 523.427 78.8798 521.863 80.3496L522.673 81.2107L523.482 82.0718C525.5 80.1753 526.54 77.8446 526.54 75.1405H525.358ZM522.673 81.2107L521.854 80.3578C520.324 81.8262 518.505 82.5537 516.334 82.5537V83.7355V84.9174C519.104 84.9174 521.512 83.9617 523.491 82.0636L522.673 81.2107ZM558.463 180V181.182H559.645V180H558.463ZM545.785 180H544.603V181.182H545.785V180ZM545.785 97.4876V96.3058H544.603V97.4876H545.785ZM558.033 97.4876H559.215V96.3058H558.033V97.4876ZM558.033 110.38H556.851V111.562H558.033V110.38ZM559.107 110.38V111.562H559.864L560.18 110.875L559.107 110.38ZM567.917 100.281L568.558 101.274L568.565 101.27L567.917 100.281ZM597.839 99.8512L597.272 100.888L597.279 100.892L597.839 99.8512ZM607.616 110.165L606.56 110.697L606.562 110.7L607.616 110.165ZM611.107 180V181.182H612.289V180H611.107ZM598.43 180H597.248V181.182H598.43V180ZM593.38 113.281L592.511 114.082L592.515 114.086L593.38 113.281ZM568.669 110.434L568.099 109.399L568.094 109.401L568.669 110.434ZM561.202 118.116L560.164 117.552L560.164 117.552L561.202 118.116ZM558.463 130.364H557.281V180H558.463H559.645V130.364H558.463ZM558.463 180V178.818H545.785V180V181.182H558.463V180ZM545.785 180H546.967V97.4876H545.785H544.603V180H545.785ZM545.785 97.4876V98.6694H558.033V97.4876V96.3058H545.785V97.4876ZM558.033 97.4876H556.851V110.38H558.033H559.215V97.4876H558.033ZM558.033 110.38V111.562H559.107V110.38V109.198H558.033V110.38ZM559.107 110.38L560.18 110.875C562.019 106.892 564.804 103.697 568.558 101.274L567.917 100.281L567.276 99.288C563.152 101.95 560.064 105.488 558.034 109.885L559.107 110.38ZM567.917 100.281L568.565 101.27C572.259 98.852 577.099 97.595 583.174 97.595V96.4132V95.2314C576.785 95.2314 571.455 96.553 567.27 99.2922L567.917 100.281ZM583.174 96.4132V97.595C588.596 97.595 593.283 98.7062 597.272 100.888L597.839 99.8512L598.406 98.8144C594.015 96.4123 588.925 95.2314 583.174 95.2314V96.4132ZM597.839 99.8512L597.279 100.892C601.237 103.023 604.332 106.274 606.56 110.697L607.616 110.165L608.671 109.633C606.244 104.817 602.821 101.192 598.399 98.8107L597.839 99.8512ZM607.616 110.165L606.562 110.7C608.781 115.069 609.926 120.672 609.926 127.57H611.107H612.289C612.289 120.429 611.106 114.429 608.669 109.63L607.616 110.165ZM611.107 127.57H609.926V180H611.107H612.289V127.57H611.107ZM611.107 180V178.818H598.43V180V181.182H611.107V180ZM598.43 180H599.612V128.43H598.43H597.248V180H598.43ZM598.43 128.43H599.612C599.612 121.745 597.872 116.373 594.245 112.476L593.38 113.281L592.515 114.086C595.621 117.423 597.248 122.151 597.248 128.43H598.43ZM593.38 113.281L594.249 112.48C590.618 108.54 585.659 106.62 579.521 106.62V107.802V108.983C585.129 108.983 589.409 110.716 592.511 114.082L593.38 113.281ZM579.521 107.802V106.62C575.297 106.62 571.48 107.537 568.099 109.399L568.669 110.434L569.239 111.469C572.233 109.821 575.65 108.983 579.521 108.983V107.802ZM568.669 110.434L568.094 109.401C564.735 111.272 562.09 114.001 560.164 117.552L561.202 118.116L562.241 118.679C563.968 115.497 566.301 113.105 569.244 111.466L568.669 110.434ZM561.202 118.116L560.164 117.552C558.223 121.13 557.281 125.417 557.281 130.364H558.463H559.645C559.645 125.713 560.53 121.834 562.241 118.679L561.202 118.116ZM644.319 178.979L643.816 180.049L643.823 180.052L644.319 178.979ZM634.166 170.331L633.18 170.982L633.183 170.986L634.166 170.331ZM633.199 145.083L634.197 145.716L634.201 145.71L633.199 145.083ZM650.98 134.339L651.233 135.493L651.241 135.491L650.98 134.339ZM662.423 132.298L662.272 131.125L662.269 131.126L662.423 132.298ZM674.617 130.847L674.738 132.023L674.75 132.021L674.617 130.847ZM681.493 129.074L680.915 128.044L680.904 128.05L681.493 129.074ZM679.344 111.992L678.498 112.817L678.503 112.822L679.344 111.992ZM652.055 111.562L652.776 112.498L652.776 112.498L652.055 111.562ZM644.803 120.05L644.405 121.163L645.421 121.525L645.875 120.547L644.803 120.05ZM632.77 115.752L631.683 115.287L631.188 116.442L632.372 116.865L632.77 115.752ZM641.365 104.041L642.092 104.973L642.093 104.972L641.365 104.041ZM653.183 98.1322L653.481 99.2759L653.487 99.2741L653.183 98.1322ZM674.993 97.3802L674.775 98.5418L674.789 98.5442L674.993 97.3802ZM685.038 101.194L684.43 102.208L684.435 102.211L685.038 101.194ZM693.15 109.95L692.114 110.52L692.114 110.52L693.15 109.95ZM696.373 180V181.182H697.555V180H696.373ZM683.695 180H682.513V181.182H683.695V180ZM683.695 168.826H684.877V167.645H683.695V168.826ZM683.051 168.826V167.645H682.307L681.985 168.315L683.051 168.826ZM678.753 174.574L679.596 175.403L679.596 175.403L678.753 174.574ZM670.749 179.785L670.282 178.699L670.282 178.699L670.749 179.785ZM673.166 167.591L672.583 166.563L672.579 166.565L673.166 167.591ZM681.009 159.963L679.985 159.374L679.98 159.383L681.009 159.963ZM683.695 138.529H684.877V135.265L682.787 137.772L683.695 138.529ZM680.15 140.302L680.468 141.44L680.476 141.438L680.483 141.435L680.15 140.302ZM673.918 141.645L674.098 142.813L674.105 142.812L674.113 142.81L673.918 141.645ZM667.096 142.612L667.231 143.786L667.239 143.785L667.247 143.784L667.096 142.612ZM661.778 143.256L661.931 144.428L661.932 144.428L661.778 143.256ZM652.538 145.351L652.908 146.474L652.916 146.471L652.538 145.351ZM645.662 149.595L644.794 148.793L644.794 148.793L645.662 149.595ZM647.972 167.215L647.299 168.187L647.306 168.191L647.312 168.195L647.972 167.215ZM658.555 181.934V180.752C653.478 180.752 648.904 179.797 644.815 177.907L644.319 178.979L643.823 180.052C648.257 182.101 653.174 183.116 658.555 183.116V181.934ZM644.319 178.979L644.822 177.91C640.747 175.992 637.532 173.249 635.15 169.675L634.166 170.331L633.183 170.986C635.814 174.933 639.368 177.956 643.816 180.049L644.319 178.979ZM634.166 170.331L635.153 169.679C632.795 166.109 631.588 161.762 631.588 156.579H630.406H629.224C629.224 162.139 630.524 166.96 633.18 170.982L634.166 170.331ZM630.406 156.579H631.588C631.588 151.997 632.491 148.406 634.197 145.716L633.199 145.083L632.201 144.45C630.183 147.632 629.224 151.705 629.224 156.579H630.406ZM633.199 145.083L634.201 145.71C635.954 142.913 638.29 140.726 641.228 139.139L640.666 138.099L640.105 137.059C636.811 138.839 634.17 141.308 632.198 144.455L633.199 145.083ZM640.666 138.099L641.228 139.139C644.239 137.513 647.571 136.295 651.233 135.493L650.98 134.339L650.728 133.184C646.869 134.03 643.325 135.319 640.105 137.059L640.666 138.099ZM650.98 134.339L651.241 135.491C655.002 134.64 658.78 133.966 662.576 133.469L662.423 132.298L662.269 131.126C658.401 131.632 654.551 132.319 650.719 133.186L650.98 134.339ZM662.423 132.298L662.573 133.47C667.582 132.826 671.636 132.344 674.738 132.023L674.617 130.847L674.495 129.672C671.366 129.995 667.29 130.48 662.272 131.125L662.423 132.298ZM674.617 130.847L674.75 132.021C677.942 131.659 680.433 131.047 682.082 130.099L681.493 129.074L680.904 128.05C679.688 128.749 677.595 129.319 674.483 129.673L674.617 130.847ZM681.493 129.074L682.071 130.105C683.997 129.025 684.877 127.138 684.877 124.777H683.695H682.513C682.513 126.498 681.925 127.477 680.915 128.044L681.493 129.074ZM683.695 124.777H684.877V124.347H683.695H682.513V124.777H683.695ZM683.695 124.347H684.877C684.877 118.828 683.361 114.377 680.185 111.161L679.344 111.992L678.503 112.822C681.128 115.48 682.513 119.265 682.513 124.347H683.695ZM679.344 111.992L680.19 111.166C677.023 107.92 672.31 106.405 666.29 106.405V107.587V108.769C671.946 108.769 675.935 110.19 678.498 112.817L679.344 111.992ZM666.29 107.587V106.405C660.078 106.405 655.046 107.764 651.333 110.626L652.055 111.562L652.776 112.498C655.94 110.059 660.398 108.769 666.29 108.769V107.587ZM652.055 111.562L651.333 110.626C647.79 113.357 645.228 116.327 643.731 119.552L644.803 120.05L645.875 120.547C647.171 117.756 649.444 115.067 652.776 112.498L652.055 111.562ZM644.803 120.05L645.2 118.937L633.167 114.639L632.77 115.752L632.372 116.865L644.405 121.163L644.803 120.05ZM632.77 115.752L633.856 116.218C635.942 111.35 638.696 107.622 642.092 104.973L641.365 104.041L640.638 103.109C636.871 106.048 633.895 110.126 631.683 115.287L632.77 115.752ZM641.365 104.041L642.093 104.972C645.588 102.238 649.382 100.344 653.481 99.2759L653.183 98.1322L652.885 96.9886C648.46 98.1413 644.375 100.186 640.637 103.11L641.365 104.041ZM653.183 98.1322L653.487 99.2741C657.693 98.1528 661.816 97.595 665.861 97.595V96.4132V95.2314C661.596 95.2314 657.268 95.8197 652.878 96.9903L653.183 98.1322ZM665.861 96.4132V97.595C668.419 97.595 671.387 97.9066 674.775 98.5417L674.993 97.3802L675.211 96.2186C671.722 95.5645 668.603 95.2314 665.861 95.2314V96.4132ZM674.993 97.3802L674.789 98.5442C678.111 99.1264 681.323 100.343 684.43 102.208L685.038 101.194L685.646 100.181C682.307 98.1773 678.823 96.8515 675.197 96.2161L674.993 97.3802ZM685.038 101.194L684.435 102.211C687.483 104.019 690.049 106.769 692.114 110.52L693.15 109.95L694.185 109.381C691.953 105.325 689.111 102.237 685.641 100.178L685.038 101.194ZM693.15 109.95L692.114 110.52C694.132 114.186 695.191 119.195 695.191 125.636H696.373H697.555C697.555 118.971 696.465 113.522 694.185 109.381L693.15 109.95ZM696.373 125.636H695.191V180H696.373H697.555V125.636H696.373ZM696.373 180V178.818H683.695V180V181.182H696.373V180ZM683.695 180H684.877V168.826H683.695H682.513V180H683.695ZM683.695 168.826V167.645H683.051V168.826V170.008H683.695V168.826ZM683.051 168.826L681.985 168.315C681.201 169.949 679.861 171.76 677.91 173.746L678.753 174.574L679.596 175.403C681.656 173.306 683.182 171.285 684.116 169.338L683.051 168.826ZM678.753 174.574L677.91 173.746C676.037 175.653 673.508 177.312 670.282 178.699L670.749 179.785L671.216 180.871C674.651 179.393 677.459 177.578 679.596 175.403L678.753 174.574ZM670.749 179.785L670.282 178.699C667.138 180.052 663.242 180.752 658.555 180.752V181.934V183.116C663.465 183.116 667.698 182.384 671.216 180.871L670.749 179.785ZM660.489 170.545V171.727C665.655 171.727 670.095 170.712 673.754 168.616L673.166 167.591L672.579 166.565C669.361 168.409 665.35 169.364 660.489 169.364V170.545ZM673.166 167.591L673.749 168.619C677.388 166.556 680.167 163.867 682.039 160.543L681.009 159.963L679.98 159.383C678.342 162.29 675.893 164.686 672.583 166.563L673.166 167.591ZM681.009 159.963L682.034 160.552C683.923 157.265 684.877 153.786 684.877 150.132H683.695H682.513C682.513 153.354 681.677 156.429 679.985 159.374L681.009 159.963ZM683.695 150.132H684.877V138.529H683.695H682.513V150.132H683.695ZM683.695 138.529L682.787 137.772C682.666 137.918 682.397 138.139 681.877 138.399C681.37 138.652 680.689 138.911 679.816 139.168L680.15 140.302L680.483 141.435C681.437 141.155 682.26 140.85 682.935 140.513C683.597 140.182 684.187 139.784 684.603 139.285L683.695 138.529ZM680.15 140.302L679.831 139.164C678.091 139.651 676.057 140.09 673.724 140.479L673.918 141.645L674.113 142.81C676.507 142.411 678.627 141.955 680.468 141.44L680.15 140.302ZM673.918 141.645L673.739 140.477C671.42 140.833 669.155 141.154 666.945 141.439L667.096 142.612L667.247 143.784C669.478 143.496 671.761 143.172 674.098 142.813L673.918 141.645ZM667.096 142.612L666.961 141.437C664.774 141.689 662.994 141.904 661.624 142.084L661.778 143.256L661.932 144.428C663.284 144.25 665.049 144.036 667.231 143.786L667.096 142.612ZM661.778 143.256L661.625 142.084C658.261 142.523 655.105 143.238 652.16 144.231L652.538 145.351L652.916 146.471C655.701 145.531 658.705 144.849 661.931 144.428L661.778 143.256ZM652.538 145.351L652.169 144.229C649.178 145.213 646.705 146.726 644.794 148.793L645.662 149.595L646.53 150.397C648.129 148.668 650.24 147.352 652.908 146.474L652.538 145.351ZM645.662 149.595L644.794 148.793C642.823 150.929 641.902 153.787 641.902 157.223H643.084H644.266C644.266 154.213 645.064 151.986 646.531 150.397L645.662 149.595ZM643.084 157.223H641.902C641.902 161.965 643.682 165.682 647.299 168.187L647.972 167.215L648.645 166.243C645.744 164.235 644.266 161.291 644.266 157.223H643.084ZM647.972 167.215L647.312 168.195C650.848 170.578 655.267 171.727 660.489 171.727V170.545V169.364C655.611 169.364 651.685 168.292 648.633 166.235L647.972 167.215ZM721.231 180H720.05V181.182H721.231V180ZM721.231 69.9835V68.8016H720.05V69.9835H721.231ZM733.909 69.9835H735.091V68.8016H733.909V69.9835ZM733.909 110.595H732.727V111.777H733.909V110.595ZM734.984 110.595V111.777H735.625L735.974 111.239L734.984 110.595ZM738.851 105.116L737.904 104.409L737.902 104.412L738.851 105.116ZM746.05 99.0992L746.63 100.129L746.633 100.127L746.05 99.0992ZM777.207 101.624L777.854 100.636L777.854 100.636L777.207 101.624ZM789.616 161.682L790.687 162.181L790.688 162.179L789.616 161.682ZM777.26 176.508L777.911 177.495L777.916 177.492L777.26 176.508ZM746.318 179.087L745.739 180.117L745.748 180.122L746.318 179.087ZM738.959 173.017L738.013 173.726L738.019 173.733L738.959 173.017ZM734.984 167.322L735.988 166.7L735.642 166.14H734.984V167.322ZM733.479 167.322V166.14H732.298V167.322H733.479ZM733.479 180V181.182H734.661V180H733.479ZM736.434 155.236L735.33 155.659L735.332 155.661L736.434 155.236ZM744.438 166.355L743.72 167.294L743.726 167.299L744.438 166.355ZM770.599 166.14L771.331 167.069L771.332 167.068L770.599 166.14ZM778.657 154.752L777.553 154.332L777.551 154.336L778.657 154.752ZM778.711 123.058L777.604 123.472L777.608 123.482L778.711 123.058ZM770.707 111.938L769.981 112.871L769.992 112.879L770.707 111.938ZM744.331 111.723L745.03 112.676L745.037 112.671L744.331 111.723ZM736.38 122.574L737.482 123.001L737.483 122.999L736.38 122.574ZM721.231 180H722.413V69.9835H721.231H720.05V180H721.231ZM721.231 69.9835V71.1653H733.909V69.9835V68.8016H721.231V69.9835ZM733.909 69.9835H732.727V110.595H733.909H735.091V69.9835H733.909ZM733.909 110.595V111.777H734.984V110.595V109.413H733.909V110.595ZM734.984 110.595L735.974 111.239C736.887 109.836 738.16 108.031 739.8 105.82L738.851 105.116L737.902 104.412C736.248 106.641 734.943 108.489 733.993 109.951L734.984 110.595ZM738.851 105.116L739.799 105.822C741.36 103.729 743.62 101.824 746.63 100.129L746.05 99.0992L745.47 98.0694C742.248 99.8841 739.709 101.99 737.904 104.409L738.851 105.116ZM746.05 99.0992L746.633 100.127C749.541 98.4745 753.576 97.595 758.835 97.595V96.4132V95.2314C753.35 95.2314 748.861 96.1426 745.466 98.0716L746.05 99.0992ZM758.835 96.4132V97.595C765.575 97.595 771.469 99.2768 776.559 102.612L777.207 101.624L777.854 100.636C772.343 97.0234 765.989 95.2314 758.835 95.2314V96.4132ZM777.207 101.624L776.559 102.612C781.656 105.953 785.655 110.698 788.545 116.896L789.616 116.397L790.687 115.897C787.632 109.346 783.358 104.243 777.854 100.636L777.207 101.624ZM789.616 116.397L788.545 116.896C791.429 123.082 792.893 130.425 792.893 138.959H794.074H795.256C795.256 130.159 793.747 122.46 790.687 115.897L789.616 116.397ZM794.074 138.959H792.893C792.893 147.565 791.429 154.962 788.544 161.185L789.616 161.682L790.688 162.179C793.748 155.58 795.256 147.829 795.256 138.959H794.074ZM789.616 161.682L788.545 161.182C785.653 167.383 781.669 172.149 776.605 175.525L777.26 176.508L777.916 177.492C783.38 173.849 787.633 168.73 790.687 162.181L789.616 161.682ZM777.26 176.508L776.609 175.522C771.556 178.857 765.716 180.537 759.05 180.537V181.719V182.901C766.135 182.901 772.436 181.107 777.911 177.495L777.26 176.508ZM759.05 181.719V180.537C753.864 180.537 749.839 179.676 746.888 178.051L746.318 179.087L745.748 180.122C749.172 182.007 753.635 182.901 759.05 182.901V181.719ZM746.318 179.087L746.897 178.056C743.811 176.323 741.496 174.397 739.899 172.3L738.959 173.017L738.019 173.733C739.859 176.148 742.45 178.269 745.739 180.117L746.318 179.087ZM738.959 173.017L739.904 172.307C738.195 170.029 736.893 168.162 735.988 166.7L734.984 167.322L733.979 167.944C734.936 169.491 736.284 171.42 738.013 173.726L738.959 173.017ZM734.984 167.322V166.14H733.479V167.322V168.504H734.984V167.322ZM733.479 167.322H732.298V180H733.479H734.661V167.322H733.479ZM733.479 180V178.818H721.231V180V181.182H733.479V180ZM733.694 138.744H732.512C732.512 145.089 733.442 150.734 735.33 155.659L736.434 155.236L737.537 154.812C735.773 150.211 734.876 144.862 734.876 138.744H733.694ZM736.434 155.236L735.332 155.661C737.225 160.561 740.013 164.457 743.72 167.294L744.438 166.355L745.156 165.417C741.844 162.882 739.296 159.364 737.536 154.81L736.434 155.236ZM744.438 166.355L743.726 167.299C747.472 170.127 752.03 171.512 757.331 171.512V170.331V169.149C752.46 169.149 748.424 167.884 745.15 165.412L744.438 166.355ZM757.331 170.331V171.512C762.848 171.512 767.542 170.054 771.331 167.069L770.599 166.14L769.868 165.212C766.566 167.814 762.414 169.149 757.331 169.149V170.331ZM770.599 166.14L771.332 167.068C775.101 164.09 777.906 160.109 779.763 155.168L778.657 154.752L777.551 154.336C775.827 158.922 773.26 162.532 769.867 165.213L770.599 166.14ZM778.657 154.752L779.762 155.172C781.646 150.221 782.579 144.74 782.579 138.744H781.397H780.215C780.215 144.494 779.321 149.685 777.553 154.332L778.657 154.752ZM781.397 138.744H782.579C782.579 132.82 781.664 127.445 779.814 122.634L778.711 123.058L777.608 123.482C779.339 127.982 780.215 133.064 780.215 138.744H781.397ZM778.711 123.058L779.818 122.644C777.994 117.768 775.201 113.869 771.422 110.997L770.707 111.938L769.992 112.879C773.375 115.451 775.918 118.965 777.604 123.472L778.711 123.058ZM770.707 111.938L771.432 111.005C767.641 108.056 762.912 106.62 757.331 106.62V107.802V108.983C762.493 108.983 766.682 110.305 769.981 112.871L770.707 111.938ZM757.331 107.802V106.62C751.966 106.62 747.373 107.983 743.625 110.775L744.331 111.723L745.037 112.671C748.308 110.234 752.381 108.983 757.331 108.983V107.802ZM744.331 111.723L743.631 110.771C739.914 113.502 737.137 117.315 735.277 122.15L736.38 122.574L737.483 122.999C739.205 118.523 741.728 115.102 745.03 112.676L744.331 111.723ZM736.38 122.574L735.278 122.147C733.424 126.932 732.512 132.472 732.512 138.744H733.694H734.876C734.876 132.696 735.755 127.456 737.482 123.001L736.38 122.574ZM826.145 69.9835H827.326V68.8016H826.145V69.9835ZM826.145 180V181.182H827.326V180H826.145ZM813.467 180H812.285V181.182H813.467V180ZM813.467 69.9835V68.8016H812.285V69.9835H813.467ZM826.145 69.9835H824.963V180H826.145H827.326V69.9835H826.145ZM826.145 180V178.818H813.467V180V181.182H826.145V180ZM813.467 180H814.649V69.9835H813.467H812.285V180H813.467ZM813.467 69.9835V71.1653H826.145V69.9835V68.8016H813.467V69.9835ZM863.385 176.455L862.764 177.46L862.771 177.464L863.385 176.455ZM850.117 161.628L849.053 162.142L849.056 162.149L850.117 161.628ZM850.117 117.041L849.052 116.529L849.05 116.532L850.117 117.041ZM863.117 101.893L863.762 102.883L863.764 102.882L863.117 101.893ZM895.402 98.562L895.784 97.4437L895.784 97.4437L895.402 98.562ZM906.844 105.545L906.036 106.408L906.041 106.412L906.844 105.545ZM915.063 118.223L916.165 117.796L916.165 117.796L915.063 118.223ZM918.125 143.041V144.223H919.307V143.041H918.125ZM854.522 143.041H853.34V144.223H854.522V143.041ZM854.522 132.083V130.901H853.34V132.083H854.522ZM905.232 132.083V133.264H906.414V132.083H905.232ZM902.439 119.62L901.382 120.148L901.386 120.157L902.439 119.62ZM894.596 110.971L893.968 111.972L893.973 111.975L894.596 110.971ZM869.563 111.562L870.225 112.541L870.227 112.539L869.563 111.562ZM861.129 121.231L860.07 120.707L860.07 120.707L861.129 121.231ZM861.398 157.169L860.339 157.694L860.344 157.705L861.398 157.169ZM870.476 167L869.881 168.021L869.888 168.025L870.476 167ZM892.985 168.934L893.372 170.051L893.38 170.048L892.985 168.934ZM900.022 164.636L900.842 165.487L900.85 165.48L900.022 164.636ZM904.588 157.438L904.907 156.3L903.862 156.007L903.481 157.023L904.588 157.438ZM916.836 160.876L917.965 161.226L918.324 160.066L917.155 159.738L916.836 160.876ZM910.336 171.835L911.181 172.661L911.186 172.656L910.336 171.835ZM899.055 179.14L899.478 180.244L899.486 180.241L899.055 179.14ZM883.96 181.719V180.537C876.187 180.537 869.55 178.823 864 175.445L863.385 176.455L862.771 177.464C868.753 181.105 875.832 182.901 883.96 182.901V181.719ZM863.385 176.455L864.007 175.45C858.475 172.027 854.2 167.256 851.177 161.107L850.117 161.628L849.056 162.149C852.265 168.677 856.835 173.792 862.764 177.46L863.385 176.455ZM850.117 161.628L851.181 161.114C848.192 154.928 846.679 147.696 846.679 139.388H845.497H844.315C844.315 147.984 845.882 155.579 849.053 162.142L850.117 161.628ZM845.497 139.388H846.679C846.679 131.081 848.192 123.811 851.183 117.551L850.117 117.041L849.05 116.532C845.882 123.164 844.315 130.792 844.315 139.388H845.497ZM850.117 117.041L851.182 117.553C854.212 111.249 858.407 106.372 863.762 102.883L863.117 101.893L862.472 100.902C856.724 104.648 852.253 109.87 849.052 116.529L850.117 117.041ZM863.117 101.893L863.764 102.882C869.136 99.3688 875.424 97.595 882.671 97.595V96.4132V95.2314C875.019 95.2314 868.271 97.1105 862.47 100.903L863.117 101.893ZM882.671 96.4132V97.595C886.834 97.595 890.949 98.2885 895.02 99.6802L895.402 98.562L895.784 97.4437C891.475 95.9704 887.102 95.2314 882.671 95.2314V96.4132ZM895.402 98.562L895.02 99.6802C899.041 101.055 902.712 103.292 906.036 106.408L906.844 105.545L907.652 104.683C904.1 101.353 900.143 98.9338 895.784 97.4437L895.402 98.562ZM906.844 105.545L906.041 106.412C909.323 109.455 911.972 113.519 913.961 118.65L915.063 118.223L916.165 117.796C914.072 112.398 911.241 108.01 907.648 104.679L906.844 105.545ZM915.063 118.223L913.961 118.65C915.934 123.739 916.943 130.066 916.943 137.669H918.125H919.307C919.307 129.873 918.275 123.236 916.165 117.796L915.063 118.223ZM918.125 137.669H916.943V143.041H918.125H919.307V137.669H918.125ZM918.125 143.041V141.86H854.522V143.041V144.223H918.125V143.041ZM854.522 143.041H855.704V132.083H854.522H853.34V143.041H854.522ZM854.522 132.083V133.264H905.232V132.083V130.901H854.522V132.083ZM905.232 132.083H906.414C906.414 127.266 905.45 122.923 903.492 119.083L902.439 119.62L901.386 120.157C903.153 123.622 904.051 127.588 904.051 132.083H905.232ZM902.439 119.62L903.496 119.091C901.574 115.247 898.811 112.198 895.22 109.967L894.596 110.971L893.973 111.975C897.185 113.97 899.651 116.687 901.382 120.148L902.439 119.62ZM894.596 110.971L895.224 109.97C891.642 107.722 887.442 106.62 882.671 106.62V107.802V108.983C887.067 108.983 890.817 109.994 893.968 111.972L894.596 110.971ZM882.671 107.802V106.62C877.416 106.62 872.809 107.927 868.899 110.585L869.563 111.562L870.227 112.539C873.695 110.183 877.825 108.983 882.671 108.983V107.802ZM869.563 111.562L868.901 110.583C865.078 113.169 862.13 116.549 860.07 120.707L861.129 121.231L862.188 121.756C864.068 117.963 866.743 114.897 870.225 112.541L869.563 111.562ZM861.129 121.231L860.07 120.707C858.018 124.849 856.993 129.291 856.993 134.017H858.175H859.356C859.356 129.646 860.301 125.564 862.188 121.756L861.129 121.231ZM858.175 134.017H856.993V141.322H858.175H859.356V134.017H858.175ZM858.175 141.322H856.993C856.993 147.685 858.089 153.158 860.339 157.694L861.398 157.169L862.457 156.644C860.409 152.514 859.356 147.422 859.356 141.322H858.175ZM861.398 157.169L860.344 157.705C862.623 162.189 865.802 165.641 869.881 168.021L870.476 167L871.072 165.979C867.415 163.846 864.541 160.745 862.451 156.634L861.398 157.169ZM870.476 167L869.888 168.025C873.96 170.363 878.663 171.512 883.96 171.512V170.331V169.149C879.014 169.149 874.728 168.078 871.065 165.975L870.476 167ZM883.96 170.331V171.512C887.4 171.512 890.542 171.031 893.372 170.051L892.985 168.934L892.597 167.817C890.055 168.699 887.181 169.149 883.96 169.149V170.331ZM892.985 168.934L893.38 170.048C896.251 169.027 898.744 167.509 900.842 165.487L900.022 164.636L899.202 163.785C897.36 165.56 895.161 166.906 892.589 167.82L892.985 168.934ZM900.022 164.636L900.85 165.48C902.955 163.412 904.566 160.862 905.694 157.853L904.588 157.438L903.481 157.023C902.461 159.744 901.028 161.992 899.194 163.793L900.022 164.636ZM904.588 157.438L904.268 158.576L916.516 162.014L916.836 160.876L917.155 159.738L904.907 156.3L904.588 157.438ZM916.836 160.876L915.707 160.526C914.473 164.502 912.402 167.994 909.486 171.014L910.336 171.835L911.186 172.656C914.357 169.372 916.62 165.558 917.965 161.226L916.836 160.876ZM910.336 171.835L909.49 171.009C906.575 173.993 902.961 176.34 898.623 178.04L899.055 179.14L899.486 180.241C904.102 178.431 908.008 175.908 911.181 172.661L910.336 171.835ZM899.055 179.14L898.631 178.037C894.31 179.697 889.425 180.537 883.96 180.537V181.719V182.901C889.668 182.901 894.846 182.023 899.478 180.244L899.055 179.14ZM943.642 180V181.182H944.476L944.755 180.395L943.642 180ZM929.675 180L928.565 179.593L927.982 181.182H929.675V180ZM970.071 69.9835V68.8016H969.246L968.962 69.5761L970.071 69.9835ZM983.823 69.9835L984.933 69.5761L984.648 68.8016H983.823V69.9835ZM1024.22 180V181.182H1025.91L1025.33 179.593L1024.22 180ZM1010.25 180L1009.14 180.395L1009.42 181.182H1010.25V180ZM977.377 87.3884L978.491 86.9931L978.212 86.2066H977.377V87.3884ZM976.518 87.3884V86.2066H975.683L975.404 86.9931L976.518 87.3884ZM948.799 137.025V135.843H947.617V137.025H948.799ZM1005.1 137.025H1006.28V135.843H1005.1V137.025ZM1005.1 148.843V150.025H1006.28V148.843H1005.1ZM948.799 148.843H947.617V150.025H948.799V148.843ZM943.642 180V178.818H929.675V180V181.182H943.642V180ZM929.675 180L930.784 180.407L971.181 70.3908L970.071 69.9835L968.962 69.5761L928.565 179.593L929.675 180ZM970.071 69.9835V71.1653H983.823V69.9835V68.8016H970.071V69.9835ZM983.823 69.9835L982.714 70.3908L1023.11 180.407L1024.22 180L1025.33 179.593L984.933 69.5761L983.823 69.9835ZM1024.22 180V178.818H1010.25V180V181.182H1024.22V180ZM1010.25 180L1011.37 179.605L978.491 86.9931L977.377 87.3884L976.263 87.7838L1009.14 180.395L1010.25 180ZM977.377 87.3884V86.2066H976.518V87.3884V88.5702H977.377V87.3884ZM976.518 87.3884L975.404 86.9931L942.528 179.605L943.642 180L944.755 180.395L977.631 87.7838L976.518 87.3884ZM948.799 137.025V138.207H1005.1V137.025V135.843H948.799V137.025ZM1005.1 137.025H1003.91V148.843H1005.1H1006.28V137.025H1005.1ZM1005.1 148.843V147.661H948.799V148.843V150.025H1005.1V148.843ZM948.799 148.843H949.98V137.025H948.799H947.617V148.843H948.799ZM1054.68 69.9835H1055.86V68.8016H1054.68V69.9835ZM1054.68 180V181.182H1055.86V180H1054.68ZM1041.36 180H1040.17V181.182H1041.36V180ZM1041.36 69.9835V68.8016H1040.17V69.9835H1041.36ZM1054.68 69.9835H1053.5V180H1054.68H1055.86V69.9835H1054.68ZM1054.68 180V178.818H1041.36V180V181.182H1054.68V180ZM1041.36 180H1042.54V69.9835H1041.36H1040.17V180H1041.36ZM1041.36 69.9835V71.1653H1054.68V69.9835V68.8016H1041.36V69.9835Z" fill="white" fill-opacity="0.2" mask="url(#path-8-outside-1_73_15194)"/>
</svg>
