<?xml version="1.0" encoding="UTF-8"?>
<svg width="800" height="400" viewBox="0 0 800 400" xmlns="http://www.w3.org/2000/svg">
  <!-- Background -->
  <rect x="0" y="0" width="800" height="400" fill="#0d1117" />
  
  <!-- Client Layer -->
  <rect x="50" y="50" width="700" height="70" rx="10" ry="10" fill="#161b22" stroke="#30363d" stroke-width="2" />
  <text x="400" y="85" font-family="Arial" font-size="18" text-anchor="middle" fill="#c9d1d9">Client Applications</text>
  <rect x="100" y="75" width="100" height="30" rx="5" ry="5" fill="#1e3a8a" stroke="#3b82f6" stroke-width="2" />
  <text x="150" y="95" font-family="Arial" font-size="12" text-anchor="middle" fill="#bfdbfe">Web App</text>
  <rect x="240" y="75" width="100" height="30" rx="5" ry="5" fill="#1e3a8a" stroke="#3b82f6" stroke-width="2" />
  <text x="290" y="95" font-family="Arial" font-size="12" text-anchor="middle" fill="#bfdbfe">Mobile App</text>
  <rect x="380" y="75" width="100" height="30" rx="5" ry="5" fill="#1e3a8a" stroke="#3b82f6" stroke-width="2" />
  <text x="430" y="95" font-family="Arial" font-size="12" text-anchor="middle" fill="#bfdbfe">Third-party</text>
  <rect x="520" y="75" width="100" height="30" rx="5" ry="5" fill="#1e3a8a" stroke="#3b82f6" stroke-width="2" />
  <text x="570" y="95" font-family="Arial" font-size="12" text-anchor="middle" fill="#bfdbfe">CLI Tool</text>
  
  <!-- API Layer -->
  <rect x="50" y="150" width="700" height="70" rx="10" ry="10" fill="#161b22" stroke="#30363d" stroke-width="2" />
  <text x="400" y="185" font-family="Arial" font-size="18" text-anchor="middle" fill="#c9d1d9">FastAPI Application</text>
  <rect x="100" y="175" width="130" height="30" rx="5" ry="5" fill="#064e3b" stroke="#10b981" stroke-width="2" />
  <text x="165" y="195" font-family="Arial" font-size="12" text-anchor="middle" fill="#a7f3d0">Middleware</text>
  <rect x="260" y="175" width="130" height="30" rx="5" ry="5" fill="#064e3b" stroke="#10b981" stroke-width="2" />
  <text x="325" y="195" font-family="Arial" font-size="12" text-anchor="middle" fill="#a7f3d0">Route Handlers</text>
  <rect x="420" y="175" width="130" height="30" rx="5" ry="5" fill="#064e3b" stroke="#10b981" stroke-width="2" />
  <text x="485" y="195" font-family="Arial" font-size="12" text-anchor="middle" fill="#a7f3d0">Dependencies</text>
  <rect x="580" y="175" width="130" height="30" rx="5" ry="5" fill="#064e3b" stroke="#10b981" stroke-width="2" />
  <text x="645" y="195" font-family="Arial" font-size="12" text-anchor="middle" fill="#a7f3d0">Pydantic Models</text>
  
  <!-- Service Layer -->
  <rect x="50" y="250" width="700" height="70" rx="10" ry="10" fill="#161b22" stroke="#30363d" stroke-width="2" />
  <text x="400" y="285" font-family="Arial" font-size="18" text-anchor="middle" fill="#c9d1d9">Service Layer</text>
  <rect x="140" y="275" width="130" height="30" rx="5" ry="5" fill="#78350f" stroke="#f59e0b" stroke-width="2" />
  <text x="205" y="295" font-family="Arial" font-size="12" text-anchor="middle" fill="#fef3c7">Business Logic</text>
  <rect x="330" y="275" width="130" height="30" rx="5" ry="5" fill="#78350f" stroke="#f59e0b" stroke-width="2" />
  <text x="395" y="295" font-family="Arial" font-size="12" text-anchor="middle" fill="#fef3c7">Service Classes</text>
  <rect x="520" y="275" width="130" height="30" rx="5" ry="5" fill="#78350f" stroke="#f59e0b" stroke-width="2" />
  <text x="585" y="295" font-family="Arial" font-size="12" text-anchor="middle" fill="#fef3c7">Utilities</text>
  
  <!-- Data Layer -->
  <rect x="50" y="350" width="700" height="70" rx="10" ry="10" fill="#161b22" stroke="#30363d" stroke-width="2" />
  <text x="400" y="385" font-family="Arial" font-size="18" text-anchor="middle" fill="#c9d1d9">Data Layer</text>
  <rect x="100" y="375" width="130" height="30" rx="5" ry="5" fill="#581c87" stroke="#8b5cf6" stroke-width="2" />
  <text x="165" y="395" font-family="Arial" font-size="12" text-anchor="middle" fill="#e9d5ff">SQLAlchemy ORM</text>
  <rect x="260" y="375" width="130" height="30" rx="5" ry="5" fill="#581c87" stroke="#8b5cf6" stroke-width="2" />
  <text x="325" y="395" font-family="Arial" font-size="12" text-anchor="middle" fill="#e9d5ff">Database Session</text>
  <rect x="420" y="375" width="130" height="30" rx="5" ry="5" fill="#581c87" stroke="#8b5cf6" stroke-width="2" />
  <text x="485" y="395" font-family="Arial" font-size="12" text-anchor="middle" fill="#e9d5ff">Alembic</text>
  <rect x="580" y="375" width="130" height="30" rx="5" ry="5" fill="#581c87" stroke="#8b5cf6" stroke-width="2" />
  <text x="645" y="395" font-family="Arial" font-size="12" text-anchor="middle" fill="#e9d5ff">PostgreSQL</text>
  
  <!-- Connectors -->
  <line x1="400" y1="120" x2="400" y2="150" stroke="#30363d" stroke-width="2" stroke-dasharray="5,5" />
  <line x1="400" y1="220" x2="400" y2="250" stroke="#30363d" stroke-width="2" stroke-dasharray="5,5" />
  <line x1="400" y1="320" x2="400" y2="350" stroke="#30363d" stroke-width="2" stroke-dasharray="5,5" />
</svg> 